<?xml version="1.0" standalone="no"?>
<!DOCTYPE svg PUBLIC "-//W3C//DTD SVG 1.1//EN" "http://www.w3.org/Graphics/SVG/1.1/DTD/svg11.dtd" >
<svg xmlns="http://www.w3.org/2000/svg" xmlns:xlink="http://www.w3.org/1999/xlink" version="1.1">
<metadata></metadata>
<defs>
<font id="monoidbold" horiz-adv-x="1024" >
<font-face units-per-em="1536" ascent="1228" descent="-308" />
<missing-glyph horiz-adv-x="500" />
<glyph unicode=" " />
<glyph unicode="!" d="M576 330q76 0 124.5 -48t48.5 -125t-48.5 -125t-124.5 -48t-124.5 48t-48.5 125t48.5 125t124.5 48zM700 512h-248l-18 896h284z" />
<glyph unicode="&#x22;" d="M640 1408h256v-640h-256v640zM256 1408h256v-640h-256v640z" />
<glyph unicode="#" d="M512 896v-384h128v384h-128zM1024 512v-240h-128v-272h-256v272h-128v-272h-256v272h-128v240h128v384h-128v240h128v272h256v-272h128v272h256v-272h128v-240h-128v-384h128z" />
<glyph unicode="$" d="M640 1536h128v-117q69 -4 242 -20v-241q-188 18 -242 21v-366q94 -29 160.5 -94.5t96 -143t29.5 -161.5q0 -189 -114 -306t-300 -124v-112h-128v115q-115 6 -262 29v244q183 -27 262 -32v392q-132 37 -209 141t-77 254q0 180 114.5 294.5t299.5 114.5v112zM640 1184 q-75 0 -116.5 -43t-41.5 -128q0 -75 35.5 -120t122.5 -54v345zM640 596v-371q158 11 158 189q0 68 -38.5 120.5t-119.5 61.5z" />
<glyph unicode="%" d="M209 222l-162 188l896 776l162 -188zM384 1248q-38 0 -61 -25.5t-23 -70.5t23 -70.5t61 -25.5t61 25.5t23 70.5t-23 70.5t-61 25.5zM384 1424q119 0 195.5 -78t76.5 -194t-76.5 -194t-195.5 -78t-195.5 78t-76.5 194t76.5 194t195.5 78zM768 352q-38 0 -61 -25.5 t-23 -70.5t23 -70.5t61 -25.5t61 25.5t23 70.5t-23 70.5t-61 25.5zM768 528q119 0 195.5 -78t76.5 -194t-76.5 -194t-195.5 -78t-195.5 78t-76.5 194t76.5 194t195.5 78z" />
<glyph unicode="&#x26;" d="M454 601q-102 -71 -102 -195q0 -78 60 -130t164 -52q61 0 93 20zM555 899q102 53 102 196q0 41 -22 67t-59 26q-36 0 -58.5 -25.5t-22.5 -68.5q0 -90 60 -195zM768 548v92h256v-209q0 -150 -45 -228l123 -203h-284l-22 36q-85 -52 -220 -52q-111 0 -203 34.5t-152 92.5 t-92.5 134t-32.5 161q0 132 66.5 232t176.5 154q-53 76 -76.5 145t-23.5 156q0 149 95.5 242t241.5 93q148 0 242.5 -95t94.5 -238q0 -268 -239 -391z" />
<glyph unicode="'" d="M448 1408h256v-640h-256v640z" />
<glyph unicode="(" d="M777 1539l105 -211q-368 -168 -368 -625t368 -625l-105 -211q-246 110 -382.5 322t-136.5 514t136.5 514t382.5 322z" />
<glyph unicode=")" d="M377 1539q246 -110 382.5 -322t136.5 -514t-136.5 -514t-382.5 -322l-105 211q368 168 368 625t-368 625z" />
<glyph unicode="*" d="M448 438l-283 -93l-84 227l295 96l-185 255l212 135l173 -239l174 239l212 -135l-186 -255l295 -96l-84 -227l-283 93v-310h-256v310z" />
<glyph unicode="+" d="M704 760h320v-240h-320v-320h-256v320h-320v240h320v320h256v-320z" />
<glyph unicode="," d="M384 488h384v-376q0 -53 -2.5 -84.5t-21 -82.5t-54.5 -93q-49 -58 -128 -91t-178 -33v240q75 0 106 49q22 35 22 95v16h-128v360z" />
<glyph unicode="-" d="M128 760h896v-240h-896v240z" />
<glyph unicode="." d="M384 360h384v-360h-384v360z" />
<glyph unicode="/" d="M359 -197l-237 86l671 1716l237 -86z" />
<glyph unicode="0" d="M576 1426q202 0 284 -217q18 -49 27 -135t10.5 -156.5t1.5 -213.5t-1.5 -213.5t-10.5 -156.5t-27 -135q-82 -217 -284 -217t-284 217q-18 49 -27 135t-10.5 156.5t-1.5 213.5t1.5 213.5t10.5 156.5t27 135q82 217 284 217zM576 1182q-43 0 -61 -126q-10 -67 -10 -352 v-105l134 441q-7 59 -23 100.5t-40 41.5zM513 368q7 -59 23 -100.5t40 -41.5q43 0 61 126q10 67 10 352v105z" />
<glyph unicode="1" d="M536 1408h232v-1408h-256v1106h-10l-119 -87l-127 185z" />
<glyph unicode="2" d="M256 1393q159 31 288 31q96 0 168.5 -29t114 -79t61.5 -110t20 -128q0 -66 -13.5 -113.5t-42.5 -101.5l-304 -623h368v-240h-660v209l354 710q42 78 42 159q0 106 -108 106q-121 0 -288 -31v240z" />
<glyph unicode="3" d="M672 429q0 124 -22.5 178.5t-77.5 54.5q-50 0 -98 -21l-149 166l285 361h-354v240h640v-230l-252 -295l7 -7q15 5 35 5q242 0 242 -454q0 -226 -92 -334.5t-276 -108.5q-122 0 -304 31v242q174 -33 304 -33q65 0 88.5 54t23.5 151z" />
<glyph unicode="4" d="M896 0h-256v388h-512v192l136 828h246l-131 -780h261v780h256v-780h128v-240h-128v-388z" />
<glyph unicode="5" d="M256 257q163 -33 284 -33q43 0 72 17t43 50t19.5 70t5.5 88q0 223 -118 223q-64 0 -99 -39l-207 54v721h640v-240h-384v-312h10q61 39 132 39q274 0 274 -448q0 -236 -91.5 -349.5t-276.5 -113.5q-122 0 -304 31v242z" />
<glyph unicode="6" d="M562 877q42 35 100 35q111 0 171 -81q95 -127 95 -383q0 -177 -32 -264q-33 -91 -109.5 -145.5t-184.5 -54.5q-121 0 -200 53.5t-114 146.5q-20 53 -26 110t-6 153q0 305 43 474q65 253 298 523l195 -161q-92 -107 -151 -199t-89 -203zM672 448q0 143 -33 194 q-19 30 -47 30t-47 -30q-33 -51 -33 -194t33 -194q19 -30 47 -30t47 30q33 51 33 194z" />
<glyph unicode="7" d="M206 1408h720v-210l-314 -1198h-259l308 1158v10h-455v240z" />
<glyph unicode="8" d="M576 1184q-38 0 -57 -44.5t-19 -114.5q0 -82 19 -136.5t57 -54.5t57 54.5t19 136.5q0 70 -19 114.5t-57 44.5zM576 1424q158 0 245 -107.5t87 -271.5q0 -228 -157 -322v-10q177 -96 177 -339q0 -170 -93 -280t-259 -110t-259 110t-93 280q0 243 177 339v10 q-157 94 -157 322q0 164 87 271.5t245 107.5zM576 594q-48 0 -72 -56t-24 -144q0 -76 24 -123t72 -47t72 47t24 123q0 88 -24 144t-72 56z" />
<glyph unicode="9" d="M896 961q0 -305 -43 -474q-65 -253 -298 -523l-195 161q92 107 151 199t89 203l-10 4q-42 -35 -100 -35q-111 0 -171 81q-95 127 -95 383q0 177 32 264q34 92 112 146t192 54t192 -54t112 -146q20 -53 26 -110t6 -153zM480 960q0 -143 33 -194q19 -30 47 -30t47 30 q33 51 33 194t-33 194q-19 30 -47 30t-47 -30q-33 -51 -33 -194z" />
<glyph unicode=":" d="M384 360h384v-360h-384v360zM384 1024h384v-360h-384v360z" />
<glyph unicode=";" d="M384 1024h384v-360h-384v360zM384 488h384v-376q0 -53 -2.5 -84.5t-21 -82.5t-54.5 -93q-49 -58 -128 -91t-178 -33v240q75 0 106 49q22 35 22 95v16h-128v360z" />
<glyph unicode="&#x3c;" d="M453 635l511 -476l-176 -176l-596 562v190l596 562l176 -176l-511 -476v-10z" />
<glyph unicode="=" d="M192 500h768v-240h-768v240zM192 1012h768v-240h-768v240z" />
<glyph unicode="&#x3e;" d="M188 1121l176 176l596 -562v-190l-596 -562l-176 176l511 476v10z" />
<glyph unicode="?" d="M576 330q76 0 124.5 -48t48.5 -125t-48.5 -125t-124.5 -48t-124.5 48t-48.5 125t48.5 125t124.5 48zM448 512q0 48 2 74t10.5 67.5t30 79.5t56.5 78q105 118 105 261q0 112 -148 112q-82 0 -226 -37v240q158 37 256 37q180 0 277 -88t97 -244q0 -115 -31.5 -196.5 t-105.5 -174.5q-67 -85 -67 -209h-256z" />
<glyph unicode="@" d="M768 856h-36q-40 0 -66 -44t-26 -125q0 -68 16 -113.5t44 -45.5q68 0 68 267v61zM1024 1016v-632h-256v33h-10q-33 -44 -82 -44q-69 0 -116.5 88.5t-47.5 223.5q0 146 67.5 233.5t154.5 87.5h34q0 90 -30.5 126t-110.5 36q-133 0 -188 -58t-55 -197v-418q0 -139 55 -197 t188 -58q139 0 320 21v-240q-179 -21 -320 -21q-255 0 -377 118.5t-122 376.5v418q0 257 122 376t377 119q202 0 299.5 -95.5t97.5 -296.5z" />
<glyph unicode="A" d="M721 512q-58 377 -140 679h-10q-81 -299 -140 -679h290zM378 1408h396q172 -538 273 -1408h-259q-12 138 -33 272h-358q-21 -134 -33 -272h-259q101 870 273 1408z" />
<glyph unicode="B" d="M492 828q75 0 98 6q54 13 86.5 56.5t32.5 107.5q0 63 -33 107t-86 56q-32 7 -98 7h-44v-340h44zM805 728q103 -30 160.5 -122.5t57.5 -221.5q0 -140 -73.5 -239.5t-190.5 -128.5q-64 -16 -213 -16h-354v1408h300q129 0 184 -13q123 -29 201 -127t78 -240 q0 -211 -150 -290v-10zM448 588v-348h99q90 0 120 8q50 13 80 57.5t30 108.5t-30 109t-80 57q-34 8 -120 8h-99z" />
<glyph unicode="C" d="M960 248v-240q-179 -24 -317 -24q-205 0 -330.5 102.5t-169.5 277.5q-31 122 -31 340t31 340q44 176 166 278t324 102q153 0 312 -18v-240q-200 18 -309 18q-205 0 -250 -230q-18 -94 -18 -250t18 -250q45 -230 257 -230q115 0 317 24z" />
<glyph unicode="D" d="M474 1408q322 0 469 -237q57 -90 77 -204t20 -263t-20 -263t-77 -204q-147 -237 -469 -237h-346v1408h346zM784 704q0 240 -57 336q-75 128 -232 128h-111v-928h111q157 0 232 128q57 96 57 336z" />
<glyph unicode="E" d="M192 1408h768v-240h-512v-340h384v-240h-384v-348h512v-240h-768v1408z" />
<glyph unicode="F" d="M192 1408h768v-240h-512v-348h384v-240h-384v-580h-256v1408z" />
<glyph unicode="G" d="M1024 21q-205 -37 -361 -37q-213 0 -343.5 102.5t-176.5 277.5q-31 122 -31 340t31 340q47 176 173 278t337 102q160 0 351 -21v-240q-214 21 -348 21q-225 0 -270 -230q-18 -94 -18 -250t18 -250q21 -108 89.5 -169t187.5 -61q33 0 105 4v300h-128v240h384v-747z" />
<glyph unicode="H" d="M192 1408h256v-588h256v588h256v-1408h-256v580h-256v-580h-256v1408z" />
<glyph unicode="I" d="M960 1408v-240h-256v-928h256v-240h-768v240h256v928h-256v240h768z" />
<glyph unicode="J" d="M704 1168h-384v240h640v-934q0 -49 -1.5 -78.5t-9 -78.5t-27.5 -93.5t-51 -84.5q-54 -69 -138.5 -110t-189.5 -41q-111 0 -213 44t-181 111l137 192q121 -107 257 -107q84 0 124 62q17 26 26 61.5t10 59t1 63.5v694z" />
<glyph unicode="K" d="M384 0h-256v1408h256v-550l296 550h289l-335 -590l428 -818h-287l-313 611l-78 -132v-479z" />
<glyph unicode="L" d="M192 0v1408h256v-1168h576v-240h-832z" />
<glyph unicode="M" d="M384 0h-256v1408h256l187 -438h11l186 438h256v-1408h-256v896h-10l-127 -256h-110l-127 260h-10v-900z" />
<glyph unicode="N" d="M448 0h-256v1408h255l247 -798h10v798h256v-1408h-256l-246 798h-10v-798z" />
<glyph unicode="O" d="M368 704q0 -176 15 -258q18 -97 66.5 -159.5t126.5 -62.5t126.5 62.5t66.5 159.5q15 83 15 258q0 176 -15 258q-18 97 -66.5 159.5t-126.5 62.5t-126.5 -62.5t-66.5 -159.5q-15 -82 -15 -258zM112 704q0 238 28 349q40 162 151 266.5t285 104.5t285 -104.5t151 -266.5 q28 -111 28 -349t-28 -349q-40 -162 -151 -266.5t-285 -104.5t-285 104.5t-151 266.5q-28 111 -28 349z" />
<glyph unicode="P" d="M448 1168v-408h62q86 0 125 8q68 14 108.5 67t40.5 129t-40.5 129t-108.5 67q-39 8 -125 8h-62zM192 1408h316q148 0 211 -15q142 -34 231.5 -148.5t89.5 -280.5t-89.5 -280.5t-231.5 -148.5q-63 -15 -211 -15h-60v-520h-256v1408z" />
<glyph unicode="Q" d="M112 704q0 238 28 349q40 162 151 266.5t285 104.5t285 -104.5t151 -266.5q28 -111 28 -349q0 -237 -25 -349q-25 -105 -83.5 -189.5t-145.5 -131.5q19 -45 40 -55t72 -10q6 0 126 5v-240q-81 -6 -158 -6q-168 0 -265 124q-33 43 -68 134q-159 14 -256.5 116t-136.5 253 q-28 111 -28 349zM368 704q0 -176 15 -258q30 -164 129 -209v147h241q31 95 31 320q0 176 -15 258q-18 97 -66.5 159.5t-126.5 62.5t-126.5 -62.5t-66.5 -159.5q-15 -82 -15 -258z" />
<glyph unicode="R" d="M448 1168v-408h62q86 0 125 8q67 14 108 67t41 129t-41 129t-108 67q-40 8 -125 8h-62zM192 1408h316q148 0 211 -15q142 -34 231.5 -148.5t89.5 -280.5q0 -125 -52.5 -222.5t-142.5 -154.5l220 -587h-272l-186 521q-30 -1 -99 -1h-60v-520h-256v1408z" />
<glyph unicode="S" d="M556 -16q-164 0 -370 32v244q241 -36 370 -36q178 0 178 190q0 53 -25.5 100.5t-71.5 65.5q-29 11 -80 18t-104.5 20.5t-102.5 42.5q-188 112 -188 354q0 173 110.5 291t283.5 118q135 0 370 -25v-241q-243 26 -370 26q-38 0 -66.5 -17t-43.5 -44t-21.5 -55t-6.5 -55 q0 -118 80 -154q26 -12 118.5 -26.5t149.5 -44.5q80 -41 132 -106t72 -131t20 -137q0 -194 -120 -312t-314 -118z" />
<glyph unicode="T" d="M1024 1408v-240h-320v-1168h-256v1168h-320v240h896z" />
<glyph unicode="U" d="M128 1408h256v-896q0 -94 7 -128q15 -72 64.5 -116t120.5 -44t120.5 44t64.5 116q7 34 7 128v896h256v-896q0 -141 -16 -209q-34 -141 -151.5 -230t-280.5 -89t-280.5 89t-151.5 230q-16 68 -16 209v896z" />
<glyph unicode="V" d="M581 217q125 460 207 1191h259q-101 -870 -273 -1408h-396q-172 538 -273 1408h259q83 -735 207 -1191h10z" />
<glyph unicode="W" d="M484 640h184l67 -329h10q34 442 34 1097h254q0 -700 -79 -1408h-284l-89 388h-10l-89 -388h-284q-79 708 -79 1408h254q0 -655 34 -1097h10z" />
<glyph unicode="X" d="M571 944h10l183 464h267l-301 -687v-10l333 -711h-268l-214 498h-10l-214 -498h-268l333 711v10l-301 687h267z" />
<glyph unicode="Y" d="M581 851q148 340 200 557h271q-78 -239 -160 -432.5t-188 -359.5v-616h-256v616q-106 166 -188 359.5t-160 432.5h271q8 -37 19.5 -77t28 -87t28 -79.5t33.5 -88t30.5 -77t33 -81t27.5 -67.5h10z" />
<glyph unicode="Z" d="M148 1168v240h856v-210l-581 -948v-10h601v-240h-896v212l581 946v10h-561z" />
<glyph unicode="[" d="M256 1536h640v-240h-384v-1184h384v-240h-640v1664z" />
<glyph unicode="\" d="M793 -197l-671 1716l237 86l671 -1716z" />
<glyph unicode="]" d="M256 1536h640v-1664h-640v240h384v1184h-384v240z" />
<glyph unicode="^" d="M201 896q84 307 295 512h160q211 -205 295 -512h-265q-44 148 -110 259q-66 -111 -110 -259h-265z" />
<glyph unicode="_" d="M128 0h896v-240h-896v240z" />
<glyph unicode="`" d="M791 1024h-256l-166 384h266z" />
<glyph unicode="a" d="M640 421h-68q-49 0 -70.5 -28.5t-21.5 -89.5q0 -34 16 -56.5t46 -22.5q34 0 55.5 17t30 48.5t10.5 53.5t2 55v23zM608 1040q86 0 151 -26.5t107 -100.5q30 -53 30 -164v-749h-256v53h-10q-56 -69 -142 -69q-106 0 -185 91t-79 226q0 147 88 242q32 34 68.5 55.5t75 29.5 t62 10t56.5 2h66v104q0 20 -17 37.5t-44 17.5q-92 0 -259 -19v241q165 19 288 19z" />
<glyph unicode="b" d="M687 1040q76 0 134.5 -62.5t85.5 -174.5q21 -90 21 -291t-21 -291q-27 -112 -85.5 -174.5t-134.5 -62.5q-116 0 -167 81h-8v-65h-256v1408h256v-449h8q51 81 167 81zM592 800q-26 0 -44 -30.5t-26 -76.5q-10 -54 -10 -181t10 -181q8 -46 26 -76.5t44 -30.5t44 30.5 t26 76.5q10 54 10 181t-10 181q-8 46 -26 76.5t-44 30.5z" />
<glyph unicode="c" d="M224 512q0 112 7.5 184t35.5 135q91 209 339 209q113 0 280 -18v-240q-169 18 -280 18q-43 0 -68 -23t-41 -70q-17 -52 -17 -195t17 -195q16 -47 41 -70t68 -23q117 0 290 26v-240q-172 -26 -290 -26q-248 0 -339 209q-28 63 -35.5 135t-7.5 184z" />
<glyph unicode="d" d="M465 1040q116 0 167 -81h8v449h256v-1408h-256v65h-8q-51 -81 -167 -81q-76 0 -134.5 62.5t-85.5 174.5q-21 90 -21 291t21 291q27 112 85.5 174.5t134.5 62.5zM560 800q-26 0 -44 -30.5t-26 -76.5q-10 -54 -10 -181t10 -181q8 -46 26 -76.5t44 -30.5t44 30.5t26 76.5 q10 54 10 181t-10 181q-8 46 -26 76.5t-44 30.5z" />
<glyph unicode="e" d="M576 1040q116 0 198 -56.5t117 -144.5q17 -43 25.5 -101t10 -102.5t1.5 -123.5v-120h-447q0 -82 15 -115q26 -53 100 -53q109 0 300 20v-239q-182 -21 -300 -21q-124 0 -209 58t-123 151q-26 63 -33 135t-7 184q0 115 6.5 189.5t30.5 137.5q33 89 115.5 145t199.5 56z M576 800q-17 0 -31 -3.5t-23.5 -13t-16.5 -17t-11.5 -25t-7 -27.5t-4 -33.5t-1.5 -33t-1 -35.5h192q-2 103 -16 136q-20 52 -80 52z" />
<glyph unicode="f" d="M704 0h-256v656h-256v240h256v233q0 36 2.5 60.5t17.5 65.5t45 74q40 45 110.5 70t159.5 25q85 0 177 -6v-240q-103 5 -158 5q-23 0 -37 -2.5t-30 -11t-23.5 -28.5t-7.5 -52v-193h256v-240h-256v-656z" />
<glyph unicode="g" d="M640 193h-10q-58 -81 -140 -81q-111 0 -171 81q-95 127 -95 383t95 383q60 81 171 81q82 0 140 -81h10v65h256v-864q0 -171 -61 -273q-45 -74 -128 -116.5t-201 -42.5q-116 0 -236 15v240q135 -15 236 -15q72 0 103 55t31 137v33zM480 576q0 -143 33 -194q19 -30 47 -30 t47 30q33 51 33 194t-33 194q-19 30 -47 30t-47 -30q-33 -51 -33 -194z" />
<glyph unicode="h" d="M671 1040q107 0 173 -107q24 -40 36.5 -92t14 -86.5t1.5 -97.5v-657h-256v657q0 81 -15 109q-19 34 -49 34t-49 -34q-15 -28 -15 -109v-657h-256v1408h256v-446h7q28 36 69 57t83 21z" />
<glyph unicode="i" d="M512 0v656h-246v240h502v-896h-256zM576 1401q78 0 127.5 -49.5t49.5 -127.5t-49.5 -127.5t-127.5 -49.5t-127.5 49.5t-49.5 127.5t49.5 127.5t127.5 49.5z" />
<glyph unicode="j" d="M576 1401q78 0 127.5 -49.5t49.5 -127.5t-49.5 -127.5t-127.5 -49.5t-127.5 49.5t-49.5 127.5t49.5 127.5t127.5 49.5zM512 160v496h-246v240h502v-736q0 -171 -61 -273q-95 -159 -299 -159q-116 0 -236 15v240q135 -15 236 -15q38 0 62.5 29.5t33 70t8.5 92.5z" />
<glyph unicode="k" d="M512 0h-256v1408h256v-711l167 327h276l-227 -443l274 -581h-276l-167 353l-47 -98v-255z" />
<glyph unicode="l" d="M896 -11q-127 -5 -184 -5q-146 0 -231 74q-34 30 -55.5 63t-29.5 70t-10 59t-2 58v1100h256v-1080q0 -54 28 -79t100 -25q68 0 128 5v-240z" />
<glyph unicode="m" d="M512 1040q74 0 113 -78q72 78 173 78q110 0 174 -86q24 -33 36 -73t14 -68.5t2 -82.5v-730h-256v730q0 42 -15 55q-17 15 -49 15t-49 -15q-15 -13 -15 -55v-730h-128v730q0 42 -15 55q-17 15 -49 15t-49 -15q-15 -13 -15 -55v-730h-256v1024h256v-35h6q51 51 122 51z" />
<glyph unicode="n" d="M671 1040q107 0 173 -107q24 -40 36.5 -92t14 -86.5t1.5 -97.5v-657h-256v657q0 81 -15 109q-19 34 -49 34t-49 -34q-15 -28 -15 -109v-657h-256v1024h256v-62h7q28 36 69 57t83 21z" />
<glyph unicode="o" d="M576 1040q93 0 166.5 -42.5t120.5 -117.5q39 -64 52 -151.5t13 -216.5t-13 -216.5t-52 -151.5q-47 -75 -120.5 -117.5t-166.5 -42.5t-166.5 42.5t-120.5 117.5q-39 64 -52 151.5t-13 216.5t13 216.5t52 151.5q47 75 120.5 117.5t166.5 42.5zM576 800q-51 0 -76 -69 q-20 -55 -20 -219t20 -219q25 -69 76 -69t76 69q20 55 20 219t-20 219q-25 69 -76 69z" />
<glyph unicode="p" d="M687 1040q76 0 134.5 -62.5t85.5 -174.5q21 -90 21 -291t-21 -291q-27 -112 -85.5 -174.5t-134.5 -62.5q-116 0 -167 81h-8v-449h-256v1408h256v-65h8q51 81 167 81zM592 800q-26 0 -44 -30.5t-26 -76.5q-10 -54 -10 -181t10 -181q8 -46 26 -76.5t44 -30.5t44 30.5 t26 76.5q10 54 10 181t-10 181q-8 46 -26 76.5t-44 30.5z" />
<glyph unicode="q" d="M465 1040q116 0 167 -81h8v65h256v-1408h-256v449h-8q-51 -81 -167 -81q-76 0 -134.5 62.5t-85.5 174.5q-21 90 -21 291t21 291q27 112 85.5 174.5t134.5 62.5zM560 800q-26 0 -44 -30.5t-26 -76.5q-10 -54 -10 -181t10 -181q8 -46 26 -76.5t44 -30.5t44 30.5t26 76.5 q10 54 10 181t-10 181q-8 46 -26 76.5t-44 30.5z" />
<glyph unicode="r" d="M716 800q-83 0 -133 -53q-25 -28 -40.5 -61.5t-21.5 -75t-7.5 -67t-1.5 -68.5v-475h-256v1024h256v-109h10q40 61 87.5 93t116.5 32q70 0 170 -13v-240q-106 13 -180 13z" />
<glyph unicode="s" d="M567 -16q-115 0 -311 22v240q187 -22 311 -22q56 0 80.5 30t24.5 62q0 33 -15 54.5t-40 26.5q-18 4 -63 9.5t-83.5 15t-75.5 28.5q-69 36 -115 106t-46 163q0 44 13 88.5t40.5 86.5t66.5 74.5t95.5 52t122.5 19.5q111 0 314 -21v-240q-205 21 -314 21q-42 0 -62 -26.5 t-20 -52.5q0 -41 19 -64.5t47 -27.5q13 -2 50.5 -6.5t58.5 -8.5t53.5 -13.5t60.5 -26t54 -41.5q95 -89 95 -215q0 -64 -23 -123t-66 -106.5t-113.5 -76t-158.5 -28.5z" />
<glyph unicode="t" d="M960 -1q-107 -15 -192 -15q-80 0 -145.5 29t-106.5 79q-32 38 -48 89t-18 85t-2 94v418h-256v246h256v256h256v-256h256v-246h-256v-408q0 -74 15.5 -110t58.5 -36q71 0 182 15v-240z" />
<glyph unicode="u" d="M481 -16q-107 0 -173 107q-24 40 -36.5 92t-14 86.5t-1.5 97.5v657h256v-657q0 -81 15 -109q19 -34 49 -34t49 34q15 28 15 109v657h256v-1024h-256v62h-7q-28 -36 -69 -57t-83 -21z" />
<glyph unicode="v" d="M432 1024q56 -457 139 -807h10q83 351 139 807h258q-77 -589 -204 -1024h-396q-127 435 -204 1024h258z" />
<glyph unicode="w" d="M668 640l84 -390h10q33 343 33 774h248q0 -511 -109 -1024h-274l-79 350h-10l-79 -350h-274q-109 513 -109 1024h248q0 -431 33 -774h10l84 390h184z" />
<glyph unicode="x" d="M571 784h10l103 240h287l-231 -483v-10l253 -531h-288l-124 288h-10l-124 -288h-288l253 531v10l-231 483h287z" />
<glyph unicode="y" d="M582 343q84 318 139 681h256q-43 -269 -85 -463t-118 -433q-21 -66 -35 -104.5t-36 -88.5t-48.5 -83.5t-58.5 -54.5q-39 -24 -68.5 -36.5t-98 -22.5t-173.5 -10v240q73 0 110.5 4.5t63.5 23t38 43t32 77.5q3 8 4 12h-99q-77 195 -129.5 409t-100.5 487h257 q50 -365 140 -681h10z" />
<glyph unicode="z" d="M276 784v240h600v-210l-335 -564v-10h355v-240h-640v212l335 562v10h-315z" />
<glyph unicode="{" d="M609 698q87 -33 123 -92t36 -170v-253q0 -48 32 -67.5t96 -19.5v-240q-179 0 -281.5 80t-102.5 247v253q0 81 -64.5 114t-191.5 33v240q127 0 191.5 33t64.5 114v253q0 167 102.5 247t281.5 80v-240q-64 0 -96 -19.5t-32 -67.5v-253q0 -111 -36 -170t-123 -92v-10z" />
<glyph unicode="|" d="M704 1536v-1792h-256v1792h256z" />
<glyph unicode="}" d="M543 708q-87 33 -123 92t-36 170v253q0 48 -32 67.5t-96 19.5v240q179 0 281.5 -80t102.5 -247v-253q0 -81 64.5 -114t191.5 -33v-240q-127 0 -191.5 -33t-64.5 -114v-253q0 -167 -102.5 -247t-281.5 -80v240q64 0 96 19.5t32 67.5v253q0 111 36 170t123 92v10z" />
<glyph unicode="~" d="M384 512h-256q0 71 6.5 125t25.5 105.5t51 84.5t86 53t128 20q54 0 98.5 -24t69 -52t55 -52t59.5 -24q40 0 50.5 33t10.5 115h256q0 -71 -6.5 -125t-25.5 -105.5t-51 -84.5t-86 -53t-128 -20q-54 0 -98.5 24t-69 52t-55 52t-59.5 24q-40 0 -50.5 -33t-10.5 -115z" />
<glyph unicode="&#xa0;" />
<glyph unicode="&#xa1;" d="M576 822q-76 0 -124.5 48t-48.5 125t48.5 125t124.5 48t124.5 -48t48.5 -125t-48.5 -125t-124.5 -48zM452 640h248l18 -896h-284z" />
<glyph unicode="&#xa2;" d="M448 1280h256v-242q28 -1 182 -16v-240q-169 18 -280 18q-43 0 -68 -23t-41 -70q-17 -52 -17 -195t17 -195q16 -47 41 -70t68 -23q117 0 290 26v-240q-124 -19 -192 -23v-243h-256v268q-122 48 -181 181q-28 63 -35.5 135t-7.5 184t7.5 184t35.5 135q59 133 181 181v268z " />
<glyph unicode="&#xa3;" d="M256 240v344h-128v240h128v72q0 112 7 184t33 135q38 93 120 151t202 58q95 0 248 -15v-240q-148 15 -238 15q-33 0 -53 -9t-35 -40q-28 -56 -28 -239v-72h256v-240h-256v-344h384v-240h-768v240h128z" />
<glyph unicode="&#xa4;" d="M576 728q-67 0 -105.5 -38t-38.5 -114t38.5 -114t105.5 -38t105.5 38t38.5 114t-38.5 114t-105.5 38zM123 848l181 181l97 -97q81 36 175 36t175 -36l97 97l181 -181l-94 -94q41 -84 41 -178t-41 -178l94 -94l-181 -181l-97 97q-81 -36 -175 -36t-175 36l-97 -97 l-181 181l94 94q-41 84 -41 178t41 178z" />
<glyph unicode="&#xa5;" d="M581 921q149 300 200 487h271q-113 -321 -234 -538h142v-230h-256v-154h256v-230h-256v-256h-256v256h-256v230h256v154h-256v230h142q-121 217 -234 538h271q7 -29 18 -62t21 -60.5t26.5 -66.5t26 -62t29 -66t27 -58.5t28 -60t24.5 -51.5h10z" />
<glyph unicode="&#xa6;" d="M704 384v-640h-256v640h256zM704 1536v-640h-256v640h256z" />
<glyph unicode="&#xa7;" d="M584 428q36 0 59 26.5t30.5 58t7.5 65.5q0 72 -31.5 107t-84.5 35q-27 0 -46.5 -14.5t-29 -38.5t-14 -47.5t-4.5 -48.5q0 -73 32.5 -108t80.5 -35zM383 289q-77 41 -122.5 115t-45.5 167q0 82 43 154.5t124 117.5q-70 44 -109.5 110.5t-39.5 147.5q0 62 23 118.5 t66 102.5t113.5 73t158.5 27q105 0 262 -28v-243q-155 31 -262 31q-57 0 -81 -34t-24 -77q0 -68 84 -115q44 -25 101.5 -51t96.5 -46q74 -39 120 -112.5t46 -168.5q0 -82 -43 -155t-124 -117q68 -42 108.5 -109t40.5 -150q0 -62 -23 -118t-66 -101.5t-113.5 -72.5 t-158.5 -27q-116 0 -302 39v243q181 -42 302 -42q57 0 81 30.5t24 68.5q0 89 -100 136q-23 11 -57.5 25.5t-61.5 27.5t-61 33z" />
<glyph unicode="&#xa8;" d="M820 1424q63 0 112.5 -49.5t49.5 -112.5t-49.5 -112.5t-112.5 -49.5t-112.5 49.5t-49.5 112.5t49.5 112.5t112.5 49.5zM332 1424q63 0 112.5 -49.5t49.5 -112.5t-49.5 -112.5t-112.5 -49.5t-112.5 49.5t-49.5 112.5t49.5 112.5t112.5 49.5z" />
<glyph unicode="&#xa9;" d="M748 390q-84 -16 -153 -16q-127 0 -185 62q-27 29 -40.5 77t-15.5 85t-2 110q0 145 23 204q48 122 221 122q68 0 152 -19v-180q-72 19 -134 19q-31 0 -47 -9t-22 -34q-5 -21 -5 -103q0 -115 8 -133q6 -14 22 -17.5t45 -3.5q62 0 133 16v-180zM576 1153q-105 0 -175.5 -56 t-102.5 -150q-33 -95 -33 -243t33 -243q32 -94 102.5 -150t175.5 -56t175.5 56t102.5 150q33 95 33 243t-33 243q-32 94 -102.5 150t-175.5 56zM576 1295q156 0 264.5 -79.5t155.5 -209.5q44 -120 44 -302t-44 -302q-47 -130 -155.5 -209.5t-264.5 -79.5t-264.5 79.5 t-155.5 209.5q-44 120 -44 302t44 302q47 130 155.5 209.5t264.5 79.5z" />
<glyph unicode="&#xaa;" d="M640 1046v46h-56q-84 0 -84 -75q0 -27 17.5 -46t47.5 -19q43 0 59 25t16 69zM630 835q-37 -42 -74 -62.5t-89 -20.5q-94 0 -158.5 77t-64.5 183q0 84 44 150t113 92q48 18 123 18h116q0 36 -12 49q-20 21 -123 21q-34 0 -224 -13v211q178 12 224 12q302 0 372 -154 q19 -42 19 -108v-522h-256v67h-10z" />
<glyph unicode="&#xab;" d="M771 585v-10l270 -355l-208 -137l-321 429v136l321 429l208 -137zM323 585v-10l270 -355l-208 -137l-321 429v136l321 429l208 -137z" />
<glyph unicode="&#xac;" d="M1024 764v-500h-256v260h-640v240h896z" />
<glyph unicode="&#xad;" d="M128 760h896v-240h-896v240z" />
<glyph unicode="&#xae;" d="M626 822q0 28 -8.5 40t-32.5 12h-43v-104h43q24 0 32.5 12t8.5 40zM784 822q0 -109 -69 -161l94 -277h-165l-66 236h-36v-236h-158v640h211q89 0 139 -54t50 -148zM576 1153q-105 0 -175.5 -56t-102.5 -150q-33 -95 -33 -243t33 -243q32 -94 102.5 -150t175.5 -56 t175.5 56t102.5 150q33 95 33 243t-33 243q-32 94 -102.5 150t-175.5 56zM576 1295q156 0 264.5 -79.5t155.5 -209.5q44 -120 44 -302t-44 -302q-47 -130 -155.5 -209.5t-264.5 -79.5t-264.5 79.5t-155.5 209.5q-44 120 -44 302t44 302q47 130 155.5 209.5t264.5 79.5z" />
<glyph unicode="&#xaf;" d="M256 1408h640v-240h-640v240z" />
<glyph unicode="&#xb0;" d="M576 1538q113 0 185.5 -74t72.5 -184t-72.5 -184t-185.5 -74t-185.5 74t-72.5 184t72.5 184t185.5 74zM576 1378q-40 0 -65 -25.5t-25 -72.5t25 -72.5t65 -25.5t65 25.5t25 72.5t-25 72.5t-65 25.5z" />
<glyph unicode="&#xb1;" d="M704 952h320v-240h-320v-200h-256v200h-320v240h320v200h256v-200zM128 384h896v-240h-896v240z" />
<glyph unicode="&#xb2;" d="M256 1525q131 27 243 27q211 0 310 -72t99 -193q0 -38 -12 -68.5t-37 -54.5t-53 -41.5t-72 -33.5t-81 -26.5t-91 -23.5q-41 -9 -54 -51v-10h388v-210h-646v190q0 125 61 184.5t179 78.5q41 7 59 10.5t47.5 11.5t42.5 19.5t13 26.5q0 53 -153 53q-108 0 -243 -27v210z" />
<glyph unicode="&#xb3;" d="M754 1150q78 -28 116 -72t38 -95q0 -107 -115.5 -169t-294.5 -62q-103 0 -242 15v192q156 -15 242 -15q154 0 154 54q0 34 -50.5 46t-139.5 12h-78v192h78q181 0 181 59q0 53 -147 53q-67 0 -230 -17v192q132 17 230 17q184 0 293.5 -63t109.5 -167q0 -107 -145 -162v-10 z" />
<glyph unicode="&#xb4;" d="M435 1024l156 384h266l-166 -384h-256z" />
<glyph unicode="&#xb5;" d="M576 -16q-32 0 -54 48h-10v-416h-256v1408h256v-657q0 -70 14 -106.5t50 -36.5t50 37t14 106v657h256v-1024h-256v32h-10q-22 -48 -54 -48z" />
<glyph unicode="&#xb6;" d="M640 1288v-1288h-128v655q-121 31 -196.5 129.5t-75.5 239.5q0 143 78 242.5t201 128.5q55 13 184 13h193v-1408h-128v1288h-128z" />
<glyph unicode="&#xb7;" d="M512 898q86 0 140 -54t54 -140t-54 -140t-140 -54t-140 54t-54 140t54 140t140 54z" />
<glyph unicode="&#xb8;" d="M640 23q0 -41 -1.5 -65t-14 -63.5t-36.5 -71.5q-71 -95 -194 -95q-53 0 -138 10v180q73 -10 118 -10q47 0 64 32q14 27 14 83h188z" />
<glyph unicode="&#xb9;" d="M532 1536h236v-768h-256v490h-10l-246 -132v254z" />
<glyph unicode="&#xba;" d="M512 1552q55 0 101 -11t79 -27.5t59 -43t42.5 -51t28.5 -58.5t17.5 -58.5t8.5 -58.5t3.5 -50.5t0.5 -41.5t-0.5 -41.5t-3.5 -50.5t-8.5 -58.5t-17.5 -58.5t-28.5 -58.5t-42.5 -51t-59 -43t-79 -27.5t-101 -11t-101 11t-79 27.5t-59 43t-42.5 51t-28.5 58.5t-17.5 58.5 t-8.5 58.5t-3.5 50.5t-0.5 41.5t0.5 41.5t3.5 50.5t8.5 58.5t17.5 58.5t28.5 58.5t42.5 51t59 43t79 27.5t101 11zM428 1152q0 -38 2.5 -64t10 -55.5t25.5 -45t46 -15.5t46 15.5t25.5 45t10 55.5t2.5 64t-2.5 64t-10 55.5t-25.5 45t-46 15.5t-46 -15.5t-25.5 -45t-10 -55.5 t-2.5 -64z" />
<glyph unicode="&#xbb;" d="M381 585l-270 355l208 137l321 -429v-136l-321 -429l-208 137l270 355v10zM829 585l-270 355l208 137l321 -429v-136l-321 -429l-208 137l270 355v10z" />
<glyph unicode="&#xbc;" d="M1024 -128h-256v196h-384v192l78 380h231l-58 -332h133v332h256v-768zM404 1536h236v-768h-256v490h-10l-246 -132v254z" />
<glyph unicode="&#xbd;" d="M404 1536h236v-768h-256v490h-10l-246 -132v254zM512 629q131 27 243 27q211 0 310 -72t99 -193q0 -38 -12 -68.5t-37 -54.5t-53 -41.5t-72 -33.5t-81 -26.5t-91 -23.5q-41 -9 -54 -51v-10h388v-210h-646v190q0 126 61.5 187t178.5 76q41 7 59 10.5t47.5 11.5t42.5 19.5 t13 26.5q0 53 -153 53q-108 0 -243 -27v210z" />
<glyph unicode="&#xbe;" d="M626 1150q78 -28 116 -72t38 -95q0 -107 -115.5 -169t-294.5 -62q-103 0 -242 15v192q156 -15 242 -15q154 0 154 54q0 34 -50.5 46t-139.5 12h-78v192h78q181 0 181 59q0 53 -147 53q-67 0 -230 -17v192q132 17 230 17q184 0 293.5 -63t109.5 -167q0 -107 -145 -162v-10 zM1024 -128h-256v196h-384v192l78 380h231l-58 -332h133v332h256v-768z" />
<glyph unicode="&#xbf;" d="M576 822q-76 0 -124.5 48t-48.5 125t48.5 125t124.5 48t124.5 -48t48.5 -125t-48.5 -125t-124.5 -48zM704 640q0 -48 -2 -74t-10.5 -67.5t-30 -79.5t-56.5 -78q-105 -118 -105 -261q0 -112 148 -112q82 0 226 37v-240q-158 -37 -256 -37q-180 0 -277 88t-97 244 q0 115 31.5 196.5t105.5 174.5q67 85 67 209h256z" />
<glyph unicode="&#xc0;" d="M704 1536h-218l-190 256h266zM721 512q-58 377 -140 679h-10q-81 -299 -140 -679h290zM378 1408h396q172 -538 273 -1408h-259q-12 138 -33 272h-358q-21 -134 -33 -272h-259q101 870 273 1408z" />
<glyph unicode="&#xc1;" d="M448 1536l142 256h266l-190 -256h-218zM721 512q-58 377 -140 679h-10q-81 -299 -140 -679h290zM378 1408h396q172 -538 273 -1408h-259q-12 138 -33 272h-358q-21 -134 -33 -272h-259q101 870 273 1408z" />
<glyph unicode="&#xc2;" d="M427 1792h298l227 -256h-248l-128 114l-128 -114h-248zM721 512q-58 377 -140 679h-10q-81 -299 -140 -679h290zM378 1408h396q172 -538 273 -1408h-259q-12 138 -33 272h-358q-21 -134 -33 -272h-259q101 870 273 1408z" />
<glyph unicode="&#xc3;" d="M498 1598q-43 0 -47 -63l-198 6q3 104 53.5 175.5t141.5 71.5q50 0 88.5 -14.5t66 -29t51.5 -14.5q43 0 47 63l198 -6q-2 -103 -53 -175t-142 -72q-50 0 -88.5 14.5t-66 29t-51.5 14.5zM721 512q-58 377 -140 679h-10q-81 -299 -140 -679h290zM378 1408h396 q172 -538 273 -1408h-259q-12 138 -33 272h-358q-21 -134 -33 -272h-259q101 870 273 1408z" />
<glyph unicode="&#xc4;" d="M800 1806q63 0 102.5 -39.5t39.5 -102.5t-39.5 -102.5t-102.5 -39.5t-102.5 39.5t-39.5 102.5t39.5 102.5t102.5 39.5zM352 1806q63 0 102.5 -39.5t39.5 -102.5t-39.5 -102.5t-102.5 -39.5t-102.5 39.5t-39.5 102.5t39.5 102.5t102.5 39.5zM721 512q-58 377 -140 679h-10 q-81 -299 -140 -679h290zM378 1408h396q172 -538 273 -1408h-259q-12 138 -33 272h-358q-21 -134 -33 -272h-259q101 870 273 1408z" />
<glyph unicode="&#xc5;" d="M576 1604q-40 0 -65 -25.5t-25 -72.5t25 -72.5t65 -25.5t65 25.5t25 72.5t-25 72.5t-65 25.5zM576 1764q113 0 185.5 -74t72.5 -184q0 -83 -44 -149q162 -530 257 -1357h-259q-12 138 -33 272h-358q-21 -134 -33 -272h-259q95 827 257 1357q-44 66 -44 149 q0 110 72.5 184t185.5 74zM721 512q-58 377 -140 679h-10q-81 -299 -140 -679h290z" />
<glyph unicode="&#xc6;" d="M576 268h-209q-8 -154 -8 -268h-256q0 755 254 1408h667v-240h-192v-344h192v-240h-192v-344h192v-240h-448v268zM576 508v660h-66q-88 -323 -123 -660h189z" />
<glyph unicode="&#xc7;" d="M636 1184q-50 0 -90 -14t-67.5 -37.5t-48 -60t-32.5 -75.5t-19 -90.5t-9 -97.5t-2 -105q0 -156 18 -250q45 -230 257 -230q109 0 317 33v-240q-108 -19 -192 -27q-2 -101 -52 -167q-71 -95 -194 -95q-53 0 -138 10v180q73 -10 118 -10q38 0 55 20t21 59q-176 16 -285 116 t-150 261q-31 122 -31 340t31 340q44 176 166 278t324 102q144 0 297 -25v-240q-198 25 -294 25z" />
<glyph unicode="&#xc8;" d="M704 1536h-218l-190 256h266zM192 1408h768v-240h-512v-340h384v-240h-384v-348h512v-240h-768v1408z" />
<glyph unicode="&#xc9;" d="M448 1536l142 256h266l-190 -256h-218zM192 1408h768v-240h-512v-340h384v-240h-384v-348h512v-240h-768v1408z" />
<glyph unicode="&#xca;" d="M427 1792h298l227 -256h-248l-128 114l-128 -114h-248zM192 1408h768v-240h-512v-340h384v-240h-384v-348h512v-240h-768v1408z" />
<glyph unicode="&#xcb;" d="M800 1806q63 0 102.5 -39.5t39.5 -102.5t-39.5 -102.5t-102.5 -39.5t-102.5 39.5t-39.5 102.5t39.5 102.5t102.5 39.5zM352 1806q63 0 102.5 -39.5t39.5 -102.5t-39.5 -102.5t-102.5 -39.5t-102.5 39.5t-39.5 102.5t39.5 102.5t102.5 39.5zM192 1408h768v-240h-512v-340 h384v-240h-384v-348h512v-240h-768v1408z" />
<glyph unicode="&#xcc;" d="M704 1536h-218l-190 256h266zM960 1408v-240h-256v-928h256v-240h-768v240h256v928h-256v240h768z" />
<glyph unicode="&#xcd;" d="M448 1536l142 256h266l-190 -256h-218zM960 1408v-240h-256v-928h256v-240h-768v240h256v928h-256v240h768z" />
<glyph unicode="&#xce;" d="M427 1792h298l227 -256h-248l-128 114l-128 -114h-248zM960 1408v-240h-256v-928h256v-240h-768v240h256v928h-256v240h768z" />
<glyph unicode="&#xcf;" d="M800 1806q63 0 102.5 -39.5t39.5 -102.5t-39.5 -102.5t-102.5 -39.5t-102.5 39.5t-39.5 102.5t39.5 102.5t102.5 39.5zM352 1806q63 0 102.5 -39.5t39.5 -102.5t-39.5 -102.5t-102.5 -39.5t-102.5 39.5t-39.5 102.5t39.5 102.5t102.5 39.5zM960 1408v-240h-256v-928h256 v-240h-768v240h256v928h-256v240h768z" />
<glyph unicode="&#xd0;" d="M784 704q0 238 -57 336q-75 128 -232 128h-111v-344h192v-240h-192v-344h111q157 0 232 128q57 96 57 336zM474 1408q322 0 469 -237q57 -90 77 -204t20 -263t-20 -263t-77 -204q-147 -237 -469 -237h-346v1408h346z" />
<glyph unicode="&#xd1;" d="M498 1598q-43 0 -47 -63l-198 6q3 104 53.5 175.5t141.5 71.5q50 0 88.5 -14.5t66 -29t51.5 -14.5q43 0 47 63l198 -6q-2 -103 -53 -175t-142 -72q-50 0 -88.5 14.5t-66 29t-51.5 14.5zM448 0h-256v1408h255l247 -798h10v798h256v-1408h-256l-246 798h-10v-798z" />
<glyph unicode="&#xd2;" d="M704 1536h-218l-190 256h266zM368 704q0 -176 15 -258q18 -97 66.5 -159.5t126.5 -62.5t126.5 62.5t66.5 159.5q15 83 15 258q0 176 -15 258q-18 97 -66.5 159.5t-126.5 62.5t-126.5 -62.5t-66.5 -159.5q-15 -82 -15 -258zM112 704q0 238 28 349q40 162 151 266.5 t285 104.5t285 -104.5t151 -266.5q28 -111 28 -349t-28 -349q-40 -162 -151 -266.5t-285 -104.5t-285 104.5t-151 266.5q-28 111 -28 349z" />
<glyph unicode="&#xd3;" d="M448 1536l142 256h266l-190 -256h-218zM368 704q0 -176 15 -258q18 -97 66.5 -159.5t126.5 -62.5t126.5 62.5t66.5 159.5q15 83 15 258q0 176 -15 258q-18 97 -66.5 159.5t-126.5 62.5t-126.5 -62.5t-66.5 -159.5q-15 -82 -15 -258zM112 704q0 238 28 349 q40 162 151 266.5t285 104.5t285 -104.5t151 -266.5q28 -111 28 -349t-28 -349q-40 -162 -151 -266.5t-285 -104.5t-285 104.5t-151 266.5q-28 111 -28 349z" />
<glyph unicode="&#xd4;" d="M427 1792h298l227 -256h-248l-128 114l-128 -114h-248zM368 704q0 -176 15 -258q18 -97 66.5 -159.5t126.5 -62.5t126.5 62.5t66.5 159.5q15 83 15 258q0 176 -15 258q-18 97 -66.5 159.5t-126.5 62.5t-126.5 -62.5t-66.5 -159.5q-15 -82 -15 -258zM112 704q0 238 28 349 q40 162 151 266.5t285 104.5t285 -104.5t151 -266.5q28 -111 28 -349t-28 -349q-40 -162 -151 -266.5t-285 -104.5t-285 104.5t-151 266.5q-28 111 -28 349z" />
<glyph unicode="&#xd5;" d="M498 1598q-43 0 -47 -63l-198 6q3 104 53.5 175.5t141.5 71.5q50 0 88.5 -14.5t66 -29t51.5 -14.5q43 0 47 63l198 -6q-2 -103 -53 -175t-142 -72q-50 0 -88.5 14.5t-66 29t-51.5 14.5zM368 704q0 -176 15 -258q18 -97 66.5 -159.5t126.5 -62.5t126.5 62.5t66.5 159.5 q15 83 15 258q0 176 -15 258q-18 97 -66.5 159.5t-126.5 62.5t-126.5 -62.5t-66.5 -159.5q-15 -82 -15 -258zM112 704q0 238 28 349q40 162 151 266.5t285 104.5t285 -104.5t151 -266.5q28 -111 28 -349t-28 -349q-40 -162 -151 -266.5t-285 -104.5t-285 104.5t-151 266.5 q-28 111 -28 349z" />
<glyph unicode="&#xd6;" d="M800 1806q63 0 102.5 -39.5t39.5 -102.5t-39.5 -102.5t-102.5 -39.5t-102.5 39.5t-39.5 102.5t39.5 102.5t102.5 39.5zM352 1806q63 0 102.5 -39.5t39.5 -102.5t-39.5 -102.5t-102.5 -39.5t-102.5 39.5t-39.5 102.5t39.5 102.5t102.5 39.5zM368 704q0 -176 15 -258 q18 -97 66.5 -159.5t126.5 -62.5t126.5 62.5t66.5 159.5q15 83 15 258q0 176 -15 258q-18 97 -66.5 159.5t-126.5 62.5t-126.5 -62.5t-66.5 -159.5q-15 -82 -15 -258zM112 704q0 238 28 349q40 162 151 266.5t285 104.5t285 -104.5t151 -266.5q28 -111 28 -349t-28 -349 q-40 -162 -151 -266.5t-285 -104.5t-285 104.5t-151 266.5q-28 111 -28 349z" />
<glyph unicode="&#xd7;" d="M815 574l231 -229l-187 -164l-217 220l-61 85h-10l-59 -83l-219 -222l-188 164l234 231l83 59v10l-83 59l-233 231l187 164l217 -220l61 -85h10l61 85l217 220l187 -164l-231 -229l-85 -61v-10z" />
<glyph unicode="&#xd8;" d="M371 554l335 564q-53 66 -130 66q-78 0 -127 -62.5t-66 -159.5q-15 -82 -15 -258q0 -102 3 -150zM446 290q53 -66 130 -66q78 0 127 62.5t66 159.5q15 83 15 258q0 102 -3 150zM340 51l-70 -117l-224 132l121 204q-34 86 -44.5 185t-10.5 249q0 234 28 349 q40 162 151 266.5t285 104.5q134 0 236 -67l70 117l224 -132l-121 -204q34 -85 44.5 -182.5t10.5 -251.5q0 -234 -28 -349q-40 -162 -151 -266.5t-285 -104.5q-134 0 -236 67zM374 393l-6 -9h1z" />
<glyph unicode="&#xd9;" d="M704 1536h-218l-190 256h266zM128 1408h256v-896q0 -94 7 -128q15 -72 64.5 -116t120.5 -44t120.5 44t64.5 116q7 34 7 128v896h256v-896q0 -141 -16 -209q-34 -141 -151.5 -230t-280.5 -89t-280.5 89t-151.5 230q-16 68 -16 209v896z" />
<glyph unicode="&#xda;" d="M448 1536l142 256h266l-190 -256h-218zM128 1408h256v-896q0 -94 7 -128q15 -72 64.5 -116t120.5 -44t120.5 44t64.5 116q7 34 7 128v896h256v-896q0 -141 -16 -209q-34 -141 -151.5 -230t-280.5 -89t-280.5 89t-151.5 230q-16 68 -16 209v896z" />
<glyph unicode="&#xdb;" d="M427 1792h298l227 -256h-248l-128 114l-128 -114h-248zM128 1408h256v-896q0 -94 7 -128q15 -72 64.5 -116t120.5 -44t120.5 44t64.5 116q7 34 7 128v896h256v-896q0 -141 -16 -209q-34 -141 -151.5 -230t-280.5 -89t-280.5 89t-151.5 230q-16 68 -16 209v896z" />
<glyph unicode="&#xdc;" d="M800 1806q63 0 102.5 -39.5t39.5 -102.5t-39.5 -102.5t-102.5 -39.5t-102.5 39.5t-39.5 102.5t39.5 102.5t102.5 39.5zM352 1806q63 0 102.5 -39.5t39.5 -102.5t-39.5 -102.5t-102.5 -39.5t-102.5 39.5t-39.5 102.5t39.5 102.5t102.5 39.5zM128 1408h256v-896 q0 -94 7 -128q15 -72 64.5 -116t120.5 -44t120.5 44t64.5 116q7 34 7 128v896h256v-896q0 -141 -16 -209q-34 -141 -151.5 -230t-280.5 -89t-280.5 89t-151.5 230q-16 68 -16 209v896z" />
<glyph unicode="&#xdd;" d="M448 1536l142 256h266l-190 -256h-218zM581 851q148 340 200 557h271q-78 -239 -160 -432.5t-188 -359.5v-616h-256v616q-106 166 -188 359.5t-160 432.5h271q8 -37 19.5 -77t28 -87t28 -79.5t33.5 -88t30.5 -77t33 -81t27.5 -67.5h10z" />
<glyph unicode="&#xde;" d="M384 1152h124q148 0 211 -15q142 -34 231.5 -148.5t89.5 -280.5t-89.5 -281t-231.5 -148q-63 -15 -211 -15h-124v-264h-256v1408h256v-256zM384 912v-408h126q86 0 125 8q68 14 108.5 67t40.5 129q0 77 -41 129.5t-108 66.5q-39 8 -125 8h-126z" />
<glyph unicode="&#xdf;" d="M770 833q90 -38 124 -133t34 -262q0 -136 -25.5 -234.5t-86.5 -159t-154 -60.5q-44 0 -108 11l16 238q38 -4 52 -4q33 0 41.5 52t8.5 157q0 85 -9 142.5t-34.5 94.5t-66.5 37v240q54 0 54 128q0 104 -50 104q-31 0 -42.5 -26.5t-11.5 -79.5v-1078h-256v1078 q0 157 77.5 251.5t228.5 94.5q140 0 225 -92.5t85 -233.5q0 -92 -21.5 -156t-80.5 -99v-10z" />
<glyph unicode="&#xe0;" d="M704 1152h-218l-190 256h266zM640 421h-68q-49 0 -70.5 -28.5t-21.5 -89.5q0 -34 16 -56.5t46 -22.5q34 0 55.5 17t30 48.5t10.5 53.5t2 55v23zM608 1040q86 0 151 -26.5t107 -100.5q30 -53 30 -164v-749h-256v53h-10q-56 -69 -142 -69q-106 0 -185 91t-79 226 q0 147 88 242q32 34 68.5 55.5t75 29.5t62 10t56.5 2h66v104q0 20 -17 37.5t-44 17.5q-92 0 -259 -19v241q165 19 288 19z" />
<glyph unicode="&#xe1;" d="M448 1152l142 256h266l-190 -256h-218zM640 421h-68q-49 0 -70.5 -28.5t-21.5 -89.5q0 -34 16 -56.5t46 -22.5q34 0 55.5 17t30 48.5t10.5 53.5t2 55v23zM608 1040q86 0 151 -26.5t107 -100.5q30 -53 30 -164v-749h-256v53h-10q-56 -69 -142 -69q-106 0 -185 91t-79 226 q0 147 88 242q32 34 68.5 55.5t75 29.5t62 10t56.5 2h66v104q0 20 -17 37.5t-44 17.5q-92 0 -259 -19v241q165 19 288 19z" />
<glyph unicode="&#xe2;" d="M427 1408h298l227 -256h-248l-128 114l-128 -114h-248zM640 421h-68q-49 0 -70.5 -28.5t-21.5 -89.5q0 -34 16 -56.5t46 -22.5q34 0 55.5 17t30 48.5t10.5 53.5t2 55v23zM608 1040q86 0 151 -26.5t107 -100.5q30 -53 30 -164v-749h-256v53h-10q-56 -69 -142 -69 q-106 0 -185 91t-79 226q0 147 88 242q32 34 68.5 55.5t75 29.5t62 10t56.5 2h66v104q0 20 -17 37.5t-44 17.5q-92 0 -259 -19v241q165 19 288 19z" />
<glyph unicode="&#xe3;" d="M498 1214q-43 0 -47 -63l-198 6q3 104 53.5 175.5t141.5 71.5q50 0 88.5 -14.5t66 -29t51.5 -14.5q43 0 47 63l198 -6q-2 -103 -53 -175t-142 -72q-50 0 -88.5 14.5t-66 29t-51.5 14.5zM640 421h-68q-49 0 -70.5 -28.5t-21.5 -89.5q0 -34 16 -56.5t46 -22.5q34 0 55.5 17 t30 48.5t10.5 53.5t2 55v23zM608 1040q86 0 151 -26.5t107 -100.5q30 -53 30 -164v-749h-256v53h-10q-56 -69 -142 -69q-106 0 -185 91t-79 226q0 147 88 242q32 34 68.5 55.5t75 29.5t62 10t56.5 2h66v104q0 20 -17 37.5t-44 17.5q-92 0 -259 -19v241q165 19 288 19z" />
<glyph unicode="&#xe4;" d="M800 1422q63 0 102.5 -39.5t39.5 -102.5t-39.5 -102.5t-102.5 -39.5t-102.5 39.5t-39.5 102.5t39.5 102.5t102.5 39.5zM352 1422q63 0 102.5 -39.5t39.5 -102.5t-39.5 -102.5t-102.5 -39.5t-102.5 39.5t-39.5 102.5t39.5 102.5t102.5 39.5zM640 421h-68 q-49 0 -70.5 -28.5t-21.5 -89.5q0 -34 16 -56.5t46 -22.5q34 0 55.5 17t30 48.5t10.5 53.5t2 55v23zM608 1040q86 0 151 -26.5t107 -100.5q30 -53 30 -164v-749h-256v53h-10q-56 -69 -142 -69q-106 0 -185 91t-79 226q0 147 88 242q32 34 68.5 55.5t75 29.5t62 10t56.5 2h66 v104q0 20 -17 37.5t-44 17.5q-92 0 -259 -19v241q165 19 288 19z" />
<glyph unicode="&#xe5;" d="M576 1236q-40 0 -65 -25.5t-25 -72.5t25 -72.5t65 -25.5t65 25.5t25 72.5t-25 72.5t-65 25.5zM576 1396q113 0 185.5 -74t72.5 -184q0 -79 -41 -144q45 -30 73 -81q30 -53 30 -164v-749h-256v53h-10q-56 -69 -142 -69q-106 0 -185 91t-79 226q0 147 88 242 q32 34 68.5 55.5t75 29.5t62 10t56.5 2h66v104q0 20 -17 37.5t-44 17.5q-92 0 -259 -19v241q7 1 23 3q-25 53 -25 114q0 110 72.5 184t185.5 74zM640 421h-68q-49 0 -70.5 -28.5t-21.5 -89.5q0 -34 16 -56.5t46 -22.5q34 0 55.5 17t30 48.5t10.5 53.5t2 55v23z" />
<glyph unicode="&#xe6;" d="M284 309q0 -33 16.5 -59t47.5 -26q33 0 58 11t39.5 27.5t23 41t11 47t2.5 50.5v11h-105q-93 0 -93 -103zM568 90q-76 -106 -220 -106q-82 0 -140.5 47.5t-85 119.5t-26.5 158q0 103 41 185.5t116 116.5q46 21 117 21h112v76q0 51 -25 73.5t-105 22.5q-72 0 -224 -18v240 q150 18 224 18q40 0 68 -3t62 -11.5t62 -29.5t49 -53h10q66 93 187 93q96 0 158.5 -70t86.5 -168q19 -77 19 -225v-185h-384v-43q0 -28 4.5 -46.5t19.5 -38.5t49.5 -30t88.5 -10q43 0 192 12v-240q-151 -12 -195 -12q-175 0 -251 106h-10zM837 612q0 33 -0.5 49.5t-3 43 t-7.5 40t-13 28.5t-21.5 21t-31.5 6q-28 0 -46.5 -14.5t-27.5 -43.5t-12 -58t-3 -72h166z" />
<glyph unicode="&#xe7;" d="M224 512q0 112 7.5 184t35.5 135q91 209 339 209q113 0 280 -18v-240q-169 18 -280 18q-43 0 -68 -23t-41 -70q-17 -52 -17 -195t17 -195q16 -47 41 -70t68 -23q117 0 290 26v-240q-75 -12 -128 -17q-2 -103 -52 -170q-71 -95 -194 -95q-53 0 -138 10v180q73 -10 118 -10 q47 0 64 32q9 18 12 45q-226 12 -311 208q-28 63 -35.5 135t-7.5 184z" />
<glyph unicode="&#xe8;" d="M704 1152h-218l-190 256h266zM576 1040q116 0 198 -56.5t117 -144.5q17 -43 25.5 -101t10 -102.5t1.5 -123.5v-120h-447q0 -82 15 -115q26 -53 100 -53q109 0 300 20v-239q-182 -21 -300 -21q-124 0 -209 58t-123 151q-26 63 -33 135t-7 184q0 115 6.5 189.5t30.5 137.5 q33 89 115.5 145t199.5 56zM576 800q-17 0 -31 -3.5t-23.5 -13t-16.5 -17t-11.5 -25t-7 -27.5t-4 -33.5t-1.5 -33t-1 -35.5h192q-2 103 -16 136q-20 52 -80 52z" />
<glyph unicode="&#xe9;" d="M448 1152l142 256h266l-190 -256h-218zM576 1040q116 0 198 -56.5t117 -144.5q17 -43 25.5 -101t10 -102.5t1.5 -123.5v-120h-447q0 -82 15 -115q26 -53 100 -53q109 0 300 20v-239q-182 -21 -300 -21q-124 0 -209 58t-123 151q-26 63 -33 135t-7 184q0 115 6.5 189.5 t30.5 137.5q33 89 115.5 145t199.5 56zM576 800q-17 0 -31 -3.5t-23.5 -13t-16.5 -17t-11.5 -25t-7 -27.5t-4 -33.5t-1.5 -33t-1 -35.5h192q-2 103 -16 136q-20 52 -80 52z" />
<glyph unicode="&#xea;" d="M427 1408h298l227 -256h-248l-128 114l-128 -114h-248zM576 1040q116 0 198 -56.5t117 -144.5q17 -43 25.5 -101t10 -102.5t1.5 -123.5v-120h-447q0 -82 15 -115q26 -53 100 -53q109 0 300 20v-239q-182 -21 -300 -21q-124 0 -209 58t-123 151q-26 63 -33 135t-7 184 q0 115 6.5 189.5t30.5 137.5q33 89 115.5 145t199.5 56zM576 800q-17 0 -31 -3.5t-23.5 -13t-16.5 -17t-11.5 -25t-7 -27.5t-4 -33.5t-1.5 -33t-1 -35.5h192q-2 103 -16 136q-20 52 -80 52z" />
<glyph unicode="&#xeb;" d="M800 1422q63 0 102.5 -39.5t39.5 -102.5t-39.5 -102.5t-102.5 -39.5t-102.5 39.5t-39.5 102.5t39.5 102.5t102.5 39.5zM352 1422q63 0 102.5 -39.5t39.5 -102.5t-39.5 -102.5t-102.5 -39.5t-102.5 39.5t-39.5 102.5t39.5 102.5t102.5 39.5zM576 1040q116 0 198 -56.5 t117 -144.5q17 -43 25.5 -101t10 -102.5t1.5 -123.5v-120h-447q0 -82 15 -115q26 -53 100 -53q109 0 300 20v-239q-182 -21 -300 -21q-124 0 -209 58t-123 151q-26 63 -33 135t-7 184q0 115 6.5 189.5t30.5 137.5q33 89 115.5 145t199.5 56zM576 800q-17 0 -31 -3.5 t-23.5 -13t-16.5 -17t-11.5 -25t-7 -27.5t-4 -33.5t-1.5 -33t-1 -35.5h192q-2 103 -16 136q-20 52 -80 52z" />
<glyph unicode="&#xec;" d="M704 1152h-218l-190 256h266zM512 0v784h-256v240h512v-1024h-256z" />
<glyph unicode="&#xed;" d="M448 1152l142 256h266l-190 -256h-218zM512 0v784h-256v240h512v-1024h-256z" />
<glyph unicode="&#xee;" d="M427 1408h298l227 -256h-248l-128 114l-128 -114h-248zM512 0v784h-256v240h512v-1024h-256z" />
<glyph unicode="&#xef;" d="M800 1422q63 0 102.5 -39.5t39.5 -102.5t-39.5 -102.5t-102.5 -39.5t-102.5 39.5t-39.5 102.5t39.5 102.5t102.5 39.5zM352 1422q63 0 102.5 -39.5t39.5 -102.5t-39.5 -102.5t-102.5 -39.5t-102.5 39.5t-39.5 102.5t39.5 102.5t102.5 39.5zM512 0v784h-256v240h512v-1024 h-256z" />
<glyph unicode="&#xf0;" d="M576 652q-58 0 -76 -78q-10 -44 -10 -126q0 -86 10 -126q9 -36 29 -57t47 -21t47 21t29 57q10 40 10 126q0 88 -9 126q-8 36 -28 57t-49 21zM339 1283l93 182q99 -50 178 -114l122 127l108 -104l-124 -128q112 -135 162 -328.5t50 -469.5q0 -85 -6.5 -142t-27.5 -111 q-36 -91 -116.5 -151t-181.5 -60q-253 0 -338 211q-22 54 -28 110t-6 143q0 165 30 253q28 86 90.5 140.5t151.5 54.5q69 0 130 -46h10q-3 127 -74 235l-109 -113l-108 104l117 122q-53 46 -123 85z" />
<glyph unicode="&#xf1;" d="M498 1214q-43 0 -47 -63l-198 6q3 104 53.5 175.5t141.5 71.5q50 0 88.5 -14.5t66 -29t51.5 -14.5q43 0 47 63l198 -6q-2 -103 -53 -175t-142 -72q-50 0 -88.5 14.5t-66 29t-51.5 14.5zM671 1040q107 0 173 -107q24 -40 36.5 -92t14 -86.5t1.5 -97.5v-657h-256v657 q0 81 -15 109q-19 34 -49 34t-49 -34q-15 -28 -15 -109v-657h-256v1024h256v-62h7q28 36 69 57t83 21z" />
<glyph unicode="&#xf2;" d="M704 1152h-218l-190 256h266zM576 1040q93 0 166.5 -42.5t120.5 -117.5q39 -64 52 -151.5t13 -216.5t-13 -216.5t-52 -151.5q-47 -75 -120.5 -117.5t-166.5 -42.5t-166.5 42.5t-120.5 117.5q-39 64 -52 151.5t-13 216.5t13 216.5t52 151.5q47 75 120.5 117.5t166.5 42.5z M576 800q-51 0 -76 -69q-20 -55 -20 -219t20 -219q25 -69 76 -69t76 69q20 55 20 219t-20 219q-25 69 -76 69z" />
<glyph unicode="&#xf3;" d="M448 1152l142 256h266l-190 -256h-218zM576 1040q93 0 166.5 -42.5t120.5 -117.5q39 -64 52 -151.5t13 -216.5t-13 -216.5t-52 -151.5q-47 -75 -120.5 -117.5t-166.5 -42.5t-166.5 42.5t-120.5 117.5q-39 64 -52 151.5t-13 216.5t13 216.5t52 151.5q47 75 120.5 117.5 t166.5 42.5zM576 800q-51 0 -76 -69q-20 -55 -20 -219t20 -219q25 -69 76 -69t76 69q20 55 20 219t-20 219q-25 69 -76 69z" />
<glyph unicode="&#xf4;" d="M427 1408h298l227 -256h-248l-128 114l-128 -114h-248zM576 1040q93 0 166.5 -42.5t120.5 -117.5q39 -64 52 -151.5t13 -216.5t-13 -216.5t-52 -151.5q-47 -75 -120.5 -117.5t-166.5 -42.5t-166.5 42.5t-120.5 117.5q-39 64 -52 151.5t-13 216.5t13 216.5t52 151.5 q47 75 120.5 117.5t166.5 42.5zM576 800q-51 0 -76 -69q-20 -55 -20 -219t20 -219q25 -69 76 -69t76 69q20 55 20 219t-20 219q-25 69 -76 69z" />
<glyph unicode="&#xf5;" d="M498 1214q-43 0 -47 -63l-198 6q3 104 53.5 175.5t141.5 71.5q50 0 88.5 -14.5t66 -29t51.5 -14.5q43 0 47 63l198 -6q-2 -103 -53 -175t-142 -72q-50 0 -88.5 14.5t-66 29t-51.5 14.5zM576 1040q93 0 166.5 -42.5t120.5 -117.5q39 -64 52 -151.5t13 -216.5t-13 -216.5 t-52 -151.5q-47 -75 -120.5 -117.5t-166.5 -42.5t-166.5 42.5t-120.5 117.5q-39 64 -52 151.5t-13 216.5t13 216.5t52 151.5q47 75 120.5 117.5t166.5 42.5zM576 800q-51 0 -76 -69q-20 -55 -20 -219t20 -219q25 -69 76 -69t76 69q20 55 20 219t-20 219q-25 69 -76 69z" />
<glyph unicode="&#xf6;" d="M800 1422q63 0 102.5 -39.5t39.5 -102.5t-39.5 -102.5t-102.5 -39.5t-102.5 39.5t-39.5 102.5t39.5 102.5t102.5 39.5zM352 1422q63 0 102.5 -39.5t39.5 -102.5t-39.5 -102.5t-102.5 -39.5t-102.5 39.5t-39.5 102.5t39.5 102.5t102.5 39.5zM576 1040q93 0 166.5 -42.5 t120.5 -117.5q39 -64 52 -151.5t13 -216.5t-13 -216.5t-52 -151.5q-47 -75 -120.5 -117.5t-166.5 -42.5t-166.5 42.5t-120.5 117.5q-39 64 -52 151.5t-13 216.5t13 216.5t52 151.5q47 75 120.5 117.5t166.5 42.5zM576 800q-51 0 -76 -69q-20 -55 -20 -219t20 -219 q25 -69 76 -69t76 69q20 55 20 219t-20 219q-25 69 -76 69z" />
<glyph unicode="&#xf7;" d="M1024 760v-240h-896v240h896zM576 406q69 0 113 -44t44 -113t-44 -113t-113 -44t-113 44t-44 113t44 113t113 44zM576 1188q69 0 113 -44t44 -113t-44 -113t-113 -44t-113 44t-44 113t44 113t113 44z" />
<glyph unicode="&#xf8;" d="M496 306q10 -37 30.5 -59.5t49.5 -22.5q51 0 76 69q20 55 20 219v53zM656 718q-10 37 -30.5 59.5t-49.5 22.5q-51 0 -76 -69q-20 -55 -20 -219v-53zM389 39l-69 -102l-184 126l115 170q-27 93 -27 279q0 129 13 216.5t52 151.5q47 75 120.5 117.5t166.5 42.5 q105 0 187 -55l69 102l184 -126l-115 -170q27 -93 27 -279q0 -129 -13 -216.5t-52 -151.5q-47 -75 -120.5 -117.5t-166.5 -42.5q-105 0 -187 55z" />
<glyph unicode="&#xf9;" d="M704 1152h-218l-190 256h266zM481 -16q-107 0 -173 107q-24 40 -36.5 92t-14 86.5t-1.5 97.5v657h256v-657q0 -81 15 -109q19 -34 49 -34t49 34q15 28 15 109v657h256v-1024h-256v62h-7q-28 -36 -69 -57t-83 -21z" />
<glyph unicode="&#xfa;" d="M448 1152l142 256h266l-190 -256h-218zM481 -16q-107 0 -173 107q-24 40 -36.5 92t-14 86.5t-1.5 97.5v657h256v-657q0 -81 15 -109q19 -34 49 -34t49 34q15 28 15 109v657h256v-1024h-256v62h-7q-28 -36 -69 -57t-83 -21z" />
<glyph unicode="&#xfb;" d="M427 1408h298l227 -256h-248l-128 114l-128 -114h-248zM481 -16q-107 0 -173 107q-24 40 -36.5 92t-14 86.5t-1.5 97.5v657h256v-657q0 -81 15 -109q19 -34 49 -34t49 34q15 28 15 109v657h256v-1024h-256v62h-7q-28 -36 -69 -57t-83 -21z" />
<glyph unicode="&#xfc;" d="M800 1422q63 0 102.5 -39.5t39.5 -102.5t-39.5 -102.5t-102.5 -39.5t-102.5 39.5t-39.5 102.5t39.5 102.5t102.5 39.5zM352 1422q63 0 102.5 -39.5t39.5 -102.5t-39.5 -102.5t-102.5 -39.5t-102.5 39.5t-39.5 102.5t39.5 102.5t102.5 39.5zM481 -16q-107 0 -173 107 q-24 40 -36.5 92t-14 86.5t-1.5 97.5v657h256v-657q0 -81 15 -109q19 -34 49 -34t49 34q15 28 15 109v657h256v-1024h-256v62h-7q-28 -36 -69 -57t-83 -21z" />
<glyph unicode="&#xfd;" d="M448 1152l142 256h266l-190 -256h-218zM582 343q84 318 139 681h256q-43 -269 -85 -463t-118 -433q-21 -66 -35 -104.5t-36 -88.5t-48.5 -83.5t-58.5 -54.5q-39 -24 -68.5 -36.5t-98 -22.5t-173.5 -10v240q73 0 110.5 4.5t63.5 23t38 43t32 77.5q3 8 4 12h-99 q-77 195 -129.5 409t-100.5 487h257q50 -365 140 -681h10z" />
<glyph unicode="&#xfe;" d="M687 1040q76 0 134.5 -62.5t85.5 -174.5q21 -90 21 -291t-21 -291q-27 -112 -85.5 -174.5t-134.5 -62.5q-116 0 -167 81h-8v-449h-256v1792h256v-449h8q51 81 167 81zM592 800q-26 0 -44 -30.5t-26 -76.5q-10 -54 -10 -181t10 -181q8 -46 26 -76.5t44 -30.5t44 30.5 t26 76.5q10 54 10 181t-10 181q-8 46 -26 76.5t-44 30.5z" />
<glyph unicode="&#xff;" d="M800 1422q63 0 102.5 -39.5t39.5 -102.5t-39.5 -102.5t-102.5 -39.5t-102.5 39.5t-39.5 102.5t39.5 102.5t102.5 39.5zM352 1422q63 0 102.5 -39.5t39.5 -102.5t-39.5 -102.5t-102.5 -39.5t-102.5 39.5t-39.5 102.5t39.5 102.5t102.5 39.5zM582 343q84 318 139 681h256 q-43 -269 -85 -463t-118 -433q-21 -66 -35 -104.5t-36 -88.5t-48.5 -83.5t-58.5 -54.5q-39 -24 -68.5 -36.5t-98 -22.5t-173.5 -10v240q73 0 110.5 4.5t63.5 23t38 43t32 77.5q3 8 4 12h-99q-77 195 -129.5 409t-100.5 487h257q50 -365 140 -681h10z" />
<glyph unicode="&#x100;" d="M256 1740h640v-200h-640v200zM721 512q-58 377 -140 679h-10q-81 -299 -140 -679h290zM378 1408h396q172 -538 273 -1408h-259q-12 138 -33 272h-358q-21 -134 -33 -272h-259q101 870 273 1408z" />
<glyph unicode="&#x101;" d="M256 1356h640v-200h-640v200zM640 421h-68q-49 0 -70.5 -28.5t-21.5 -89.5q0 -34 16 -56.5t46 -22.5q34 0 55.5 17t30 48.5t10.5 53.5t2 55v23zM608 1040q86 0 151 -26.5t107 -100.5q30 -53 30 -164v-749h-256v53h-10q-56 -69 -142 -69q-106 0 -185 91t-79 226 q0 147 88 242q32 34 68.5 55.5t75 29.5t62 10t56.5 2h66v104q0 20 -17 37.5t-44 17.5q-92 0 -259 -19v241q165 19 288 19z" />
<glyph unicode="&#x102;" d="M728 1792h208q0 -123 -103.5 -197.5t-256.5 -74.5t-256.5 74.5t-103.5 197.5h208q0 -41 39 -66.5t113 -25.5t113 25.5t39 66.5zM721 512q-58 377 -140 679h-10q-81 -299 -140 -679h290zM378 1408h396q172 -538 273 -1408h-259q-12 138 -33 272h-358q-21 -134 -33 -272 h-259q101 870 273 1408z" />
<glyph unicode="&#x103;" d="M728 1408h208q0 -123 -103.5 -197.5t-256.5 -74.5t-256.5 74.5t-103.5 197.5h208q0 -41 39 -66.5t113 -25.5t113 25.5t39 66.5zM640 421h-68q-49 0 -70.5 -28.5t-21.5 -89.5q0 -34 16 -56.5t46 -22.5q34 0 55.5 17t30 48.5t10.5 53.5t2 55v23zM608 1040q86 0 151 -26.5 t107 -100.5q30 -53 30 -164v-749h-256v53h-10q-56 -69 -142 -69q-106 0 -185 91t-79 226q0 147 88 242q32 34 68.5 55.5t75 29.5t62 10t56.5 2h66v104q0 20 -17 37.5t-44 17.5q-92 0 -259 -19v241q165 19 288 19z" />
<glyph unicode="&#x104;" d="M378 1408h396q172 -538 273 -1408q-82 -33 -118.5 -64t-36.5 -74q0 -26 18.5 -39t42.5 -13q40 0 71 7v-158q-41 -9 -104 -9q-73 0 -136 46.5t-63 118.5q0 103 158 185h-91q-12 138 -33 272h-358q-21 -134 -33 -272h-259q101 870 273 1408zM721 512q-58 377 -140 679h-10 q-81 -299 -140 -679h290z" />
<glyph unicode="&#x105;" d="M608 1040q86 0 151 -26.5t107 -100.5q30 -53 30 -164v-749q-70 -32 -101 -63.5t-31 -74.5q0 -26 18.5 -39t42.5 -13q40 0 71 7v-158q-41 -9 -104 -9q-73 0 -136 46.5t-63 118.5q0 103 135 185h-88v53h-10q-56 -69 -142 -69q-106 0 -185 91t-79 226q0 147 88 242 q32 34 68.5 55.5t75 29.5t62 10t56.5 2h66v104q0 20 -17 37.5t-44 17.5q-92 0 -259 -19v241q165 19 288 19zM640 421h-68q-49 0 -70.5 -28.5t-21.5 -89.5q0 -34 16 -56.5t46 -22.5q34 0 55.5 17t30 48.5t10.5 53.5t2 55v23z" />
<glyph unicode="&#x106;" d="M448 1536l142 256h266l-190 -256h-218zM960 248v-240q-179 -24 -317 -24q-205 0 -330.5 102.5t-169.5 277.5q-31 122 -31 340t31 340q44 176 166 278t324 102q153 0 312 -18v-240q-200 18 -309 18q-205 0 -250 -230q-18 -94 -18 -250t18 -250q45 -230 257 -230 q115 0 317 24z" />
<glyph unicode="&#x107;" d="M448 1152l142 256h266l-190 -256h-218zM224 512q0 112 7.5 184t35.5 135q91 209 339 209q113 0 280 -18v-240q-169 18 -280 18q-43 0 -68 -23t-41 -70q-17 -52 -17 -195t17 -195q16 -47 41 -70t68 -23q117 0 290 26v-240q-172 -26 -290 -26q-248 0 -339 209 q-28 63 -35.5 135t-7.5 184z" />
<glyph unicode="&#x108;" d="M491 1792h298l227 -256h-248l-128 114l-128 -114h-248zM960 248v-240q-179 -24 -317 -24q-205 0 -330.5 102.5t-169.5 277.5q-31 122 -31 340t31 340q44 176 166 278t324 102q153 0 312 -18v-240q-200 18 -309 18q-205 0 -250 -230q-18 -94 -18 -250t18 -250 q45 -230 257 -230q115 0 317 24z" />
<glyph unicode="&#x109;" d="M427 1408h298l227 -256h-248l-128 114l-128 -114h-248zM224 512q0 112 7.5 184t35.5 135q91 209 339 209q113 0 280 -18v-240q-169 18 -280 18q-43 0 -68 -23t-41 -70q-17 -52 -17 -195t17 -195q16 -47 41 -70t68 -23q117 0 290 26v-240q-172 -26 -290 -26 q-248 0 -339 209q-28 63 -35.5 135t-7.5 184z" />
<glyph unicode="&#x10a;" d="M640 1808q63 0 102.5 -39.5t39.5 -102.5t-39.5 -102.5t-102.5 -39.5t-102.5 39.5t-39.5 102.5t39.5 102.5t102.5 39.5zM960 248v-240q-179 -24 -317 -24q-205 0 -330.5 102.5t-169.5 277.5q-31 122 -31 340t31 340q44 176 166 278t324 102q153 0 312 -18v-240 q-200 18 -309 18q-205 0 -250 -230q-18 -94 -18 -250t18 -250q45 -230 257 -230q115 0 317 24z" />
<glyph unicode="&#x10b;" d="M576 1424q63 0 102.5 -39.5t39.5 -102.5t-39.5 -102.5t-102.5 -39.5t-102.5 39.5t-39.5 102.5t39.5 102.5t102.5 39.5zM224 512q0 112 7.5 184t35.5 135q91 209 339 209q113 0 280 -18v-240q-169 18 -280 18q-43 0 -68 -23t-41 -70q-17 -52 -17 -195t17 -195 q16 -47 41 -70t68 -23q117 0 290 26v-240q-172 -26 -290 -26q-248 0 -339 209q-28 63 -35.5 135t-7.5 184z" />
<glyph unicode="&#x10c;" d="M789 1536h-298l-227 256h248l128 -114l128 114h248zM960 248v-240q-179 -24 -317 -24q-205 0 -330.5 102.5t-169.5 277.5q-31 122 -31 340t31 340q44 176 166 278t324 102q153 0 312 -18v-240q-200 18 -309 18q-205 0 -250 -230q-18 -94 -18 -250t18 -250 q45 -230 257 -230q115 0 317 24z" />
<glyph unicode="&#x10d;" d="M725 1152h-298l-227 256h248l128 -114l128 114h248zM224 512q0 112 7.5 184t35.5 135q91 209 339 209q113 0 280 -18v-240q-169 18 -280 18q-43 0 -68 -23t-41 -70q-17 -52 -17 -195t17 -195q16 -47 41 -70t68 -23q117 0 290 26v-240q-172 -26 -290 -26q-248 0 -339 209 q-28 63 -35.5 135t-7.5 184z" />
<glyph unicode="&#x10e;" d="M725 1536h-298l-227 256h248l128 -114l128 114h248zM474 1408q322 0 469 -237q57 -90 77 -204t20 -263t-20 -263t-77 -204q-147 -237 -469 -237h-346v1408h346zM784 704q0 240 -57 336q-75 128 -232 128h-111v-928h111q157 0 232 128q57 96 57 336z" />
<glyph unicode="&#x10f;" d="M337 1040q116 0 167 -81h8v449h256v-1408h-256v65h-8q-51 -81 -167 -81q-76 0 -134.5 62.5t-85.5 174.5q-21 90 -21 291t21 291q27 112 85.5 174.5t134.5 62.5zM432 800q-26 0 -44 -30.5t-26 -76.5q-10 -54 -10 -181t10 -181q8 -46 26 -76.5t44 -30.5t44 30.5t26 76.5 q10 54 10 181t-10 181q-8 46 -26 76.5t-44 30.5zM896 1408h256v-384h-256v384z" />
<glyph unicode="&#x110;" d="M784 704q0 238 -57 336q-75 128 -232 128h-111v-344h192v-240h-192v-344h111q157 0 232 128q57 96 57 336zM474 1408q322 0 469 -237q57 -90 77 -204t20 -263t-20 -263t-77 -204q-147 -237 -469 -237h-346v1408h346z" />
<glyph unicode="&#x111;" d="M480 448q0 -143 33 -194q19 -30 47 -30t47 30q33 51 33 194t-33 194q-19 30 -47 30t-47 -30q-33 -51 -33 -194zM640 0v65h-10q-58 -81 -140 -81q-111 0 -171 81q-95 127 -95 383t95 383q60 81 171 81q82 0 140 -81h10v209h-256v240h256v128h256v-128h128v-240h-128v-1040 h-256z" />
<glyph unicode="&#x112;" d="M256 1740h640v-200h-640v200zM192 1408h768v-240h-512v-340h384v-240h-384v-348h512v-240h-768v1408z" />
<glyph unicode="&#x113;" d="M256 1356h640v-200h-640v200zM576 1040q116 0 198 -56.5t117 -144.5q17 -43 25.5 -101t10 -102.5t1.5 -123.5v-120h-447q0 -82 15 -115q26 -53 100 -53q109 0 300 20v-239q-182 -21 -300 -21q-124 0 -209 58t-123 151q-26 63 -33 135t-7 184q0 115 6.5 189.5t30.5 137.5 q33 89 115.5 145t199.5 56zM576 800q-17 0 -31 -3.5t-23.5 -13t-16.5 -17t-11.5 -25t-7 -27.5t-4 -33.5t-1.5 -33t-1 -35.5h192q-2 103 -16 136q-20 52 -80 52z" />
<glyph unicode="&#x114;" d="M728 1792h208q0 -123 -103.5 -197.5t-256.5 -74.5t-256.5 74.5t-103.5 197.5h208q0 -41 39 -66.5t113 -25.5t113 25.5t39 66.5zM192 1408h768v-240h-512v-340h384v-240h-384v-348h512v-240h-768v1408z" />
<glyph unicode="&#x115;" d="M728 1408h208q0 -123 -103.5 -197.5t-256.5 -74.5t-256.5 74.5t-103.5 197.5h208q0 -41 39 -66.5t113 -25.5t113 25.5t39 66.5zM576 1040q116 0 198 -56.5t117 -144.5q17 -43 25.5 -101t10 -102.5t1.5 -123.5v-120h-447q0 -82 15 -115q26 -53 100 -53q109 0 300 20v-239 q-182 -21 -300 -21q-124 0 -209 58t-123 151q-26 63 -33 135t-7 184q0 115 6.5 189.5t30.5 137.5q33 89 115.5 145t199.5 56zM576 800q-17 0 -31 -3.5t-23.5 -13t-16.5 -17t-11.5 -25t-7 -27.5t-4 -33.5t-1.5 -33t-1 -35.5h192q-2 103 -16 136q-20 52 -80 52z" />
<glyph unicode="&#x116;" d="M576 1808q63 0 102.5 -39.5t39.5 -102.5t-39.5 -102.5t-102.5 -39.5t-102.5 39.5t-39.5 102.5t39.5 102.5t102.5 39.5zM192 1408h768v-240h-512v-340h384v-240h-384v-348h512v-240h-768v1408z" />
<glyph unicode="&#x117;" d="M576 1424q63 0 102.5 -39.5t39.5 -102.5t-39.5 -102.5t-102.5 -39.5t-102.5 39.5t-39.5 102.5t39.5 102.5t102.5 39.5zM576 1040q116 0 198 -56.5t117 -144.5q17 -43 25.5 -101t10 -102.5t1.5 -123.5v-120h-447q0 -82 15 -115q26 -53 100 -53q109 0 300 20v-239 q-182 -21 -300 -21q-124 0 -209 58t-123 151q-26 63 -33 135t-7 184q0 115 6.5 189.5t30.5 137.5q33 89 115.5 145t199.5 56zM576 800q-17 0 -31 -3.5t-23.5 -13t-16.5 -17t-11.5 -25t-7 -27.5t-4 -33.5t-1.5 -33t-1 -35.5h192q-2 103 -16 136q-20 52 -80 52z" />
<glyph unicode="&#x118;" d="M192 1408h768v-240h-512v-340h384v-240h-384v-348h512v-240q-70 -32 -101 -63.5t-31 -74.5q0 -26 18.5 -39t42.5 -13q40 0 71 7v-158q-41 -9 -104 -9q-73 0 -136 46.5t-63 118.5q0 103 135 185h-600v1408z" />
<glyph unicode="&#x119;" d="M576 800q-17 0 -31 -3.5t-23.5 -13t-16.5 -17t-11.5 -25t-7 -27.5t-4 -33.5t-1.5 -33t-1 -35.5h192q-2 103 -16 136q-20 52 -80 52zM576 1040q116 0 198 -56.5t117 -144.5q17 -43 25.5 -101t10 -102.5t1.5 -123.5v-120h-447q0 -82 15 -115q26 -53 100 -53q109 0 300 20 v-239q-70 -32 -101 -63.5t-31 -74.5q0 -26 18.5 -39t42.5 -13q40 0 71 7v-158q-41 -9 -104 -9q-73 0 -136 46.5t-63 118.5q0 92 117 168q-51 -4 -114 -4q-124 0 -209 58t-123 151q-26 63 -33 135t-7 184q0 115 6.5 189.5t30.5 137.5q33 89 115.5 145t199.5 56z" />
<glyph unicode="&#x11a;" d="M725 1536h-298l-227 256h248l128 -114l128 114h248zM192 1408h768v-240h-512v-340h384v-240h-384v-348h512v-240h-768v1408z" />
<glyph unicode="&#x11b;" d="M725 1152h-298l-227 256h248l128 -114l128 114h248zM576 1040q116 0 198 -56.5t117 -144.5q17 -43 25.5 -101t10 -102.5t1.5 -123.5v-120h-447q0 -82 15 -115q26 -53 100 -53q109 0 300 20v-239q-182 -21 -300 -21q-124 0 -209 58t-123 151q-26 63 -33 135t-7 184 q0 115 6.5 189.5t30.5 137.5q33 89 115.5 145t199.5 56zM576 800q-17 0 -31 -3.5t-23.5 -13t-16.5 -17t-11.5 -25t-7 -27.5t-4 -33.5t-1.5 -33t-1 -35.5h192q-2 103 -16 136q-20 52 -80 52z" />
<glyph unicode="&#x11c;" d="M491 1792h298l227 -256h-248l-128 114l-128 -114h-248zM1024 21q-205 -37 -361 -37q-213 0 -343.5 102.5t-176.5 277.5q-31 122 -31 340t31 340q47 176 173 278t337 102q160 0 351 -21v-240q-214 21 -348 21q-225 0 -270 -230q-18 -94 -18 -250t18 -250 q21 -108 89.5 -169t187.5 -61q33 0 105 4v300h-128v240h384v-747z" />
<glyph unicode="&#x11d;" d="M427 1408h298l227 -256h-248l-128 114l-128 -114h-248zM640 193h-10q-58 -81 -140 -81q-111 0 -171 81q-95 127 -95 383t95 383q60 81 171 81q82 0 140 -81h10v65h256v-864q0 -171 -61 -273q-45 -74 -128 -116.5t-201 -42.5q-116 0 -236 15v240q135 -15 236 -15 q72 0 103 55t31 137v33zM480 576q0 -143 33 -194q19 -30 47 -30t47 30q33 51 33 194t-33 194q-19 30 -47 30t-47 -30q-33 -51 -33 -194z" />
<glyph unicode="&#x11e;" d="M792 1792h208q0 -123 -103.5 -197.5t-256.5 -74.5t-256.5 74.5t-103.5 197.5h208q0 -41 39 -66.5t113 -25.5t113 25.5t39 66.5zM1024 21q-205 -37 -361 -37q-213 0 -343.5 102.5t-176.5 277.5q-31 122 -31 340t31 340q47 176 173 278t337 102q160 0 351 -21v-240 q-214 21 -348 21q-225 0 -270 -230q-18 -94 -18 -250t18 -250q21 -108 89.5 -169t187.5 -61q33 0 105 4v300h-128v240h384v-747z" />
<glyph unicode="&#x11f;" d="M728 1408h208q0 -123 -103.5 -197.5t-256.5 -74.5t-256.5 74.5t-103.5 197.5h208q0 -41 39 -66.5t113 -25.5t113 25.5t39 66.5zM640 193h-10q-58 -81 -140 -81q-111 0 -171 81q-95 127 -95 383t95 383q60 81 171 81q82 0 140 -81h10v65h256v-864q0 -171 -61 -273 q-45 -74 -128 -116.5t-201 -42.5q-116 0 -236 15v240q135 -15 236 -15q72 0 103 55t31 137v33zM480 576q0 -143 33 -194q19 -30 47 -30t47 30q33 51 33 194t-33 194q-19 30 -47 30t-47 -30q-33 -51 -33 -194z" />
<glyph unicode="&#x120;" d="M640 1808q63 0 102.5 -39.5t39.5 -102.5t-39.5 -102.5t-102.5 -39.5t-102.5 39.5t-39.5 102.5t39.5 102.5t102.5 39.5zM1024 21q-205 -37 -361 -37q-213 0 -343.5 102.5t-176.5 277.5q-31 122 -31 340t31 340q47 176 173 278t337 102q160 0 351 -21v-240q-214 21 -348 21 q-225 0 -270 -230q-18 -94 -18 -250t18 -250q21 -108 89.5 -169t187.5 -61q33 0 105 4v300h-128v240h384v-747z" />
<glyph unicode="&#x121;" d="M576 1424q63 0 102.5 -39.5t39.5 -102.5t-39.5 -102.5t-102.5 -39.5t-102.5 39.5t-39.5 102.5t39.5 102.5t102.5 39.5zM640 193h-10q-58 -81 -140 -81q-111 0 -171 81q-95 127 -95 383t95 383q60 81 171 81q82 0 140 -81h10v65h256v-864q0 -171 -61 -273 q-45 -74 -128 -116.5t-201 -42.5q-116 0 -236 15v240q135 -15 236 -15q72 0 103 55t31 137v33zM480 576q0 -143 33 -194q19 -30 47 -30t47 30q33 51 33 194t-33 194q-19 30 -47 30t-47 -30q-33 -51 -33 -194z" />
<glyph unicode="&#x122;" d="M780 -315q-67 -85 -204 -85v190q33 0 45.5 20.5t12.5 61.5h198q0 -38 -1.5 -60.5t-14 -59t-36.5 -67.5zM1024 21q-205 -37 -361 -37q-213 0 -343.5 102.5t-176.5 277.5q-31 122 -31 340t31 340q47 176 173 278t337 102q160 0 351 -21v-240q-214 21 -348 21 q-225 0 -270 -230q-18 -94 -18 -250t18 -250q21 -108 89.5 -169t187.5 -61q33 0 105 4v300h-128v240h384v-747z" />
<glyph unicode="&#x123;" d="M500 1339q67 85 204 85v-190q-33 0 -45.5 -20.5t-12.5 -61.5h-198q0 38 1.5 60.5t14 59t36.5 67.5zM640 193h-10q-58 -81 -140 -81q-111 0 -171 81q-95 127 -95 383t95 383q60 81 171 81q82 0 140 -81h10v65h256v-864q0 -171 -61 -273q-45 -74 -128 -116.5t-201 -42.5 q-116 0 -236 15v240q135 -15 236 -15q72 0 103 55t31 137v33zM480 576q0 -143 33 -194q19 -30 47 -30t47 30q33 51 33 194t-33 194q-19 30 -47 30t-47 -30q-33 -51 -33 -194z" />
<glyph unicode="&#x124;" d="M427 1792h298l227 -256h-248l-128 114l-128 -114h-248zM192 1408h256v-588h256v588h256v-1408h-256v580h-256v-580h-256v1408z" />
<glyph unicode="&#x125;" d="M427 1792h298l227 -256h-248l-128 114l-128 -114h-248zM671 1040q107 0 173 -107q24 -40 36.5 -92t14 -86.5t1.5 -97.5v-657h-256v657q0 81 -15 109q-19 34 -49 34t-49 -34q-15 -28 -15 -109v-657h-256v1408h256v-446h7q28 36 69 57t83 21z" />
<glyph unicode="&#x126;" d="M128 1408h256v-132h384v132h256v-132h128v-240h-128v-1036h-256v581h-384v-581h-256v1036h-128v240h128v132zM384 1036v-215h384v215h-384z" />
<glyph unicode="&#x127;" d="M671 912q107 0 173 -107q24 -40 36.5 -92t14 -86.5t1.5 -97.5v-529h-256v529q0 81 -15 109q-19 34 -49 34t-49 -34q-15 -28 -15 -109v-529h-256v1067h-128v209h128v132h256v-132h256v-209h-256v-233h7q28 36 69 57t83 21z" />
<glyph unicode="&#x128;" d="M498 1598q-43 0 -47 -63l-198 6q3 104 53.5 175.5t141.5 71.5q50 0 88.5 -14.5t66 -29t51.5 -14.5q43 0 47 63l198 -6q-2 -103 -53 -175t-142 -72q-50 0 -88.5 14.5t-66 29t-51.5 14.5zM960 1408v-240h-256v-928h256v-240h-768v240h256v928h-256v240h768z" />
<glyph unicode="&#x129;" d="M498 1214q-43 0 -47 -63l-198 6q3 104 53.5 175.5t141.5 71.5q50 0 88.5 -14.5t66 -29t51.5 -14.5q43 0 47 63l198 -6q-2 -103 -53 -175t-142 -72q-50 0 -88.5 14.5t-66 29t-51.5 14.5zM512 0v784h-256v240h512v-1024h-256z" />
<glyph unicode="&#x12a;" d="M256 1740h640v-200h-640v200zM960 1408v-240h-256v-928h256v-240h-768v240h256v928h-256v240h768z" />
<glyph unicode="&#x12b;" d="M256 1356h640v-200h-640v200zM512 0v784h-256v240h512v-1024h-256z" />
<glyph unicode="&#x12c;" d="M728 1792h208q0 -123 -103.5 -197.5t-256.5 -74.5t-256.5 74.5t-103.5 197.5h208q0 -41 39 -66.5t113 -25.5t113 25.5t39 66.5zM960 1408v-240h-256v-928h256v-240h-768v240h256v928h-256v240h768z" />
<glyph unicode="&#x12d;" d="M728 1408h208q0 -123 -103.5 -197.5t-256.5 -74.5t-256.5 74.5t-103.5 197.5h208q0 -41 39 -66.5t113 -25.5t113 25.5t39 66.5zM512 0v784h-256v240h512v-1024h-256z" />
<glyph unicode="&#x12e;" d="M960 1408v-240h-256v-928h256v-240q-70 -32 -101 -63.5t-31 -74.5q0 -26 18.5 -39t42.5 -13q40 0 71 7v-158q-41 -9 -104 -9q-73 0 -136 46.5t-63 118.5q0 103 135 185h-600v240h256v928h-256v240h768z" />
<glyph unicode="&#x12f;" d="M614 1381q69 0 113 -44t44 -113t-44 -113t-113 -44t-113 44t-44 113t44 113t113 44zM512 0v656h-246v240h502v-896q-70 -32 -101 -63.5t-31 -74.5q0 -26 18.5 -39t42.5 -13q40 0 71 7v-158q-41 -9 -104 -9q-73 0 -136 46.5t-63 118.5q0 103 135 185h-88z" />
<glyph unicode="&#x130;" d="M576 1808q63 0 102.5 -39.5t39.5 -102.5t-39.5 -102.5t-102.5 -39.5t-102.5 39.5t-39.5 102.5t39.5 102.5t102.5 39.5zM960 1408v-240h-256v-928h256v-240h-768v240h256v928h-256v240h768z" />
<glyph unicode="&#x131;" d="M512 0v784h-256v240h512v-1024h-256z" />
<glyph unicode="&#x134;" d="M427 1792h298l227 -256h-248l-128 114l-128 -114h-248zM704 1168h-384v240h640v-934q0 -49 -1.5 -78.5t-9 -78.5t-27.5 -93.5t-51 -84.5q-54 -69 -138.5 -110t-189.5 -41q-111 0 -213 44t-181 111l137 192q121 -107 257 -107q84 0 124 62q17 26 26 61.5t10 59t1 63.5v694 z" />
<glyph unicode="&#x135;" d="M427 1408h298l227 -256h-248l-128 114l-128 -114h-248zM512 160v624h-246v240h502v-864q0 -171 -61 -273q-95 -159 -299 -159q-116 0 -236 15v240q135 -15 236 -15q38 0 62.5 29.5t33 70t8.5 92.5z" />
<glyph unicode="&#x136;" d="M652 -315q-67 -85 -204 -85v190q33 0 45.5 20.5t12.5 61.5h198q0 -38 -1.5 -60.5t-14 -59t-36.5 -67.5zM384 0h-256v1408h256v-550l296 550h289l-335 -590l428 -818h-287l-313 611l-78 -132v-479z" />
<glyph unicode="&#x137;" d="M705 -302q-67 -85 -204 -85v190q33 0 45.5 20.5t12.5 61.5h198q0 -38 -1.5 -60.5t-14 -59t-36.5 -67.5zM512 0h-256v1408h256v-711l167 327h276l-227 -443l274 -581h-276l-167 353l-47 -98v-255z" />
<glyph unicode="&#x138;" d="M512 0h-256v1024h256v-327l167 327h276l-227 -443l274 -581h-276l-167 353l-47 -98v-255z" />
<glyph unicode="&#x139;" d="M448 1536l142 256h266l-190 -256h-218zM192 0v1408h256v-1168h576v-240h-832z" />
<glyph unicode="&#x13a;" d="M384 1536l142 256h266l-190 -256h-218zM896 -11q-127 -5 -184 -5q-146 0 -231 74q-34 30 -55.5 63t-29.5 70t-10 59t-2 58v1100h256v-1080q0 -54 28 -79t100 -25q68 0 128 5v-240z" />
<glyph unicode="&#x13b;" d="M652 -315q-67 -85 -204 -85v190q33 0 45.5 20.5t12.5 61.5h198q0 -38 -1.5 -60.5t-14 -59t-36.5 -67.5zM192 0v1408h256v-1168h576v-240h-832z" />
<glyph unicode="&#x13c;" d="M780 -315q-67 -85 -204 -85v190q33 0 45.5 20.5t12.5 61.5h198q0 -38 -1.5 -60.5t-14 -59t-36.5 -67.5zM896 -11q-127 -5 -184 -5q-146 0 -231 74q-34 30 -55.5 63t-29.5 70t-10 59t-2 58v1100h256v-1080q0 -54 28 -79t100 -25q68 0 128 5v-240z" />
<glyph unicode="&#x13d;" d="M768 1408h256v-384h-256v384zM192 0v1408h256v-1168h576v-240h-832z" />
<glyph unicode="&#x13e;" d="M768 1408h256v-384h-256v384zM768 -11q-128 -5 -184 -5q-146 0 -231 74q-34 30 -55.5 63t-29.5 70t-10 59t-2 58v1100h256v-1080q0 -54 28 -79t100 -25q68 0 128 5v-240z" />
<glyph unicode="&#x13f;" d="M825 1026q86 0 140 -54t54 -140t-54 -140t-140 -54t-140 54t-54 140t54 140t140 54zM192 0v1408h256v-1168h576v-240h-832z" />
<glyph unicode="&#x140;" d="M831 1026q86 0 140 -54t54 -140t-54 -140t-140 -54t-140 54t-54 140t54 140t140 54zM768 -11q-127 -5 -184 -5q-146 0 -231 74q-34 30 -55.5 63t-29.5 70t-10 59t-2 58v1100h256v-1080q0 -54 28 -79t100 -25q68 0 128 5v-240z" />
<glyph unicode="&#x141;" d="M320 400l-121 -86l-143 202l264 188v704h256v-521l118 84l148 -198l-266 -190v-343h448v-240h-704v400z" />
<glyph unicode="&#x142;" d="M822 971l148 -198l-266 -190v-255q0 -54 28 -79t100 -25q68 0 128 5v-240q-128 -5 -184 -5q-146 0 -231 74q-34 30 -55.5 63t-29.5 70t-10 59t-2 58v92l-121 -86l-143 202l264 188v704h256v-521z" />
<glyph unicode="&#x143;" d="M448 1536l142 256h266l-190 -256h-218zM448 0h-256v1408h255l247 -798h10v798h256v-1408h-256l-246 798h-10v-798z" />
<glyph unicode="&#x144;" d="M448 1152l142 256h266l-190 -256h-218zM671 1040q107 0 173 -107q24 -40 36.5 -92t14 -86.5t1.5 -97.5v-657h-256v657q0 81 -15 109q-19 34 -49 34t-49 -34q-15 -28 -15 -109v-657h-256v1024h256v-62h7q28 36 69 57t83 21z" />
<glyph unicode="&#x145;" d="M652 -315q-67 -85 -204 -85v190q33 0 45.5 20.5t12.5 61.5h198q0 -38 -1.5 -60.5t-14 -59t-36.5 -67.5zM448 0h-256v1408h255l247 -798h10v798h256v-1408h-256l-246 798h-10v-798z" />
<glyph unicode="&#x146;" d="M652 -315q-67 -85 -204 -85v190q33 0 45.5 20.5t12.5 61.5h198q0 -38 -1.5 -60.5t-14 -59t-36.5 -67.5zM671 1040q107 0 173 -107q24 -40 36.5 -92t14 -86.5t1.5 -97.5v-657h-256v657q0 81 -15 109q-19 34 -49 34t-49 -34q-15 -28 -15 -109v-657h-256v1024h256v-62h7 q28 36 69 57t83 21z" />
<glyph unicode="&#x147;" d="M725 1536h-298l-227 256h248l128 -114l128 114h248zM448 0h-256v1408h255l247 -798h10v798h256v-1408h-256l-246 798h-10v-798z" />
<glyph unicode="&#x148;" d="M725 1152h-298l-227 256h248l128 -114l128 114h248zM671 1040q107 0 173 -107q24 -40 36.5 -92t14 -86.5t1.5 -97.5v-657h-256v657q0 81 -15 109q-19 34 -49 34t-49 -34q-15 -28 -15 -109v-657h-256v1024h256v-62h7q28 36 69 57t83 21z" />
<glyph unicode="&#x149;" d="M799 1040q107 0 173 -107q24 -40 36.5 -92t14 -86.5t1.5 -97.5v-657h-256v657q0 81 -15 109q-19 34 -49 34t-49 -34q-15 -28 -15 -109v-657h-256v1024h256v-62h7q28 36 69 57t83 21zM0 1408h256v-384h-256v384z" />
<glyph unicode="&#x14a;" d="M448 0h-256v1408h255l247 -798h10v798h256v-1408q-2 -148 -68 -228q-41 -50 -106.5 -79t-145.5 -29q-85 0 -192 15v240q111 -15 182 -15q36 0 52.5 25.5t20.5 75.5l-245 793h-10v-798z" />
<glyph unicode="&#x14b;" d="M896 40q0 -60 -2 -94t-18 -85t-48 -89q-41 -50 -106.5 -79t-145.5 -29q-85 0 -192 15v240q111 -15 182 -15q43 0 58.5 36t15.5 110v607q0 81 -15 109q-19 34 -49 34t-49 -34q-15 -28 -15 -109v-657h-256v1024h256v-62h7q28 36 69 57t83 21q107 0 173 -107 q24 -40 36.5 -92t14 -86.5t1.5 -97.5v-617z" />
<glyph unicode="&#x14c;" d="M256 1740h640v-200h-640v200zM368 704q0 -176 15 -258q18 -97 66.5 -159.5t126.5 -62.5t126.5 62.5t66.5 159.5q15 83 15 258q0 176 -15 258q-18 97 -66.5 159.5t-126.5 62.5t-126.5 -62.5t-66.5 -159.5q-15 -82 -15 -258zM112 704q0 238 28 349q40 162 151 266.5 t285 104.5t285 -104.5t151 -266.5q28 -111 28 -349t-28 -349q-40 -162 -151 -266.5t-285 -104.5t-285 104.5t-151 266.5q-28 111 -28 349z" />
<glyph unicode="&#x14d;" d="M256 1356h640v-200h-640v200zM576 1040q93 0 166.5 -42.5t120.5 -117.5q39 -64 52 -151.5t13 -216.5t-13 -216.5t-52 -151.5q-47 -75 -120.5 -117.5t-166.5 -42.5t-166.5 42.5t-120.5 117.5q-39 64 -52 151.5t-13 216.5t13 216.5t52 151.5q47 75 120.5 117.5t166.5 42.5z M576 800q-51 0 -76 -69q-20 -55 -20 -219t20 -219q25 -69 76 -69t76 69q20 55 20 219t-20 219q-25 69 -76 69z" />
<glyph unicode="&#x14e;" d="M728 1792h208q0 -123 -103.5 -197.5t-256.5 -74.5t-256.5 74.5t-103.5 197.5h208q0 -41 39 -66.5t113 -25.5t113 25.5t39 66.5zM368 704q0 -176 15 -258q18 -97 66.5 -159.5t126.5 -62.5t126.5 62.5t66.5 159.5q15 83 15 258q0 176 -15 258q-18 97 -66.5 159.5 t-126.5 62.5t-126.5 -62.5t-66.5 -159.5q-15 -82 -15 -258zM112 704q0 238 28 349q40 162 151 266.5t285 104.5t285 -104.5t151 -266.5q28 -111 28 -349t-28 -349q-40 -162 -151 -266.5t-285 -104.5t-285 104.5t-151 266.5q-28 111 -28 349z" />
<glyph unicode="&#x14f;" d="M728 1408h208q0 -123 -103.5 -197.5t-256.5 -74.5t-256.5 74.5t-103.5 197.5h208q0 -41 39 -66.5t113 -25.5t113 25.5t39 66.5zM576 1040q93 0 166.5 -42.5t120.5 -117.5q39 -64 52 -151.5t13 -216.5t-13 -216.5t-52 -151.5q-47 -75 -120.5 -117.5t-166.5 -42.5 t-166.5 42.5t-120.5 117.5q-39 64 -52 151.5t-13 216.5t13 216.5t52 151.5q47 75 120.5 117.5t166.5 42.5zM576 800q-51 0 -76 -69q-20 -55 -20 -219t20 -219q25 -69 76 -69t76 69q20 55 20 219t-20 219q-25 69 -76 69z" />
<glyph unicode="&#x150;" d="M640 1536l152 256h246l-180 -256h-218zM256 1536l152 256h246l-180 -256h-218zM368 704q0 -176 15 -258q18 -97 66.5 -159.5t126.5 -62.5t126.5 62.5t66.5 159.5q15 83 15 258q0 176 -15 258q-18 97 -66.5 159.5t-126.5 62.5t-126.5 -62.5t-66.5 -159.5q-15 -82 -15 -258 zM112 704q0 238 28 349q40 162 151 266.5t285 104.5t285 -104.5t151 -266.5q28 -111 28 -349t-28 -349q-40 -162 -151 -266.5t-285 -104.5t-285 104.5t-151 266.5q-28 111 -28 349z" />
<glyph unicode="&#x151;" d="M640 1152l152 256h246l-180 -256h-218zM256 1152l152 256h246l-180 -256h-218zM576 1040q93 0 166.5 -42.5t120.5 -117.5q39 -64 52 -151.5t13 -216.5t-13 -216.5t-52 -151.5q-47 -75 -120.5 -117.5t-166.5 -42.5t-166.5 42.5t-120.5 117.5q-39 64 -52 151.5t-13 216.5 t13 216.5t52 151.5q47 75 120.5 117.5t166.5 42.5zM576 800q-51 0 -76 -69q-20 -55 -20 -219t20 -219q25 -69 76 -69t76 69q20 55 20 219t-20 219q-25 69 -76 69z" />
<glyph unicode="&#x152;" d="M368 704q0 -205 20 -316q13 -71 42 -109.5t82 -38.5h64v928h-64q-53 0 -82 -38.5t-42 -109.5q-20 -111 -20 -316zM112 704q0 88 4 158.5t14.5 153t34.5 151t60 115.5q97 126 287 126h512v-240h-192v-344h192v-240h-192v-344h192v-240h-512q-190 0 -287 126 q-68 88 -90.5 236.5t-22.5 341.5z" />
<glyph unicode="&#x153;" d="M432 224q31 0 51 42q29 63 29 246q0 191 -31 252q-18 36 -49 36q-33 0 -53 -46q-27 -64 -27 -242q0 -193 31 -252q20 -36 49 -36zM368 1040q147 0 204 -137h10q73 137 208 137q96 0 158.5 -70t86.5 -168q19 -77 19 -225v-158l-414 1q0 -34 2.5 -58t14 -52t31 -45.5 t56.5 -29t88 -11.5q31 0 192 13v-240q-136 -13 -195 -13q-170 0 -245 124h-10q-24 -55 -75 -89.5t-131 -34.5q-63 0 -116 36q-42 28 -71.5 70t-45.5 85.5t-25 104.5t-11.5 111t-2.5 121t2.5 121t11.5 111t25 104.5t45.5 85.5t71.5 70q53 36 116 36zM798 632q-1 34 -4 58.5 t-10.5 52t-24 42.5t-40.5 15q-28 0 -46.5 -28.5t-24.5 -63.5t-7 -76h157z" />
<glyph unicode="&#x154;" d="M448 1536l142 256h266l-190 -256h-218zM448 1168v-408h62q86 0 125 8q67 14 108 67t41 129t-41 129t-108 67q-40 8 -125 8h-62zM192 1408h316q148 0 211 -15q142 -34 231.5 -148.5t89.5 -280.5q0 -125 -52.5 -222.5t-142.5 -154.5l220 -587h-272l-186 521q-30 -1 -99 -1 h-60v-520h-256v1408z" />
<glyph unicode="&#x155;" d="M448 1152l142 256h266l-190 -256h-218zM716 800q-83 0 -133 -53q-25 -28 -40.5 -61.5t-21.5 -75t-7.5 -67t-1.5 -68.5v-475h-256v1024h256v-109h10q40 61 87.5 93t116.5 32q70 0 170 -13v-240q-106 13 -180 13z" />
<glyph unicode="&#x156;" d="M652 -315q-67 -85 -204 -85v190q33 0 45.5 20.5t12.5 61.5h198q0 -38 -1.5 -60.5t-14 -59t-36.5 -67.5zM448 1168v-408h62q86 0 125 8q67 14 108 67t41 129t-41 129t-108 67q-40 8 -125 8h-62zM192 1408h316q148 0 211 -15q142 -34 231.5 -148.5t89.5 -280.5 q0 -125 -52.5 -222.5t-142.5 -154.5l220 -587h-272l-186 521q-30 -1 -99 -1h-60v-520h-256v1408z" />
<glyph unicode="&#x157;" d="M460 -315q-67 -85 -204 -85v190q33 0 45.5 20.5t12.5 61.5h198q0 -38 -1.5 -60.5t-14 -59t-36.5 -67.5zM716 800q-83 0 -133 -53q-25 -28 -40.5 -61.5t-21.5 -75t-7.5 -67t-1.5 -68.5v-475h-256v1024h256v-109h10q40 61 87.5 93t116.5 32q70 0 170 -13v-240 q-106 13 -180 13z" />
<glyph unicode="&#x158;" d="M725 1536h-298l-227 256h248l128 -114l128 114h248zM448 1168v-408h62q86 0 125 8q67 14 108 67t41 129t-41 129t-108 67q-40 8 -125 8h-62zM192 1408h316q148 0 211 -15q142 -34 231.5 -148.5t89.5 -280.5q0 -125 -52.5 -222.5t-142.5 -154.5l220 -587h-272l-186 521 q-30 -1 -99 -1h-60v-520h-256v1408z" />
<glyph unicode="&#x159;" d="M725 1152h-298l-227 256h248l128 -114l128 114h248zM716 800q-83 0 -133 -53q-25 -28 -40.5 -61.5t-21.5 -75t-7.5 -67t-1.5 -68.5v-475h-256v1024h256v-109h10q40 61 87.5 93t116.5 32q70 0 170 -13v-240q-106 13 -180 13z" />
<glyph unicode="&#x15a;" d="M448 1536l142 256h266l-190 -256h-218zM556 -16q-164 0 -370 32v244q241 -36 370 -36q178 0 178 190q0 53 -25.5 100.5t-71.5 65.5q-29 11 -80 18t-104.5 20.5t-102.5 42.5q-188 112 -188 354q0 173 110.5 291t283.5 118q135 0 370 -25v-241q-243 26 -370 26 q-38 0 -66.5 -17t-43.5 -44t-21.5 -55t-6.5 -55q0 -118 80 -154q26 -12 118.5 -26.5t149.5 -44.5q80 -41 132 -106t72 -131t20 -137q0 -194 -120 -312t-314 -118z" />
<glyph unicode="&#x15b;" d="M448 1152l142 256h266l-190 -256h-218zM567 -16q-115 0 -311 22v240q187 -22 311 -22q56 0 80.5 30t24.5 62q0 33 -15 54.5t-40 26.5q-18 4 -63 9.5t-83.5 15t-75.5 28.5q-69 36 -115 106t-46 163q0 44 13 88.5t40.5 86.5t66.5 74.5t95.5 52t122.5 19.5q111 0 314 -21 v-240q-205 21 -314 21q-42 0 -62 -26.5t-20 -52.5q0 -41 19 -64.5t47 -27.5q13 -2 50.5 -6.5t58.5 -8.5t53.5 -13.5t60.5 -26t54 -41.5q95 -89 95 -215q0 -64 -23 -123t-66 -106.5t-113.5 -76t-158.5 -28.5z" />
<glyph unicode="&#x15c;" d="M427 1792h298l227 -256h-248l-128 114l-128 -114h-248zM556 -16q-164 0 -370 32v244q241 -36 370 -36q178 0 178 190q0 53 -25.5 100.5t-71.5 65.5q-29 11 -80 18t-104.5 20.5t-102.5 42.5q-188 112 -188 354q0 173 110.5 291t283.5 118q135 0 370 -25v-241 q-243 26 -370 26q-38 0 -66.5 -17t-43.5 -44t-21.5 -55t-6.5 -55q0 -118 80 -154q26 -12 118.5 -26.5t149.5 -44.5q80 -41 132 -106t72 -131t20 -137q0 -194 -120 -312t-314 -118z" />
<glyph unicode="&#x15d;" d="M427 1408h298l227 -256h-248l-128 114l-128 -114h-248zM567 -16q-115 0 -311 22v240q187 -22 311 -22q56 0 80.5 30t24.5 62q0 33 -15 54.5t-40 26.5q-18 4 -63 9.5t-83.5 15t-75.5 28.5q-69 36 -115 106t-46 163q0 44 13 88.5t40.5 86.5t66.5 74.5t95.5 52t122.5 19.5 q111 0 314 -21v-240q-205 21 -314 21q-42 0 -62 -26.5t-20 -52.5q0 -41 19 -64.5t47 -27.5q13 -2 50.5 -6.5t58.5 -8.5t53.5 -13.5t60.5 -26t54 -41.5q95 -89 95 -215q0 -64 -23 -123t-66 -106.5t-113.5 -76t-158.5 -28.5z" />
<glyph unicode="&#x15e;" d="M186 16v244q241 -36 370 -36q178 0 178 190q0 53 -25.5 100.5t-71.5 65.5q-29 11 -80 18t-104.5 20.5t-102.5 42.5q-188 112 -188 354q0 173 110.5 291t283.5 118q135 0 370 -25v-241q-243 26 -370 26q-38 0 -66.5 -17t-43.5 -44t-21.5 -55t-6.5 -55q0 -118 80 -154 q26 -12 118.5 -26.5t149.5 -44.5q80 -41 132 -106t72 -131t20 -137q0 -133 -58.5 -233t-163.5 -151q0 -42 -2 -68t-14 -66.5t-36 -72.5q-73 -95 -194 -95q-53 0 -138 10v180q73 -10 118 -10q37 0 54 19t22 57q-185 0 -392 32z" />
<glyph unicode="&#x15f;" d="M567 -16q-115 0 -311 22v240q187 -22 311 -22q56 0 80.5 30t24.5 62q0 33 -15 54.5t-40 26.5q-18 4 -63 9.5t-83.5 15t-75.5 28.5q-69 36 -115 106t-46 163q0 44 13 88.5t40.5 86.5t66.5 74.5t95.5 52t122.5 19.5q111 0 314 -21v-240q-205 21 -314 21q-42 0 -62 -26.5 t-20 -52.5q0 -41 19 -64.5t47 -27.5q13 -2 50.5 -6.5t58.5 -8.5t53.5 -13.5t60.5 -26t54 -41.5q95 -89 95 -215q0 -87 -41 -163.5t-119 -121.5q0 -46 -1.5 -72t-14 -66t-36.5 -72q-71 -95 -194 -95q-53 0 -138 10v180q73 -10 118 -10q37 0 54 19t22 57h-11z" />
<glyph unicode="&#x160;" d="M725 1536h-298l-227 256h248l128 -114l128 114h248zM556 -16q-164 0 -370 32v244q241 -36 370 -36q178 0 178 190q0 53 -25.5 100.5t-71.5 65.5q-29 11 -80 18t-104.5 20.5t-102.5 42.5q-188 112 -188 354q0 173 110.5 291t283.5 118q135 0 370 -25v-241q-243 26 -370 26 q-38 0 -66.5 -17t-43.5 -44t-21.5 -55t-6.5 -55q0 -118 80 -154q26 -12 118.5 -26.5t149.5 -44.5q80 -41 132 -106t72 -131t20 -137q0 -194 -120 -312t-314 -118z" />
<glyph unicode="&#x161;" d="M725 1152h-298l-227 256h248l128 -114l128 114h248zM567 -16q-115 0 -311 22v240q187 -22 311 -22q56 0 80.5 30t24.5 62q0 33 -15 54.5t-40 26.5q-18 4 -63 9.5t-83.5 15t-75.5 28.5q-69 36 -115 106t-46 163q0 44 13 88.5t40.5 86.5t66.5 74.5t95.5 52t122.5 19.5 q111 0 314 -21v-240q-205 21 -314 21q-42 0 -62 -26.5t-20 -52.5q0 -41 19 -64.5t47 -27.5q13 -2 50.5 -6.5t58.5 -8.5t53.5 -13.5t60.5 -26t54 -41.5q95 -89 95 -215q0 -64 -23 -123t-66 -106.5t-113.5 -76t-158.5 -28.5z" />
<glyph unicode="&#x162;" d="M1024 1408v-240h-320v-1168h-34q0 -41 -1.5 -65t-14 -63.5t-36.5 -71.5q-71 -95 -194 -95q-53 0 -138 10v180q73 -10 118 -10q47 0 64 32q14 27 14 83h-34v1168h-320v240h896z" />
<glyph unicode="&#x163;" d="M960 -1q-107 -15 -192 -15q-4 -96 -52 -161q-71 -95 -194 -95q-53 0 -138 10v180q73 -10 118 -10q48 0 63 32t15 96q-35 23 -64 56q-32 38 -48 89t-18 85t-2 94v418h-256v246h256v256h256v-256h256v-246h-256v-408q0 -74 15.5 -110t58.5 -36q71 0 182 15v-240z" />
<glyph unicode="&#x164;" d="M725 1536h-298l-227 256h248l128 -114l128 114h248zM1024 1408v-240h-320v-1168h-256v1168h-320v240h896z" />
<glyph unicode="&#x165;" d="M896 -1q-107 -15 -192 -15q-80 0 -145.5 29t-106.5 79q-32 38 -48 89t-18 85t-2 94v290h-256v246h256v384h256v-384h256v-246h-256v-280q0 -74 15.5 -110t58.5 -36q71 0 182 15v-240zM896 1408h256v-384h-256v384z" />
<glyph unicode="&#x166;" d="M1024 1408v-240h-320v-404h192v-240h-192v-524h-256v524h-192v240h192v404h-320v240h896z" />
<glyph unicode="&#x167;" d="M960 -1q-107 -15 -192 -15q-80 0 -145.5 29t-106.5 79q-32 38 -48 89t-18 85t-2 94v40h-256v240h256v138h-256v246h256v256h256v-256h256v-246h-256v-138h256v-240h-256v-30q0 -74 15.5 -110t58.5 -36q71 0 182 15v-240z" />
<glyph unicode="&#x168;" d="M498 1598q-43 0 -47 -63l-198 6q3 104 53.5 175.5t141.5 71.5q50 0 88.5 -14.5t66 -29t51.5 -14.5q43 0 47 63l198 -6q-2 -103 -53 -175t-142 -72q-50 0 -88.5 14.5t-66 29t-51.5 14.5zM128 1408h256v-896q0 -94 7 -128q15 -72 64.5 -116t120.5 -44t120.5 44t64.5 116 q7 34 7 128v896h256v-896q0 -141 -16 -209q-34 -141 -151.5 -230t-280.5 -89t-280.5 89t-151.5 230q-16 68 -16 209v896z" />
<glyph unicode="&#x169;" d="M498 1214q-43 0 -47 -63l-198 6q3 104 53.5 175.5t141.5 71.5q50 0 88.5 -14.5t66 -29t51.5 -14.5q43 0 47 63l198 -6q-2 -103 -53 -175t-142 -72q-50 0 -88.5 14.5t-66 29t-51.5 14.5zM481 -16q-107 0 -173 107q-24 40 -36.5 92t-14 86.5t-1.5 97.5v657h256v-657 q0 -81 15 -109q19 -34 49 -34t49 34q15 28 15 109v657h256v-1024h-256v62h-7q-28 -36 -69 -57t-83 -21z" />
<glyph unicode="&#x16a;" d="M256 1740h640v-200h-640v200zM128 1408h256v-896q0 -94 7 -128q15 -72 64.5 -116t120.5 -44t120.5 44t64.5 116q7 34 7 128v896h256v-896q0 -141 -16 -209q-34 -141 -151.5 -230t-280.5 -89t-280.5 89t-151.5 230q-16 68 -16 209v896z" />
<glyph unicode="&#x16b;" d="M256 1356h640v-200h-640v200zM481 -16q-107 0 -173 107q-24 40 -36.5 92t-14 86.5t-1.5 97.5v657h256v-657q0 -81 15 -109q19 -34 49 -34t49 34q15 28 15 109v657h256v-1024h-256v62h-7q-28 -36 -69 -57t-83 -21z" />
<glyph unicode="&#x16c;" d="M728 1792h208q0 -123 -103.5 -197.5t-256.5 -74.5t-256.5 74.5t-103.5 197.5h208q0 -41 39 -66.5t113 -25.5t113 25.5t39 66.5zM128 1408h256v-896q0 -94 7 -128q15 -72 64.5 -116t120.5 -44t120.5 44t64.5 116q7 34 7 128v896h256v-896q0 -141 -16 -209 q-34 -141 -151.5 -230t-280.5 -89t-280.5 89t-151.5 230q-16 68 -16 209v896z" />
<glyph unicode="&#x16d;" d="M728 1408h208q0 -123 -103.5 -197.5t-256.5 -74.5t-256.5 74.5t-103.5 197.5h208q0 -41 39 -66.5t113 -25.5t113 25.5t39 66.5zM481 -16q-107 0 -173 107q-24 40 -36.5 92t-14 86.5t-1.5 97.5v657h256v-657q0 -81 15 -109q19 -34 49 -34t49 34q15 28 15 109v657h256 v-1024h-256v62h-7q-28 -36 -69 -57t-83 -21z" />
<glyph unicode="&#x16e;" d="M128 1216h256v-704q0 -94 7 -128q15 -72 64.5 -116t120.5 -44t120.5 44t64.5 116q7 34 7 128v704h256v-704q0 -141 -16 -209q-34 -141 -151.5 -230t-280.5 -89t-280.5 89t-151.5 230q-16 68 -16 209v704zM576 1764q113 0 185.5 -74t72.5 -184t-72.5 -184t-185.5 -74 t-185.5 74t-72.5 184t72.5 184t185.5 74zM576 1604q-40 0 -65 -25.5t-25 -72.5t25 -72.5t65 -25.5t65 25.5t25 72.5t-25 72.5t-65 25.5z" />
<glyph unicode="&#x16f;" d="M576 1636q113 0 185.5 -74t72.5 -184t-72.5 -184t-185.5 -74t-185.5 74t-72.5 184t72.5 184t185.5 74zM576 1476q-40 0 -65 -25.5t-25 -72.5t25 -72.5t65 -25.5t65 25.5t25 72.5t-25 72.5t-65 25.5zM481 -16q-107 0 -173 107q-24 40 -36.5 92t-14 86.5t-1.5 97.5v657h256 v-657q0 -81 15 -109q19 -34 49 -34t49 34q15 28 15 109v657h256v-1024h-256v62h-7q-28 -36 -69 -57t-83 -21z" />
<glyph unicode="&#x170;" d="M640 1536l152 256h246l-180 -256h-218zM256 1536l152 256h246l-180 -256h-218zM128 1408h256v-896q0 -94 7 -128q15 -72 64.5 -116t120.5 -44t120.5 44t64.5 116q7 34 7 128v896h256v-896q0 -141 -16 -209q-34 -141 -151.5 -230t-280.5 -89t-280.5 89t-151.5 230 q-16 68 -16 209v896z" />
<glyph unicode="&#x171;" d="M640 1152l152 256h246l-180 -256h-218zM256 1152l152 256h246l-180 -256h-218zM481 -16q-107 0 -173 107q-24 40 -36.5 92t-14 86.5t-1.5 97.5v657h256v-657q0 -81 15 -109q19 -34 49 -34t49 34q15 28 15 109v657h256v-1024h-256v62h-7q-28 -36 -69 -57t-83 -21z" />
<glyph unicode="&#x172;" d="M589 -190q27 0 51 3v-158q-33 -5 -84 -5q-69 0 -129 46.5t-60 118.5q0 97 121 176q-132 22 -223.5 106.5t-120.5 205.5q-16 68 -16 209v896h256v-896q0 -94 7 -128q15 -72 64.5 -116t120.5 -44t120.5 44t64.5 116q7 34 7 128v896h256v-896q0 -141 -16 -209 q-29 -120 -120 -204t-221 -107q-129 -44 -129 -130q0 -26 15.5 -39t35.5 -13z" />
<glyph unicode="&#x173;" d="M825 -190q40 0 71 7v-158q-41 -9 -104 -9q-73 0 -136 46.5t-63 118.5q0 103 135 185h-88v62h-7q-28 -36 -69 -57t-83 -21q-107 0 -173 107q-24 40 -36.5 92t-14 86.5t-1.5 97.5v657h256v-657q0 -81 15 -109q19 -34 49 -34t49 34q15 28 15 109v657h256v-1024 q-70 -32 -101 -63.5t-31 -74.5q0 -26 18.5 -39t42.5 -13z" />
<glyph unicode="&#x174;" d="M427 1792h298l227 -256h-248l-128 114l-128 -114h-248zM484 640h184l67 -329h10q34 442 34 1097h254q0 -700 -79 -1408h-284l-89 388h-10l-89 -388h-284q-79 708 -79 1408h254q0 -655 34 -1097h10z" />
<glyph unicode="&#x175;" d="M427 1408h298l227 -256h-248l-128 114l-128 -114h-248zM668 640l84 -390h10q33 343 33 774h248q0 -511 -109 -1024h-274l-79 350h-10l-79 -350h-274q-109 513 -109 1024h248q0 -431 33 -774h10l84 390h184z" />
<glyph unicode="&#x176;" d="M427 1792h298l227 -256h-248l-128 114l-128 -114h-248zM581 851q148 340 200 557h271q-78 -239 -160 -432.5t-188 -359.5v-616h-256v616q-106 166 -188 359.5t-160 432.5h271q8 -37 19.5 -77t28 -87t28 -79.5t33.5 -88t30.5 -77t33 -81t27.5 -67.5h10z" />
<glyph unicode="&#x177;" d="M427 1408h298l227 -256h-248l-128 114l-128 -114h-248zM582 343q84 318 139 681h256q-43 -269 -85 -463t-118 -433q-21 -66 -35 -104.5t-36 -88.5t-48.5 -83.5t-58.5 -54.5q-39 -24 -68.5 -36.5t-98 -22.5t-173.5 -10v240q73 0 110.5 4.5t63.5 23t38 43t32 77.5q3 8 4 12 h-99q-77 195 -129.5 409t-100.5 487h257q50 -365 140 -681h10z" />
<glyph unicode="&#x178;" d="M800 1806q63 0 102.5 -39.5t39.5 -102.5t-39.5 -102.5t-102.5 -39.5t-102.5 39.5t-39.5 102.5t39.5 102.5t102.5 39.5zM352 1806q63 0 102.5 -39.5t39.5 -102.5t-39.5 -102.5t-102.5 -39.5t-102.5 39.5t-39.5 102.5t39.5 102.5t102.5 39.5zM581 851q148 340 200 557h271 q-78 -239 -160 -432.5t-188 -359.5v-616h-256v616q-106 166 -188 359.5t-160 432.5h271q8 -37 19.5 -77t28 -87t28 -79.5t33.5 -88t30.5 -77t33 -81t27.5 -67.5h10z" />
<glyph unicode="&#x179;" d="M448 1536l142 256h266l-190 -256h-218zM148 1168v240h856v-210l-581 -948v-10h601v-240h-896v212l581 946v10h-561z" />
<glyph unicode="&#x17a;" d="M448 1152l142 256h266l-190 -256h-218zM276 784v240h600v-210l-335 -564v-10h355v-240h-640v212l335 562v10h-315z" />
<glyph unicode="&#x17b;" d="M576 1808q63 0 102.5 -39.5t39.5 -102.5t-39.5 -102.5t-102.5 -39.5t-102.5 39.5t-39.5 102.5t39.5 102.5t102.5 39.5zM148 1168v240h856v-210l-581 -948v-10h601v-240h-896v212l581 946v10h-561z" />
<glyph unicode="&#x17c;" d="M576 1424q63 0 102.5 -39.5t39.5 -102.5t-39.5 -102.5t-102.5 -39.5t-102.5 39.5t-39.5 102.5t39.5 102.5t102.5 39.5zM276 784v240h600v-210l-335 -564v-10h355v-240h-640v212l335 562v10h-315z" />
<glyph unicode="&#x17d;" d="M725 1536h-298l-227 256h248l128 -114l128 114h248zM148 1168v240h856v-210l-581 -948v-10h601v-240h-896v212l581 946v10h-561z" />
<glyph unicode="&#x17e;" d="M725 1152h-298l-227 256h248l128 -114l128 114h248zM276 784v240h600v-210l-335 -564v-10h355v-240h-640v212l335 562v10h-315z" />
<glyph unicode="&#x17f;" d="M704 0h-256v656h-256v240h256v233q0 36 2.5 60.5t17.5 65.5t45 74q40 45 110.5 70t159.5 25q85 0 177 -6v-240q-103 5 -158 5q-23 0 -37 -2.5t-30 -11t-23.5 -28.5t-7.5 -52v-1089z" />
<glyph unicode="&#x189;" d="M784 704q0 238 -57 336q-75 128 -232 128h-111v-344h192v-240h-192v-344h111q157 0 232 128q57 96 57 336zM474 1408q322 0 469 -237q57 -90 77 -204t20 -263t-20 -263t-77 -204q-147 -237 -469 -237h-346v1408h346z" />
<glyph unicode="&#x18f;" d="M369 588q6 -128 28 -206q46 -158 179 -158t179 158q22 78 28 206h-414zM781 828q-4 66 -15 126q-45 230 -270 230q-113 0 -348 -21v240q191 21 351 21q211 0 337 -102t173 -278q31 -122 31 -340q0 -238 -28 -349q-40 -162 -151 -266.5t-285 -104.5q-173 0 -284 104 t-152 267q-19 75 -23.5 172t-4.5 301h669z" />
<glyph unicode="&#x1ea;" d="M112 704q0 238 28 349q40 162 151 266.5t285 104.5t285 -104.5t151 -266.5q28 -111 28 -349t-28 -349q-34 -142 -124.5 -241t-230.5 -123q-63 -11 -96 -49t-33 -84q0 -26 18.5 -39t42.5 -13q40 0 71 7v-158q-41 -9 -104 -9q-73 0 -136 46.5t-63 118.5q0 100 129 181 q-136 26 -224 125t-122 238q-28 111 -28 349zM368 704q0 -176 15 -258q18 -97 66.5 -159.5t126.5 -62.5t126.5 62.5t66.5 159.5q15 83 15 258q0 176 -15 258q-18 97 -66.5 159.5t-126.5 62.5t-126.5 -62.5t-66.5 -159.5q-15 -82 -15 -258z" />
<glyph unicode="&#x1eb;" d="M576 800q-51 0 -76 -69q-20 -55 -20 -219t20 -219q25 -69 76 -69t76 69q20 55 20 219t-20 219q-25 69 -76 69zM576 1040q93 0 166.5 -42.5t120.5 -117.5q39 -64 52 -151.5t13 -216.5t-13 -216.5t-52 -151.5q-61 -99 -161 -137q-130 -50 -130 -145q0 -26 18.5 -39 t42.5 -13q40 0 71 7v-158q-41 -9 -104 -9q-73 0 -136 46.5t-63 118.5q0 97 117 174q-149 24 -229 155q-39 64 -52 151.5t-13 216.5t13 216.5t52 151.5q47 75 120.5 117.5t166.5 42.5z" />
<glyph unicode="&#x200;" d="M516 1536h-218l-180 256h246zM900 1536h-218l-180 256h246zM721 512q-58 377 -140 679h-10q-81 -299 -140 -679h290zM378 1408h396q172 -538 273 -1408h-259q-12 138 -33 272h-358q-21 -134 -33 -272h-259q101 870 273 1408z" />
<glyph unicode="&#x201;" d="M516 1152h-218l-180 256h246zM900 1152h-218l-180 256h246zM640 421h-68q-49 0 -70.5 -28.5t-21.5 -89.5q0 -34 16 -56.5t46 -22.5q34 0 55.5 17t30 48.5t10.5 53.5t2 55v23zM608 1040q86 0 151 -26.5t107 -100.5q30 -53 30 -164v-749h-256v53h-10q-56 -69 -142 -69 q-106 0 -185 91t-79 226q0 147 88 242q32 34 68.5 55.5t75 29.5t62 10t56.5 2h66v104q0 20 -17 37.5t-44 17.5q-92 0 -259 -19v241q165 19 288 19z" />
<glyph unicode="&#x202;" d="M424 1536h-208q0 123 103.5 197.5t256.5 74.5t256.5 -74.5t103.5 -197.5h-208q0 41 -39 66.5t-113 25.5t-113 -25.5t-39 -66.5zM721 512q-58 377 -140 679h-10q-81 -299 -140 -679h290zM378 1408h396q172 -538 273 -1408h-259q-12 138 -33 272h-358q-21 -134 -33 -272 h-259q101 870 273 1408z" />
<glyph unicode="&#x203;" d="M424 1152h-208q0 123 103.5 197.5t256.5 74.5t256.5 -74.5t103.5 -197.5h-208q0 41 -39 66.5t-113 25.5t-113 -25.5t-39 -66.5zM640 421h-68q-49 0 -70.5 -28.5t-21.5 -89.5q0 -34 16 -56.5t46 -22.5q34 0 55.5 17t30 48.5t10.5 53.5t2 55v23zM608 1040q86 0 151 -26.5 t107 -100.5q30 -53 30 -164v-749h-256v53h-10q-56 -69 -142 -69q-106 0 -185 91t-79 226q0 147 88 242q32 34 68.5 55.5t75 29.5t62 10t56.5 2h66v104q0 20 -17 37.5t-44 17.5q-92 0 -259 -19v241q165 19 288 19z" />
<glyph unicode="&#x204;" d="M516 1536h-218l-180 256h246zM900 1536h-218l-180 256h246zM192 1408h768v-240h-512v-340h384v-240h-384v-348h512v-240h-768v1408z" />
<glyph unicode="&#x205;" d="M516 1152h-218l-180 256h246zM900 1152h-218l-180 256h246zM576 1040q116 0 198 -56.5t117 -144.5q17 -43 25.5 -101t10 -102.5t1.5 -123.5v-120h-447q0 -82 15 -115q26 -53 100 -53q109 0 300 20v-239q-182 -21 -300 -21q-124 0 -209 58t-123 151q-26 63 -33 135t-7 184 q0 115 6.5 189.5t30.5 137.5q33 89 115.5 145t199.5 56zM576 800q-17 0 -31 -3.5t-23.5 -13t-16.5 -17t-11.5 -25t-7 -27.5t-4 -33.5t-1.5 -33t-1 -35.5h192q-2 103 -16 136q-20 52 -80 52z" />
<glyph unicode="&#x206;" d="M424 1536h-208q0 123 103.5 197.5t256.5 74.5t256.5 -74.5t103.5 -197.5h-208q0 41 -39 66.5t-113 25.5t-113 -25.5t-39 -66.5zM192 1408h768v-240h-512v-340h384v-240h-384v-348h512v-240h-768v1408z" />
<glyph unicode="&#x207;" d="M424 1152h-208q0 123 103.5 197.5t256.5 74.5t256.5 -74.5t103.5 -197.5h-208q0 41 -39 66.5t-113 25.5t-113 -25.5t-39 -66.5zM576 1040q116 0 198 -56.5t117 -144.5q17 -43 25.5 -101t10 -102.5t1.5 -123.5v-120h-447q0 -82 15 -115q26 -53 100 -53q109 0 300 20v-239 q-182 -21 -300 -21q-124 0 -209 58t-123 151q-26 63 -33 135t-7 184q0 115 6.5 189.5t30.5 137.5q33 89 115.5 145t199.5 56zM576 800q-17 0 -31 -3.5t-23.5 -13t-16.5 -17t-11.5 -25t-7 -27.5t-4 -33.5t-1.5 -33t-1 -35.5h192q-2 103 -16 136q-20 52 -80 52z" />
<glyph unicode="&#x208;" d="M516 1536h-218l-180 256h246zM900 1536h-218l-180 256h246zM960 1408v-240h-256v-928h256v-240h-768v240h256v928h-256v240h768z" />
<glyph unicode="&#x209;" d="M516 1152h-218l-180 256h246zM900 1152h-218l-180 256h246zM512 0v784h-256v240h512v-1024h-256z" />
<glyph unicode="&#x20a;" d="M424 1536h-208q0 123 103.5 197.5t256.5 74.5t256.5 -74.5t103.5 -197.5h-208q0 41 -39 66.5t-113 25.5t-113 -25.5t-39 -66.5zM960 1408v-240h-256v-928h256v-240h-768v240h256v928h-256v240h768z" />
<glyph unicode="&#x20b;" d="M424 1152h-208q0 123 103.5 197.5t256.5 74.5t256.5 -74.5t103.5 -197.5h-208q0 41 -39 66.5t-113 25.5t-113 -25.5t-39 -66.5zM512 0v784h-256v240h512v-1024h-256z" />
<glyph unicode="&#x20c;" d="M516 1536h-218l-180 256h246zM900 1536h-218l-180 256h246zM368 704q0 -176 15 -258q18 -97 66.5 -159.5t126.5 -62.5t126.5 62.5t66.5 159.5q15 83 15 258q0 176 -15 258q-18 97 -66.5 159.5t-126.5 62.5t-126.5 -62.5t-66.5 -159.5q-15 -82 -15 -258zM112 704 q0 238 28 349q40 162 151 266.5t285 104.5t285 -104.5t151 -266.5q28 -111 28 -349t-28 -349q-40 -162 -151 -266.5t-285 -104.5t-285 104.5t-151 266.5q-28 111 -28 349z" />
<glyph unicode="&#x20d;" d="M516 1152h-218l-180 256h246zM900 1152h-218l-180 256h246zM576 1040q93 0 166.5 -42.5t120.5 -117.5q39 -64 52 -151.5t13 -216.5t-13 -216.5t-52 -151.5q-47 -75 -120.5 -117.5t-166.5 -42.5t-166.5 42.5t-120.5 117.5q-39 64 -52 151.5t-13 216.5t13 216.5t52 151.5 q47 75 120.5 117.5t166.5 42.5zM576 800q-51 0 -76 -69q-20 -55 -20 -219t20 -219q25 -69 76 -69t76 69q20 55 20 219t-20 219q-25 69 -76 69z" />
<glyph unicode="&#x20e;" d="M424 1536h-208q0 123 103.5 197.5t256.5 74.5t256.5 -74.5t103.5 -197.5h-208q0 41 -39 66.5t-113 25.5t-113 -25.5t-39 -66.5zM368 704q0 -176 15 -258q18 -97 66.5 -159.5t126.5 -62.5t126.5 62.5t66.5 159.5q15 83 15 258q0 176 -15 258q-18 97 -66.5 159.5 t-126.5 62.5t-126.5 -62.5t-66.5 -159.5q-15 -82 -15 -258zM112 704q0 238 28 349q40 162 151 266.5t285 104.5t285 -104.5t151 -266.5q28 -111 28 -349t-28 -349q-40 -162 -151 -266.5t-285 -104.5t-285 104.5t-151 266.5q-28 111 -28 349z" />
<glyph unicode="&#x20f;" d="M424 1152h-208q0 123 103.5 197.5t256.5 74.5t256.5 -74.5t103.5 -197.5h-208q0 41 -39 66.5t-113 25.5t-113 -25.5t-39 -66.5zM576 1040q93 0 166.5 -42.5t120.5 -117.5q39 -64 52 -151.5t13 -216.5t-13 -216.5t-52 -151.5q-47 -75 -120.5 -117.5t-166.5 -42.5 t-166.5 42.5t-120.5 117.5q-39 64 -52 151.5t-13 216.5t13 216.5t52 151.5q47 75 120.5 117.5t166.5 42.5zM576 800q-51 0 -76 -69q-20 -55 -20 -219t20 -219q25 -69 76 -69t76 69q20 55 20 219t-20 219q-25 69 -76 69z" />
<glyph unicode="&#x210;" d="M516 1536h-218l-180 256h246zM900 1536h-218l-180 256h246zM448 1168v-408h62q86 0 125 8q67 14 108 67t41 129t-41 129t-108 67q-40 8 -125 8h-62zM192 1408h316q148 0 211 -15q142 -34 231.5 -148.5t89.5 -280.5q0 -125 -52.5 -222.5t-142.5 -154.5l220 -587h-272 l-186 521q-30 -1 -99 -1h-60v-520h-256v1408z" />
<glyph unicode="&#x211;" d="M516 1152h-218l-180 256h246zM900 1152h-218l-180 256h246zM716 800q-83 0 -133 -53q-25 -28 -40.5 -61.5t-21.5 -75t-7.5 -67t-1.5 -68.5v-475h-256v1024h256v-109h10q40 61 87.5 93t116.5 32q70 0 170 -13v-240q-106 13 -180 13z" />
<glyph unicode="&#x212;" d="M424 1536h-208q0 123 103.5 197.5t256.5 74.5t256.5 -74.5t103.5 -197.5h-208q0 41 -39 66.5t-113 25.5t-113 -25.5t-39 -66.5zM448 1168v-408h62q86 0 125 8q67 14 108 67t41 129t-41 129t-108 67q-40 8 -125 8h-62zM192 1408h316q148 0 211 -15q142 -34 231.5 -148.5 t89.5 -280.5q0 -125 -52.5 -222.5t-142.5 -154.5l220 -587h-272l-186 521q-30 -1 -99 -1h-60v-520h-256v1408z" />
<glyph unicode="&#x213;" d="M424 1152h-208q0 123 103.5 197.5t256.5 74.5t256.5 -74.5t103.5 -197.5h-208q0 41 -39 66.5t-113 25.5t-113 -25.5t-39 -66.5zM716 800q-83 0 -133 -53q-25 -28 -40.5 -61.5t-21.5 -75t-7.5 -67t-1.5 -68.5v-475h-256v1024h256v-109h10q40 61 87.5 93t116.5 32 q70 0 170 -13v-240q-106 13 -180 13z" />
<glyph unicode="&#x214;" d="M516 1536h-218l-180 256h246zM900 1536h-218l-180 256h246zM128 1408h256v-896q0 -94 7 -128q15 -72 64.5 -116t120.5 -44t120.5 44t64.5 116q7 34 7 128v896h256v-896q0 -141 -16 -209q-34 -141 -151.5 -230t-280.5 -89t-280.5 89t-151.5 230q-16 68 -16 209v896z" />
<glyph unicode="&#x215;" d="M516 1152h-218l-180 256h246zM900 1152h-218l-180 256h246zM481 -16q-107 0 -173 107q-24 40 -36.5 92t-14 86.5t-1.5 97.5v657h256v-657q0 -81 15 -109q19 -34 49 -34t49 34q15 28 15 109v657h256v-1024h-256v62h-7q-28 -36 -69 -57t-83 -21z" />
<glyph unicode="&#x216;" d="M424 1536h-208q0 123 103.5 197.5t256.5 74.5t256.5 -74.5t103.5 -197.5h-208q0 41 -39 66.5t-113 25.5t-113 -25.5t-39 -66.5zM128 1408h256v-896q0 -94 7 -128q15 -72 64.5 -116t120.5 -44t120.5 44t64.5 116q7 34 7 128v896h256v-896q0 -141 -16 -209 q-34 -141 -151.5 -230t-280.5 -89t-280.5 89t-151.5 230q-16 68 -16 209v896z" />
<glyph unicode="&#x217;" d="M424 1152h-208q0 123 103.5 197.5t256.5 74.5t256.5 -74.5t103.5 -197.5h-208q0 41 -39 66.5t-113 25.5t-113 -25.5t-39 -66.5zM481 -16q-107 0 -173 107q-24 40 -36.5 92t-14 86.5t-1.5 97.5v657h256v-657q0 -81 15 -109q19 -34 49 -34t49 34q15 28 15 109v657h256 v-1024h-256v62h-7q-28 -36 -69 -57t-83 -21z" />
<glyph unicode="&#x218;" d="M652 -315q-67 -85 -204 -85v190q33 0 45.5 20.5t12.5 61.5h198q0 -38 -1.5 -60.5t-14 -59t-36.5 -67.5zM556 -16q-164 0 -370 32v244q241 -36 370 -36q178 0 178 190q0 53 -25.5 100.5t-71.5 65.5q-29 11 -80 18t-104.5 20.5t-102.5 42.5q-188 112 -188 354 q0 173 110.5 291t283.5 118q135 0 370 -25v-241q-243 26 -370 26q-38 0 -66.5 -17t-43.5 -44t-21.5 -55t-6.5 -55q0 -118 80 -154q26 -12 118.5 -26.5t149.5 -44.5q80 -41 132 -106t72 -131t20 -137q0 -194 -120 -312t-314 -118z" />
<glyph unicode="&#x219;" d="M652 -315q-67 -85 -204 -85v190q33 0 45.5 20.5t12.5 61.5h198q0 -38 -1.5 -60.5t-14 -59t-36.5 -67.5zM567 -16q-115 0 -311 22v240q187 -22 311 -22q56 0 80.5 30t24.5 62q0 33 -15 54.5t-40 26.5q-18 4 -63 9.5t-83.5 15t-75.5 28.5q-69 36 -115 106t-46 163 q0 44 13 88.5t40.5 86.5t66.5 74.5t95.5 52t122.5 19.5q111 0 314 -21v-240q-205 21 -314 21q-42 0 -62 -26.5t-20 -52.5q0 -41 19 -64.5t47 -27.5q13 -2 50.5 -6.5t58.5 -8.5t53.5 -13.5t60.5 -26t54 -41.5q95 -89 95 -215q0 -64 -23 -123t-66 -106.5t-113.5 -76 t-158.5 -28.5z" />
<glyph unicode="&#x21a;" d="M652 -315q-67 -85 -204 -85v190q33 0 45.5 20.5t12.5 61.5h198q0 -38 -1.5 -60.5t-14 -59t-36.5 -67.5zM1024 1408v-240h-320v-1168h-256v1168h-320v240h896z" />
<glyph unicode="&#x21b;" d="M780 -315q-67 -85 -204 -85v190q33 0 45.5 20.5t12.5 61.5h198q0 -38 -1.5 -60.5t-14 -59t-36.5 -67.5zM960 -1q-107 -15 -192 -15q-80 0 -145.5 29t-106.5 79q-32 38 -48 89t-18 85t-2 94v418h-256v246h256v256h256v-256h256v-246h-256v-408q0 -74 15.5 -110t58.5 -36 q71 0 182 15v-240z" />
<glyph unicode="&#x237;" d="M512 160v624h-246v240h502v-864q0 -171 -61 -273q-95 -159 -299 -159q-116 0 -236 15v240q135 -15 236 -15q38 0 62.5 29.5t33 70t8.5 92.5z" />
<glyph unicode="&#x259;" d="M576 -16q-116 0 -198 56.5t-117 144.5q-17 43 -25.5 101t-10 102.5t-1.5 123.5v120h447q0 82 -15 115q-26 53 -100 53q-109 0 -300 -20v239q182 21 300 21q124 0 209 -58t123 -151q26 -63 33 -135t7 -184q0 -115 -6.5 -189.5t-30.5 -137.5q-33 -89 -115.5 -145 t-199.5 -56zM576 224q17 0 31 3.5t23.5 13t16.5 17t11.5 25t7 27.5t4 33.5t1.5 33t1 35.5h-192q2 -103 16 -136q20 -52 80 -52z" />
<glyph unicode="&#x25b;" d="M369 523v10q-133 63 -133 214q0 124 97.5 208.5t253.5 84.5q120 0 291 -16v-240q-194 16 -291 16q-45 0 -70 -22.5t-25 -53.5q0 -84 139 -84h139v-240h-138q-150 0 -150 -92q0 -39 29 -61.5t77 -22.5q132 0 310 10v-240q-173 -10 -310 -10q-158 0 -260 85t-102 219 q0 166 143 235z" />
<glyph unicode="&#x25c;" d="M785 523q143 -69 143 -235q0 -134 -102 -219t-260 -85q-137 0 -310 10v240q178 -10 310 -10q48 0 77 22.5t29 61.5q0 92 -150 92h-138v240h139q139 0 139 84q0 31 -25 53.5t-70 22.5q-97 0 -291 -16v240q171 16 291 16q156 0 253.5 -84.5t97.5 -208.5q0 -151 -133 -214 v-10z" />
<glyph unicode="&#x2bb;" d="M500 1467q67 85 204 85v-190q-33 0 -45.5 -20.5t-12.5 -61.5h-198q0 38 1.5 60.5t14 59t36.5 67.5z" />
<glyph unicode="&#x2bc;" d="M652 1349q-67 -85 -204 -85v190q33 0 45.5 20.5t12.5 61.5h198q0 -38 -1.5 -60.5t-14 -59t-36.5 -67.5z" />
<glyph unicode="&#x300;" d="M704 1280h-218l-190 256h266z" />
<glyph unicode="&#x301;" d="M448 1280l142 256h266l-190 -256h-218z" />
<glyph unicode="&#x302;" d="M427 1536h298l227 -256h-248l-128 114l-128 -114h-248z" />
<glyph unicode="&#x303;" d="M498 1342q-43 0 -47 -63l-198 6q3 104 53.5 175.5t141.5 71.5q50 0 88.5 -14.5t66 -29t51.5 -14.5q43 0 47 63l198 -6q-2 -103 -53 -175t-142 -72q-50 0 -88.5 14.5t-66 29t-51.5 14.5z" />
<glyph unicode="&#x304;" d="M256 1484h640v-200h-640v200z" />
<glyph unicode="&#x306;" d="M728 1536h208q0 -123 -103.5 -197.5t-256.5 -74.5t-256.5 74.5t-103.5 197.5h208q0 -41 39 -66.5t113 -25.5t113 25.5t39 66.5z" />
<glyph unicode="&#x307;" d="M576 1552q63 0 102.5 -39.5t39.5 -102.5t-39.5 -102.5t-102.5 -39.5t-102.5 39.5t-39.5 102.5t39.5 102.5t102.5 39.5z" />
<glyph unicode="&#x308;" d="M800 1550q63 0 102.5 -39.5t39.5 -102.5t-39.5 -102.5t-102.5 -39.5t-102.5 39.5t-39.5 102.5t39.5 102.5t102.5 39.5zM352 1550q63 0 102.5 -39.5t39.5 -102.5t-39.5 -102.5t-102.5 -39.5t-102.5 39.5t-39.5 102.5t39.5 102.5t102.5 39.5z" />
<glyph unicode="&#x30a;" d="M576 1508q113 0 185.5 -74t72.5 -184t-72.5 -184t-185.5 -74t-185.5 74t-72.5 184t72.5 184t185.5 74zM576 1348q-40 0 -65 -25.5t-25 -72.5t25 -72.5t65 -25.5t65 25.5t25 72.5t-25 72.5t-65 25.5z" />
<glyph unicode="&#x30b;" d="M640 1280l152 256h246l-180 -256h-218zM256 1280l152 256h246l-180 -256h-218z" />
<glyph unicode="&#x30c;" d="M725 1280h-298l-227 256h248l128 -114l128 114h248z" />
<glyph unicode="&#x30f;" d="M516 1280h-218l-180 256h246zM900 1280h-218l-180 256h246z" />
<glyph unicode="&#x311;" d="M424 1280h-208q0 123 103.5 197.5t256.5 74.5t256.5 -74.5t103.5 -197.5h-208q0 41 -39 66.5t-113 25.5t-113 -25.5t-39 -66.5z" />
<glyph unicode="&#x312;" d="M500 1467q67 85 204 85v-190q-33 0 -45.5 -20.5t-12.5 -61.5h-198q0 38 1.5 60.5t14 59t36.5 67.5z" />
<glyph unicode="&#x315;" d="M448 1536h256v-384h-256v384z" />
<glyph unicode="&#x326;" d="M652 -315q-67 -85 -204 -85v190q33 0 45.5 20.5t12.5 61.5h198q0 -38 -1.5 -60.5t-14 -59t-36.5 -67.5z" />
<glyph unicode="&#x327;" d="M640 23q0 -41 -1.5 -65t-14 -63.5t-36.5 -71.5q-71 -95 -194 -95q-53 0 -138 10v180q73 -10 118 -10q47 0 64 32q14 27 14 83h188z" />
<glyph unicode="&#x328;" d="M704 0q-70 -32 -101 -63.5t-31 -74.5q0 -26 18.5 -39t42.5 -13q40 0 71 7v-158q-41 -9 -104 -9q-73 0 -136 46.5t-63 118.5q0 103 135 185h168z" />
<glyph unicode="&#x329;" d="M512 -128h128v-256h-128v256z" />
<glyph unicode="&#x384;" d="M842 1311l-206 -227l-188 158l186 244z" />
<glyph unicode="&#x385;" d="M795 1458l-206 -227l-131 109l186 244zM880 1336q58 0 95 -37t37 -95t-37 -95t-95 -37t-95 37t-37 95t37 95t95 37zM272 1336q58 0 95 -37t37 -95t-37 -95t-95 -37t-95 37t-37 95t37 95t95 37z" />
<glyph unicode="&#x386;" d="M266 1469l-206 -227l-188 158l186 244zM721 512q-58 377 -140 679h-10q-81 -299 -140 -679h290zM378 1408h396q172 -538 273 -1408h-259q-12 138 -33 272h-358q-21 -134 -33 -272h-259q101 870 273 1408z" />
<glyph unicode="&#x388;" d="M266 1469l-206 -227l-188 158l186 244zM256 1408h768v-240h-512v-340h384v-240h-384v-348h512v-240h-768v1408z" />
<glyph unicode="&#x389;" d="M256 1408h256v-588h256v588h256v-1408h-256v580h-256v-580h-256v1408zM266 1469l-206 -227l-188 158l186 244z" />
<glyph unicode="&#x38a;" d="M266 1469l-206 -227l-188 158l186 244zM1024 1408v-240h-192v-928h192v-240h-640v240h192v928h-192v240h640z" />
<glyph unicode="&#x38c;" d="M266 1469l-206 -227l-188 158l186 244zM368 704q0 -176 15 -258q18 -97 66.5 -159.5t126.5 -62.5t126.5 62.5t66.5 159.5q15 83 15 258q0 176 -15 258q-18 97 -66.5 159.5t-126.5 62.5t-126.5 -62.5t-66.5 -159.5q-15 -82 -15 -258zM112 704q0 238 28 349 q40 162 151 266.5t285 104.5t285 -104.5t151 -266.5q28 -111 28 -349t-28 -349q-40 -162 -151 -266.5t-285 -104.5t-285 104.5t-151 266.5q-28 111 -28 349z" />
<glyph unicode="&#x38e;" d="M581 851q148 340 200 557h271q-78 -239 -160 -432.5t-188 -359.5v-616h-256v616q-174 273 -319 703l-69 -77l-188 158l186 244l208 -175l-56 -61h161q8 -37 19.5 -77t28 -87t28 -79.5t33.5 -88t30.5 -77t33 -81t27.5 -67.5h10z" />
<glyph unicode="&#x38f;" d="M266 1469l-206 -227l-188 158l186 244zM1040 832q0 -224 -42 -350q-39 -119 -138 -234v-9h164v-239h-384v219q94 154 118 285q27 148 27 328q0 120 -20 192q-21 75 -68 117.5t-121 42.5t-121 -42.5t-68 -117.5q-20 -72 -20 -192q0 -180 27 -328q24 -131 118 -285v-219 h-384v239h164v9q-99 115 -138 234q-42 126 -42 350q0 180 37 292q45 136 155.5 218t271.5 82t271.5 -82t155.5 -218q37 -112 37 -292z" />
<glyph unicode="&#x390;" d="M795 1522l-206 -227l-131 109l186 244zM880 1400q58 0 95 -37t37 -95t-37 -95t-95 -37t-95 37t-37 95t37 95t95 37zM272 1400q58 0 95 -37t37 -95t-37 -95t-95 -37t-95 37t-37 95t37 95t95 37zM832 -2q-76 -14 -138 -14q-107 0 -173 68q-34 35 -51 81.5t-19.5 74 t-2.5 71.5v745h256v-725q0 -68 46 -68q36 0 82 8v-241z" />
<glyph unicode="&#x391;" d="M721 512q-58 377 -140 679h-10q-81 -299 -140 -679h290zM378 1408h396q172 -538 273 -1408h-259q-12 138 -33 272h-358q-21 -134 -33 -272h-259q101 870 273 1408z" />
<glyph unicode="&#x392;" d="M492 828q75 0 98 6q54 13 86.5 56.5t32.5 107.5q0 63 -33 107t-86 56q-32 7 -98 7h-44v-340h44zM805 728q103 -30 160.5 -122.5t57.5 -221.5q0 -140 -73.5 -239.5t-190.5 -128.5q-64 -16 -213 -16h-354v1408h300q129 0 184 -13q123 -29 201 -127t78 -240 q0 -211 -150 -290v-10zM448 588v-348h99q90 0 120 8q50 13 80 57.5t30 108.5t-30 109t-80 57q-34 8 -120 8h-99z" />
<glyph unicode="&#x393;" d="M256 1408h768v-240h-512v-1168h-256v1408z" />
<glyph unicode="&#x394;" d="M581 1191h-10q-106 -389 -178 -951h366q-72 561 -178 951zM105 0q101 870 273 1408h396q172 -538 273 -1408h-942z" />
<glyph unicode="&#x395;" d="M192 1408h768v-240h-512v-340h384v-240h-384v-348h512v-240h-768v1408z" />
<glyph unicode="&#x396;" d="M148 1168v240h856v-210l-581 -948v-10h601v-240h-896v212l581 946v10h-561z" />
<glyph unicode="&#x397;" d="M128 1408h256v-588h384v588h256v-1408h-256v580h-384v-580h-256v1408z" />
<glyph unicode="&#x398;" d="M448 828h256v-240h-256v240zM368 704q0 -176 15 -258q18 -97 66.5 -159.5t126.5 -62.5t126.5 62.5t66.5 159.5q15 83 15 258q0 176 -15 258q-18 97 -66.5 159.5t-126.5 62.5t-126.5 -62.5t-66.5 -159.5q-15 -82 -15 -258zM112 704q0 238 28 349q40 162 151 266.5 t285 104.5t285 -104.5t151 -266.5q28 -111 28 -349t-28 -349q-40 -162 -151 -266.5t-285 -104.5t-285 104.5t-151 266.5q-28 111 -28 349z" />
<glyph unicode="&#x399;" d="M896 1408v-240h-192v-928h192v-240h-640v240h192v928h-192v240h640z" />
<glyph unicode="&#x39a;" d="M384 0h-256v1408h256v-550l296 550h289l-335 -590l428 -818h-287l-313 611l-78 -132v-479z" />
<glyph unicode="&#x39b;" d="M581 1191h-10q-124 -456 -207 -1191h-259q101 870 273 1408h396q172 -538 273 -1408h-259q-82 731 -207 1191z" />
<glyph unicode="&#x39c;" d="M384 0h-256v1408h256l187 -438h11l186 438h256v-1408h-256v896h-10l-127 -256h-110l-127 260h-10v-900z" />
<glyph unicode="&#x39d;" d="M384 0h-256v1408h255l375 -898h10v898h256v-1408h-256l-374 898h-10v-898z" />
<glyph unicode="&#x39e;" d="M128 1408h896v-240h-896v240zM128 240h896v-240h-896v240zM256 824h640v-240h-640v240z" />
<glyph unicode="&#x39f;" d="M368 704q0 -176 15 -258q18 -97 66.5 -159.5t126.5 -62.5t126.5 62.5t66.5 159.5q15 83 15 258q0 176 -15 258q-18 97 -66.5 159.5t-126.5 62.5t-126.5 -62.5t-66.5 -159.5q-15 -82 -15 -258zM112 704q0 238 28 349q40 162 151 266.5t285 104.5t285 -104.5t151 -266.5 q28 -111 28 -349t-28 -349q-40 -162 -151 -266.5t-285 -104.5t-285 104.5t-151 266.5q-28 111 -28 349z" />
<glyph unicode="&#x3a0;" d="M192 1408h768v-1408h-256v1168h-256v-1168h-256v1408z" />
<glyph unicode="&#x3a1;" d="M384 1168v-408h126q86 0 125 8q68 14 108.5 67t40.5 129t-40.5 129t-108.5 67q-39 8 -125 8h-126zM128 1408h380q148 0 211 -15q142 -34 231.5 -148.5t89.5 -280.5t-89.5 -280.5t-231.5 -148.5q-63 -15 -211 -15h-124v-520h-256v1408z" />
<glyph unicode="&#x3a3;" d="M489 709l-297 477v222h768v-240h-493v-10l253 -406v-96l-253 -406v-10h493v-240h-768v222l297 477v10z" />
<glyph unicode="&#x3a4;" d="M1024 1408v-240h-320v-1168h-256v1168h-320v240h896z" />
<glyph unicode="&#x3a5;" d="M581 851q148 340 200 557h271q-78 -239 -160 -432.5t-188 -359.5v-616h-256v616q-106 166 -188 359.5t-160 432.5h271q8 -37 19.5 -77t28 -87t28 -79.5t33.5 -88t30.5 -77t33 -81t27.5 -67.5h10z" />
<glyph unicode="&#x3a6;" d="M112 704q0 176 33 284q35 112 112 189t191 105v126h256v-126q114 -28 191 -105t112 -189q33 -108 33 -284t-33 -284q-35 -112 -112 -189t-191 -105v-105h-256v105q-114 28 -191 105t-112 189q-33 108 -33 284zM368 704q0 -152 32 -240.5t112 -106.5v694 q-80 -18 -112 -106.5t-32 -240.5zM640 357q80 18 112 106.5t32 240.5t-32 240.5t-112 106.5v-694z" />
<glyph unicode="&#x3a7;" d="M571 944h10l183 464h267l-301 -687v-10l333 -711h-268l-214 498h-10l-214 -498h-268l333 711v10l-301 687h267z" />
<glyph unicode="&#x3a8;" d="M704 0h-256v378q-112 19 -189.5 76t-109.5 149q-21 61 -21 165v640h256v-640q0 -78 31.5 -115t96.5 -43v798h128v-798q65 6 96.5 43t31.5 115v640h256v-640q0 -104 -21 -165q-32 -92 -109.5 -149t-189.5 -76v-378z" />
<glyph unicode="&#x3a9;" d="M1040 832q0 -224 -42 -350q-39 -119 -138 -234v-9h164v-239h-384v219q94 154 118 285q27 148 27 328q0 120 -20 192q-21 75 -68 117.5t-121 42.5t-121 -42.5t-68 -117.5q-20 -72 -20 -192q0 -180 27 -328q24 -131 118 -285v-219h-384v239h164v9q-99 115 -138 234 q-42 126 -42 350q0 180 37 292q45 136 155.5 218t271.5 82t271.5 -82t155.5 -218q37 -112 37 -292z" />
<glyph unicode="&#x3aa;" d="M800 1806q63 0 102.5 -39.5t39.5 -102.5t-39.5 -102.5t-102.5 -39.5t-102.5 39.5t-39.5 102.5t39.5 102.5t102.5 39.5zM352 1806q63 0 102.5 -39.5t39.5 -102.5t-39.5 -102.5t-102.5 -39.5t-102.5 39.5t-39.5 102.5t39.5 102.5t102.5 39.5zM896 1408v-240h-192v-928h192 v-240h-640v240h192v928h-192v240h640z" />
<glyph unicode="&#x3ab;" d="M800 1806q63 0 102.5 -39.5t39.5 -102.5t-39.5 -102.5t-102.5 -39.5t-102.5 39.5t-39.5 102.5t39.5 102.5t102.5 39.5zM352 1806q63 0 102.5 -39.5t39.5 -102.5t-39.5 -102.5t-102.5 -39.5t-102.5 39.5t-39.5 102.5t39.5 102.5t102.5 39.5zM581 851q148 340 200 557h271 q-78 -239 -160 -432.5t-188 -359.5v-616h-256v616q-106 166 -188 359.5t-160 432.5h271q8 -37 19.5 -77t28 -87t28 -79.5t33.5 -88t30.5 -77t33 -81t27.5 -67.5h10z" />
<glyph unicode="&#x3ac;" d="M839 1372l-206 -227l-188 158l186 244zM465 1040q116 0 167 -81h8v65h256v-1024h-256v65h-8q-51 -81 -167 -81q-76 0 -134.5 62.5t-85.5 174.5q-21 90 -21 291t21 291q27 112 85.5 174.5t134.5 62.5zM560 800q-26 0 -44 -30.5t-26 -76.5q-10 -54 -10 -181t10 -181 q8 -46 26 -76.5t44 -30.5t44 30.5t26 76.5q10 54 10 181t-10 181q-8 46 -26 76.5t-44 30.5z" />
<glyph unicode="&#x3ad;" d="M792 1382l-206 -227l-188 158l186 244zM369 523v10q-133 63 -133 214q0 124 97.5 208.5t253.5 84.5q120 0 291 -16v-240q-194 16 -291 16q-45 0 -70 -22.5t-25 -53.5q0 -84 139 -84h139v-240h-138q-150 0 -150 -92q0 -39 29 -61.5t77 -22.5q132 0 310 10v-240 q-173 -10 -310 -10q-158 0 -260 85t-102 219q0 166 143 235z" />
<glyph unicode="&#x3ae;" d="M839 1372l-206 -227l-188 158l186 244zM671 1040q107 0 173 -107q24 -40 36.5 -92t14 -86.5t1.5 -97.5v-1041h-256v1041q0 81 -15 109q-19 34 -49 34t-49 -34q-15 -28 -15 -109v-657h-256v1024h256v-62h7q28 36 69 57t83 21z" />
<glyph unicode="&#x3af;" d="M839 1372l-206 -227l-188 158l186 244zM832 -2q-76 -14 -138 -14q-107 0 -173 68q-34 35 -51 81.5t-19.5 74t-2.5 71.5v745h256v-725q0 -68 46 -68q36 0 82 8v-241z" />
<glyph unicode="&#x3b0;" d="M795 1522l-206 -227l-131 109l186 244zM880 1400q58 0 95 -37t37 -95t-37 -95t-95 -37t-95 37t-37 95t37 95t95 37zM272 1400q58 0 95 -37t37 -95t-37 -95t-95 -37t-95 37t-37 95t37 95t95 37zM256 337v687h256v-687q0 -113 64 -113t64 113v687h256v-687q0 -79 -9 -123 q-21 -103 -103 -166.5t-208 -63.5t-208 63.5t-103 166.5q-9 44 -9 123z" />
<glyph unicode="&#x3b1;" d="M465 1040q116 0 167 -81h8v65h256v-1024h-256v65h-8q-51 -81 -167 -81q-76 0 -134.5 62.5t-85.5 174.5q-21 90 -21 291t21 291q27 112 85.5 174.5t134.5 62.5zM560 800q-26 0 -44 -30.5t-26 -76.5q-10 -54 -10 -181t10 -181q8 -46 26 -76.5t44 -30.5t44 30.5t26 76.5 q10 54 10 181t-10 181q-8 46 -26 76.5t-44 30.5z" />
<glyph unicode="&#x3b2;" d="M770 833q90 -38 124 -133t34 -262q0 -101 -17 -181.5t-52.5 -142.5t-95.5 -96t-141 -34q-44 0 -110 6v-374h-256v1462q0 157 77.5 251.5t228.5 94.5q140 0 225 -92.5t85 -233.5q0 -92 -21.5 -156t-80.5 -99v-10zM512 235q32 -6 80 -6q25 0 42 18.5t24.5 55t10.5 74.5 t3 91q0 75 -9 126.5t-34.5 84.5t-66.5 33v240q54 0 54 128q0 104 -50 104q-31 0 -42.5 -26.5t-11.5 -79.5v-843z" />
<glyph unicode="&#x3b3;" d="M432 1024q56 -385 139 -677h10q83 295 139 677h257q-106 -598 -273 -1024v-384h-256v384q-169 431 -274 1024h258z" />
<glyph unicode="&#x3b4;" d="M576 652q-58 0 -76 -78q-10 -44 -10 -126q0 -86 10 -126q9 -36 29 -57t47 -21t47 21t29 57q10 40 10 126q0 88 -9 126q-8 36 -28 57t-49 21zM928 448q0 -141 -34 -253q-36 -91 -116.5 -151t-181.5 -60q-253 0 -338 211q-22 54 -28 110t-6 143q0 162 30 243 q59 160 241 163v10q-159 116 -159 276q0 131 90.5 207.5t213.5 76.5q52 0 128 -8v-240q-96 8 -128 8q-28 0 -47 -16.5t-19 -47.5q0 -27 18.5 -55t41.5 -48.5t68 -58.5t73 -64q77 -72 115 -171t38 -275z" />
<glyph unicode="&#x3b5;" d="M369 523v10q-133 63 -133 214q0 124 97.5 208.5t253.5 84.5q120 0 291 -16v-240q-194 16 -291 16q-45 0 -70 -22.5t-25 -53.5q0 -84 139 -84h139v-240h-138q-150 0 -150 -92q0 -39 29 -61.5t77 -22.5q132 0 310 10v-240q-173 -10 -310 -10q-158 0 -260 85t-102 219 q0 166 143 235z" />
<glyph unicode="&#x3b6;" d="M480 384q0 -160 137 -160q8 0 30 0.5t34 0.5q105 0 150.5 -56.5t55.5 -159.5q9 -94 9 -265h-229l-10 103q-8 87 -14 103q-13 34 -58 34q-123 0 -206 55t-119 143t-36 204q0 103 31.5 217t83.5 216.5t110 190t121 158.5h-314v240h624v-225q-70 -67 -138 -156t-128 -194 t-97 -223.5t-37 -225.5z" />
<glyph unicode="&#x3b7;" d="M671 1040q107 0 173 -107q24 -40 36.5 -92t14 -86.5t1.5 -97.5v-1041h-256v1041q0 81 -15 109q-19 34 -49 34t-49 -34q-15 -28 -15 -109v-657h-256v1024h256v-62h7q28 36 69 57t83 21z" />
<glyph unicode="&#x3b8;" d="M505 584q0 -202 9 -253q18 -105 62 -105t62 105q9 51 9 253h-142zM576 1182q-44 0 -62 -105q-9 -51 -9 -253h142q0 202 -9 253q-18 105 -62 105zM576 1426q202 0 284 -217q18 -49 27 -135t10.5 -156.5t1.5 -213.5t-1.5 -213.5t-10.5 -156.5t-27 -135q-82 -217 -284 -217 t-284 217q-18 49 -27 135t-10.5 156.5t-1.5 213.5t1.5 213.5t10.5 156.5t27 135q82 217 284 217z" />
<glyph unicode="&#x3b9;" d="M832 -2q-76 -14 -138 -14q-107 0 -173 68q-34 35 -51 81.5t-19.5 74t-2.5 71.5v745h256v-725q0 -68 46 -68q36 0 82 8v-241z" />
<glyph unicode="&#x3ba;" d="M512 0h-256v1024h256v-327l167 327h276l-227 -443l274 -581h-276l-167 353l-47 -98v-255z" />
<glyph unicode="&#x3bb;" d="M603 690h-10q-84 -263 -145 -690h-258q53 300 119 549.5t164 474.5h31q-12 28 -17.5 39l-15.5 31t-16.5 27t-18 20.5t-22.5 17.5t-27 11t-35 8.5t-42.5 3.5t-53.5 2v240q213 0 307 -79q93 -77 160 -248q68 -197 121 -402.5t78 -327t72 -367.5h-256q-66 415 -135 690z" />
<glyph unicode="&#x3bc;" d="M576 -16q-32 0 -54 48h-10v-416h-256v1408h256v-657q0 -70 14 -106.5t50 -36.5t50 37t14 106v657h256v-1024h-256v32h-10q-22 -48 -54 -48z" />
<glyph unicode="&#x3bd;" d="M432 1024q56 -457 139 -807h10q83 351 139 807h258q-77 -589 -204 -1024h-396q-127 435 -204 1024h258z" />
<glyph unicode="&#x3be;" d="M585 -16q-93 0 -163.5 35t-113 97.5t-63.5 142.5t-21 177q0 152 34.5 242t108.5 149v10q-123 91 -123 249q0 149 93.5 243.5t278.5 94.5q108 0 280 -17v-240q-172 17 -280 17q-116 0 -116 -118q0 -56 28.5 -87t80.5 -31h159v-240h-158q-75 0 -102.5 -60t-27.5 -212 q0 -212 137 -212q8 0 30 0.5t34 0.5q105 0 150.5 -56.5t55.5 -159.5q9 -94 9 -265h-229l-10 103q-1 12 -3.5 32.5t-3.5 28.5t-3.5 22.5t-5 20t-7.5 14t-11.5 11.5t-16 5.5t-21.5 2.5z" />
<glyph unicode="&#x3bf;" d="M576 1040q93 0 166.5 -42.5t120.5 -117.5q39 -64 52 -151.5t13 -216.5t-13 -216.5t-52 -151.5q-47 -75 -120.5 -117.5t-166.5 -42.5t-166.5 42.5t-120.5 117.5q-39 64 -52 151.5t-13 216.5t13 216.5t52 151.5q47 75 120.5 117.5t166.5 42.5zM576 800q-51 0 -76 -69 q-20 -55 -20 -219t20 -219q25 -69 76 -69t76 69q20 55 20 219t-20 219q-25 69 -76 69z" />
<glyph unicode="&#x3c0;" d="M896 784v-784h-256v784h-128v-784h-256v784h-128v240h896v-240h-128z" />
<glyph unicode="&#x3c1;" d="M596 800q-15 0 -27 -6t-20.5 -18.5t-14.5 -27t-10 -37t-6.5 -42.5t-3.5 -49.5t-1.5 -51.5t-0.5 -56v-147q4 -66 27.5 -103.5t56.5 -37.5q17 0 30 11t21 33t13.5 46.5t7.5 60.5t3 65.5t1 71.5q0 43 -0.5 72t-3 65.5t-7.5 60.5t-13 46.5t-21.5 33t-30.5 10.5zM596 1040 q109 0 186.5 -59t110.5 -152q22 -65 28.5 -136t6.5 -181q0 -78 -1 -118.5t-8.5 -97t-22.5 -101.5q-31 -90 -95 -146.5t-155 -56.5q-44 0 -70 9.5t-54 29.5h-10v-415h-256v896q0 110 6 181t27 136q30 93 111 152t196 59z" />
<glyph unicode="&#x3c2;" d="M607 224q9 0 34.5 0.5t39.5 0.5q105 0 150.5 -56.5t55.5 -159.5q9 -94 9 -265h-229l-10 103q-1 13 -2.5 29t-2 25.5t-2 22t-3 19t-4 14.5t-5.5 12t-7.5 8t-10.5 5.5t-14 1.5q-248 0 -339 209q-28 63 -35.5 135t-7.5 184t7.5 184t35.5 135q93 209 339 209q113 0 280 -18 v-240q-169 18 -280 18q-43 0 -68.5 -23t-40.5 -70q-17 -52 -17 -195t17 -195q15 -47 40.5 -70t69.5 -23z" />
<glyph unicode="&#x3c3;" d="M576 800q-51 0 -76 -69q-20 -55 -20 -219t20 -219q25 -69 76 -69t76 69q20 55 20 219t-20 219q-25 69 -76 69zM1024 1024v-240h-121q25 -92 25 -272q0 -129 -13 -216.5t-52 -151.5q-47 -75 -120.5 -117.5t-166.5 -42.5t-166.5 42.5t-120.5 117.5q-39 64 -52 151.5 t-13 216.5t13 216.5t52 151.5q47 75 120.5 117.5t166.5 42.5q53 0 106 -16h342z" />
<glyph unicode="&#x3c4;" d="M896 -2q-94 -14 -172 -14q-138 0 -203 68q-34 35 -51 81.5t-19.5 74t-2.5 71.5v505h-320v240h896v-240h-320v-485q0 -32 15.5 -50t60.5 -18q50 0 116 8v-241z" />
<glyph unicode="&#x3c5;" d="M256 337v687h256v-687q0 -113 64 -113t64 113v687h256v-687q0 -79 -9 -123q-21 -103 -103 -166.5t-208 -63.5t-208 63.5t-103 166.5q-9 44 -9 123z" />
<glyph unicode="&#x3c6;" d="M640 230q73 11 103.5 73.5t30.5 208.5q0 150 -30 210t-104 72v-564zM512 794q-74 -12 -104 -72t-30 -210q0 -146 30.5 -208.5t103.5 -73.5v564zM448 1408h256v-387q161 -30 238.5 -148.5t77.5 -360.5q0 -237 -78 -357.5t-238 -151.5v-387h-256v387q-160 31 -238 151.5 t-78 357.5q0 242 77.5 360.5t238.5 148.5v387z" />
<glyph unicode="&#x3c7;" d="M571 622h10l123 402h267l-241 -685v-10l263 -713h-268l-144 450h-10l-144 -450h-268l263 713v10l-241 685h267z" />
<glyph unicode="&#x3c8;" d="M704 -384h-256v378q-112 19 -189.5 76t-109.5 149q-21 61 -21 165v640h256v-640q0 -78 31 -114.5t97 -42.5v1181h128v-1181q66 6 97 42.5t31 114.5v640h256v-640q0 -104 -21 -165q-32 -92 -109.5 -149t-189.5 -76v-378z" />
<glyph unicode="&#x3c9;" d="M571 84q-60 -100 -187 -100q-93 0 -160.5 51t-86.5 132q-9 38 -9 127v730h256v-730q0 -70 64 -70t64 70v474h128v-474q0 -70 64 -70t64 70v730h256v-730q0 -89 -9 -127q-19 -81 -86.5 -132t-160.5 -51q-127 0 -187 100h-10z" />
<glyph unicode="&#x3ca;" d="M800 1422q63 0 102.5 -39.5t39.5 -102.5t-39.5 -102.5t-102.5 -39.5t-102.5 39.5t-39.5 102.5t39.5 102.5t102.5 39.5zM352 1422q63 0 102.5 -39.5t39.5 -102.5t-39.5 -102.5t-102.5 -39.5t-102.5 39.5t-39.5 102.5t39.5 102.5t102.5 39.5zM832 -2q-76 -14 -138 -14 q-107 0 -173 68q-34 35 -51 81.5t-19.5 74t-2.5 71.5v745h256v-725q0 -68 46 -68q36 0 82 8v-241z" />
<glyph unicode="&#x3cb;" d="M800 1422q63 0 102.5 -39.5t39.5 -102.5t-39.5 -102.5t-102.5 -39.5t-102.5 39.5t-39.5 102.5t39.5 102.5t102.5 39.5zM352 1422q63 0 102.5 -39.5t39.5 -102.5t-39.5 -102.5t-102.5 -39.5t-102.5 39.5t-39.5 102.5t39.5 102.5t102.5 39.5zM256 337v687h256v-687 q0 -113 64 -113t64 113v687h256v-687q0 -79 -9 -123q-21 -103 -103 -166.5t-208 -63.5t-208 63.5t-103 166.5q-9 44 -9 123z" />
<glyph unicode="&#x3cc;" d="M839 1372l-206 -227l-188 158l186 244zM576 1040q93 0 166.5 -42.5t120.5 -117.5q39 -64 52 -151.5t13 -216.5t-13 -216.5t-52 -151.5q-47 -75 -120.5 -117.5t-166.5 -42.5t-166.5 42.5t-120.5 117.5q-39 64 -52 151.5t-13 216.5t13 216.5t52 151.5q47 75 120.5 117.5 t166.5 42.5zM576 800q-51 0 -76 -69q-20 -55 -20 -219t20 -219q25 -69 76 -69t76 69q20 55 20 219t-20 219q-25 69 -76 69z" />
<glyph unicode="&#x3cd;" d="M839 1372l-206 -227l-188 158l186 244zM256 337v687h256v-687q0 -113 64 -113t64 113v687h256v-687q0 -79 -9 -123q-21 -103 -103 -166.5t-208 -63.5t-208 63.5t-103 166.5q-9 44 -9 123z" />
<glyph unicode="&#x3ce;" d="M839 1372l-206 -227l-188 158l186 244zM571 84q-60 -100 -187 -100q-93 0 -160.5 51t-86.5 132q-9 38 -9 127v730h256v-730q0 -70 64 -70t64 70v474h128v-474q0 -70 64 -70t64 70v730h256v-730q0 -89 -9 -127q-19 -81 -86.5 -132t-160.5 -51q-127 0 -187 100h-10z" />
<glyph unicode="&#x3dc;" d="M256 1408h768v-240h-512v-348h384v-240h-384v-580h-256v1408z" />
<glyph unicode="&#x400;" d="M704 1536h-218l-190 256h266zM192 1408h768v-240h-512v-340h384v-240h-384v-348h512v-240h-768v1408z" />
<glyph unicode="&#x401;" d="M800 1806q63 0 102.5 -39.5t39.5 -102.5t-39.5 -102.5t-102.5 -39.5t-102.5 39.5t-39.5 102.5t39.5 102.5t102.5 39.5zM352 1806q63 0 102.5 -39.5t39.5 -102.5t-39.5 -102.5t-102.5 -39.5t-102.5 39.5t-39.5 102.5t39.5 102.5t102.5 39.5zM192 1408h768v-240h-512v-340 h384v-240h-384v-348h512v-240h-768v1408z" />
<glyph unicode="&#x402;" d="M768 234v150q0 134 -9 182q-10 50 -41 78t-78 28q-45 0 -75.5 -28t-41.5 -78q-11 -48 -11 -182v-384h-256v1168h-128v240h512v-240h-128v-328h10q67 62 168 62q120 0 205.5 -86t114.5 -223q14 -68 14 -209v-150q0 -107 -10 -164q-25 -146 -123 -244t-249 -98h-2v240 q50 0 80.5 34.5t39.5 86.5q8 45 8 145z" />
<glyph unicode="&#x403;" d="M448 1536l142 256h266l-190 -256h-218zM256 1408h768v-240h-512v-1168h-256v1408z" />
<glyph unicode="&#x404;" d="M960 248v-240q-179 -24 -317 -24q-205 0 -330.5 102.5t-169.5 277.5q-31 122 -31 340t31 340q44 176 166 278t324 102q153 0 312 -18v-240q-200 18 -309 18q-205 0 -250 -230q-10 -47 -15 -122h461v-240h-462q3 -75 16 -138q45 -230 257 -230q115 0 317 24z" />
<glyph unicode="&#x405;" d="M620 -16q-164 0 -370 32v244q241 -36 370 -36q178 0 178 190q0 53 -25.5 100.5t-71.5 65.5q-29 11 -80 18t-104.5 20.5t-102.5 42.5q-188 112 -188 354q0 173 110.5 291t283.5 118q135 0 370 -25v-241q-243 26 -370 26q-38 0 -66.5 -17t-43.5 -44t-21.5 -55t-6.5 -55 q0 -118 80 -154q26 -12 118.5 -26.5t149.5 -44.5q80 -41 132 -106t72 -131t20 -137q0 -194 -120 -312t-314 -118z" />
<glyph unicode="&#x406;" d="M896 1408v-240h-192v-928h192v-240h-640v240h192v928h-192v240h640z" />
<glyph unicode="&#x407;" d="M800 1806q63 0 102.5 -39.5t39.5 -102.5t-39.5 -102.5t-102.5 -39.5t-102.5 39.5t-39.5 102.5t39.5 102.5t102.5 39.5zM352 1806q63 0 102.5 -39.5t39.5 -102.5t-39.5 -102.5t-102.5 -39.5t-102.5 39.5t-39.5 102.5t39.5 102.5t102.5 39.5zM896 1408v-240h-192v-928h192 v-240h-640v240h192v928h-192v240h640z" />
<glyph unicode="&#x408;" d="M640 1408h256v-896q0 -75 -1.5 -117.5t-11 -100t-27.5 -101.5q-39 -93 -118 -151t-194 -58q-98 0 -288 24v240q166 -18 259 -18q82 0 109 88q16 51 16 194v896z" />
<glyph unicode="&#x409;" d="M129 1024l-1 384h640v-579q126 -15 199.5 -126.5t73.5 -286.5q0 -155 -60 -263.5t-159 -138.5q-48 -15 -125 -15l-186 1v1168h-127v-384q0 -379 -4 -517t-21 -205q-14 -53 -76.5 -65.5t-218.5 -12.5l1 272q18 0 28 2.5t18.5 15.5t10.5 39q7 84 7 711zM724 592v-349h17 q32 0 50 13q38 27 38 162q0 134 -38 161q-18 13 -50 13h-17z" />
<glyph unicode="&#x40a;" d="M768 829q126 -15 199.5 -126.5t73.5 -286.5q0 -155 -60 -263t-159 -139q-48 -15 -125 -15l-186 1v592h-127v-592h-256v1408h256v-576h127v576h257v-579zM724 592v-349h17q32 0 50 13q38 27 38 162q0 134 -38 161q-18 13 -50 13h-17z" />
<glyph unicode="&#x40b;" d="M1024 0h-256v454q0 83 -10 122q-12 45 -43.5 70.5t-74.5 25.5q-88 0 -118 -96q-10 -32 -10 -122v-454h-256v1168h-128v240h512v-240h-128v-346h10q63 87 158 87q130 0 219.5 -79t113.5 -217q11 -65 11 -159v-454z" />
<glyph unicode="&#x40c;" d="M440 1539l142 256h266l-190 -256h-218zM384 0h-256v1408h256v-550l296 550h289l-335 -590l428 -818h-287l-313 611l-78 -132v-479z" />
<glyph unicode="&#x40d;" d="M704 1536h-218l-190 256h266zM768 0v898h-10l-374 -898h-256v1408h256v-898h10l375 898h255v-1408h-256z" />
<glyph unicode="&#x40e;" d="M728 1792h208q0 -123 -103.5 -197.5t-256.5 -74.5t-256.5 74.5t-103.5 197.5h208q0 -41 39 -66.5t113 -25.5t113 25.5t39 66.5zM451 447q-132 218 -204.5 451.5t-109.5 509.5h253q38 -360 165 -647h10q123 358 187 647h263q-144 -618 -435 -1257q-29 -64 -89 -107.5 t-146 -52.5q-73 -7 -217 -7v234q98 0 151.5 8.5t75.5 33.5q13 14 24 29.5t22 39t16 35t18 44t16 39.5z" />
<glyph unicode="&#x40f;" d="M128 0v1408h256v-1168h384v1168h256v-1408h-320v-256h-256v256h-320z" />
<glyph unicode="&#x410;" d="M721 512q-58 377 -140 679h-10q-81 -299 -140 -679h290zM378 1408h396q172 -538 273 -1408h-259q-12 138 -33 272h-358q-21 -134 -33 -272h-259q101 870 273 1408z" />
<glyph unicode="&#x411;" d="M546 822q149 0 213 -16q117 -29 190.5 -137t73.5 -261q0 -154 -73 -258.5t-191 -133.5q-64 -16 -213 -16h-354v1408h768v-240h-512v-346h98zM448 582v-342h99q90 0 120 8q51 13 80.5 53.5t29.5 106.5q0 64 -30 108t-80 58q-30 8 -120 8h-99z" />
<glyph unicode="&#x412;" d="M492 828q75 0 98 6q54 13 86.5 56.5t32.5 107.5q0 63 -33 107t-86 56q-32 7 -98 7h-44v-340h44zM805 728q103 -30 160.5 -122.5t57.5 -221.5q0 -140 -73.5 -239.5t-190.5 -128.5q-64 -16 -213 -16h-354v1408h300q129 0 184 -13q123 -29 201 -127t78 -240 q0 -211 -150 -290v-10zM448 588v-348h99q90 0 120 8q50 13 80 57.5t30 108.5t-30 109t-80 57q-34 8 -120 8h-99z" />
<glyph unicode="&#x413;" d="M256 1408h768v-240h-512v-1168h-256v1408z" />
<glyph unicode="&#x414;" d="M398 240h242v928h-128q-2 -558 -114 -928zM139 240q41 136 66 274.5t35.5 299t13 277t2.5 317.5h640v-1168h128v-496h-256v256h-512v-256h-256v496h139z" />
<glyph unicode="&#x415;" d="M192 1408h768v-240h-512v-340h384v-240h-384v-348h512v-240h-768v1408z" />
<glyph unicode="&#x416;" d="M640 813h55l76 595h260l-137 -702l184 -706h-263l-115 593h-60v-593h-128v593h-60l-115 -593h-263l184 706l-137 702h260l76 -595h55v595h128v-595z" />
<glyph unicode="&#x417;" d="M486 1424q108 0 190 -29t132 -82t75 -123t25 -156q0 -103 -37 -187.5t-106 -133.5v-10q76 -47 119.5 -133.5t43.5 -192.5v-3q-1 -172 -111 -281t-321 -109q-169 0 -368 46v241q210 -47 358 -47q186 0 186 170q0 101 -41.5 145.5t-148.5 44.5h-162v240h163q101 0 135 45 t34 145q0 81 -37.5 125.5t-128.5 44.5q-21 0 -41.5 -1t-44 -3t-40 -3.5t-42.5 -5.5t-38.5 -6t-41 -7.5t-36.5 -7t-39 -7.5t-35 -7v240q210 48 358 48z" />
<glyph unicode="&#x418;" d="M768 0v898h-10l-374 -898h-256v1408h256v-898h10l375 898h255v-1408h-256z" />
<glyph unicode="&#x419;" d="M728 1792h208q0 -123 -103.5 -197.5t-256.5 -74.5t-256.5 74.5t-103.5 197.5h208q0 -41 39 -66.5t113 -25.5t113 25.5t39 66.5zM768 0v898h-10l-374 -898h-256v1408h256v-898h10l375 898h255v-1408h-256z" />
<glyph unicode="&#x41a;" d="M384 0h-256v1408h256v-550l296 550h289l-335 -590l428 -818h-287l-313 611l-78 -132v-479z" />
<glyph unicode="&#x41b;" d="M640 1178q0 -309 -7 -505q-6 -174 -26 -284t-80 -205q-121 -200 -399 -200v240q77 0 112 16.5t65 63.5q28 41 44 109t20.5 123.5t7.5 144.5q7 190 7 489v238h256h384v-1408h-256v1178h-128z" />
<glyph unicode="&#x41c;" d="M384 0h-256v1408h256l187 -438h11l186 438h256v-1408h-256v896h-10l-127 -256h-110l-127 260h-10v-900z" />
<glyph unicode="&#x41d;" d="M128 1408h256v-588h384v588h256v-1408h-256v580h-384v-580h-256v1408z" />
<glyph unicode="&#x41e;" d="M368 704q0 -176 15 -258q18 -97 66.5 -159.5t126.5 -62.5t126.5 62.5t66.5 159.5q15 83 15 258q0 176 -15 258q-18 97 -66.5 159.5t-126.5 62.5t-126.5 -62.5t-66.5 -159.5q-15 -82 -15 -258zM112 704q0 238 28 349q40 162 151 266.5t285 104.5t285 -104.5t151 -266.5 q28 -111 28 -349t-28 -349q-40 -162 -151 -266.5t-285 -104.5t-285 104.5t-151 266.5q-28 111 -28 349z" />
<glyph unicode="&#x41f;" d="M192 1408h768v-1408h-256v1168h-256v-1168h-256v1408z" />
<glyph unicode="&#x420;" d="M384 1168v-408h126q86 0 125 8q68 14 108.5 67t40.5 129t-40.5 129t-108.5 67q-39 8 -125 8h-126zM128 1408h380q148 0 211 -15q142 -34 231.5 -148.5t89.5 -280.5t-89.5 -280.5t-231.5 -148.5q-63 -15 -211 -15h-124v-520h-256v1408z" />
<glyph unicode="&#x421;" d="M1024 261v-240q-205 -37 -361 -37q-213 0 -343.5 102.5t-176.5 277.5q-31 122 -31 340t31 340q47 176 173 278t337 102q160 0 341 -29v-240q-226 29 -338 29q-221 0 -275 -230q-21 -91 -21 -250t21 -250q55 -230 282 -230q125 0 361 37z" />
<glyph unicode="&#x422;" d="M1024 1408v-240h-320v-1168h-256v1168h-320v240h896z" />
<glyph unicode="&#x423;" d="M451 447q-132 218 -204.5 451.5t-109.5 509.5h253q38 -360 165 -647h10q123 358 187 647h263q-144 -618 -435 -1257q-29 -64 -89 -107.5t-146 -52.5q-73 -7 -217 -7v234q98 0 151.5 8.5t75.5 33.5q13 14 24 29.5t22 39t16 35t18 44t16 39.5z" />
<glyph unicode="&#x424;" d="M112 704q0 176 33 284q35 112 112 189t191 105v126h256v-126q114 -28 191 -105t112 -189q33 -108 33 -284t-33 -284q-35 -112 -112 -189t-191 -105v-105h-256v105q-114 28 -191 105t-112 189q-33 108 -33 284zM368 704q0 -152 32 -240.5t112 -106.5v694 q-80 -18 -112 -106.5t-32 -240.5zM640 357q80 18 112 106.5t32 240.5t-32 240.5t-112 106.5v-694z" />
<glyph unicode="&#x425;" d="M571 944h10l183 464h267l-301 -687v-10l333 -711h-268l-214 498h-10l-214 -498h-268l333 711v10l-301 687h267z" />
<glyph unicode="&#x426;" d="M768 0h-640v1408h256v-1168h256v1168h256v-1169h128v-495h-256v256z" />
<glyph unicode="&#x427;" d="M128 1408h256v-384q0 -133 22 -182q48 -106 170 -106q121 0 170 106q22 48 22 182v384h256v-1408h-256v586h-10q-80 -90 -202 -90q-156 0 -269 89t-144 230q-15 68 -15 209v384z" />
<glyph unicode="&#x428;" d="M128 0v1408h256v-1168h128v1168h128v-1168h128v1168h256v-1408h-896z" />
<glyph unicode="&#x429;" d="M896 0h-768v1408h256v-1168h128v1168h128v-1168h128v1168h256v-1169h128v-495h-256v256z" />
<glyph unicode="&#x42a;" d="M448 582v-342h99q90 0 120 8q51 13 80.5 53.5t29.5 106.5q0 64 -30 108t-80 58q-30 8 -120 8h-99zM546 822q149 0 213 -16q117 -29 190.5 -137t73.5 -261q0 -154 -73 -258.5t-191 -133.5q-64 -16 -213 -16h-354v1168h-192v240h448v-586h98z" />
<glyph unicode="&#x42b;" d="M1024 1408v-1408h-256v261q-24 -94 -75.5 -157t-121.5 -88q-46 -16 -153 -16h-290v1408h256v-586h34q107 0 153 -16q69 -24 121 -89.5t76 -161.5v853h256zM384 582v-342h35q45 0 60 8q60 31 60 160q0 63 -16.5 107t-43.5 59q-15 8 -60 8h-35z" />
<glyph unicode="&#x42c;" d="M546 822q149 0 213 -16q117 -29 190.5 -137t73.5 -261q0 -154 -73 -258.5t-191 -133.5q-64 -16 -213 -16h-354v1408h256v-586h98zM448 582v-342h99q90 0 120 8q51 13 80.5 53.5t29.5 106.5q0 64 -30 108t-80 58q-30 8 -120 8h-99z" />
<glyph unicode="&#x42d;" d="M192 248q202 -24 317 -24q212 0 257 230q13 63 16 138h-462v240h461q-5 75 -15 122q-45 230 -250 230q-109 0 -309 -18v240q159 18 312 18q202 0 324 -102t166 -278q31 -122 31 -340t-31 -340q-44 -175 -169.5 -277.5t-330.5 -102.5q-138 0 -317 24v240z" />
<glyph unicode="&#x42e;" d="M707 1426q199 0 281 -217q18 -49 27 -135t10.5 -156.5t1.5 -213.5t-1.5 -213.5t-10.5 -156.5t-27 -135q-82 -217 -281 -217q-157 0 -220 217q-28 96 -30 385h-73v-584h-256v1409h256v-585h73q2 290 30 385q63 217 220 217zM662 704q0 -290 7 -352q14 -126 49 -126t49 126 q8 67 8 352t-8 352q-14 126 -49 126t-49 -126q-7 -63 -7 -352z" />
<glyph unicode="&#x42f;" d="M704 1168h-126q-85 0 -125 -8q-67 -14 -108 -67t-41 -129t41 -129t108 -67q39 -8 125 -8h126v408zM960 1408v-1408h-256v520h-124q-69 0 -99 1l-186 -521h-272l220 587q-90 57 -142.5 154.5t-52.5 222.5q0 166 89.5 280.5t231.5 148.5q63 15 211 15h380z" />
<glyph unicode="&#x430;" d="M640 421h-68q-49 0 -70.5 -28.5t-21.5 -89.5q0 -34 16 -56.5t46 -22.5q34 0 55.5 17t30 48.5t10.5 53.5t2 55v23zM608 1040q86 0 151 -26.5t107 -100.5q30 -53 30 -164v-749h-256v53h-10q-56 -69 -142 -69q-106 0 -185 91t-79 226q0 147 88 242q32 34 68.5 55.5t75 29.5 t62 10t56.5 2h66v104q0 20 -17 37.5t-44 17.5q-92 0 -259 -19v241q165 19 288 19z" />
<glyph unicode="&#x431;" d="M576 800q-51 0 -76 -69q-20 -55 -20 -219t20 -219q25 -69 76 -69t76 69q20 55 20 219t-20 219q-25 69 -76 69zM610 1030q106 0 180 -56.5t102 -144.5q36 -110 36 -317q0 -76 -1.5 -117.5t-11 -97t-27.5 -102.5q-83 -211 -332 -211q-99 0 -178 60.5t-114 150.5 q-40 105 -40 253q0 200 1 293.5t6 194t15 145.5q36 157 140 234q64 48 133.5 69t122 20.5t125.5 3t129 18.5v-243q-56 -14 -135.5 -16t-139.5 -10.5t-103 -40.5q-41 -31 -44 -130h10q59 44 126 44z" />
<glyph unicode="&#x432;" d="M512 636h59q25 0 35 3q21 5 33.5 24t12.5 47t-12.5 47t-33.5 24q-14 3 -35 3h-59v-148zM512 240h40q23 0 51 4q32 6 50.5 25.5t18.5 48.5t-18.5 49t-50.5 26q-21 3 -51 3h-40v-156zM256 0v1024h368q62 0 99 -9q82 -20 133.5 -94t51.5 -181q0 -71 -25 -127t-67 -91 q112 -89 112 -234q0 -104 -60 -177t-159 -99q-45 -12 -125 -12h-328z" />
<glyph unicode="&#x433;" d="M256 1024h640v-240h-384v-784h-256v1024z" />
<glyph unicode="&#x434;" d="M462 240h178v544h-128q0 -321 -50 -544zM203 240q24 120 36.5 260.5t14.5 241t2 282.5h640v-784h128v-496h-256v256h-448v-256h-256v496h139z" />
<glyph unicode="&#x435;" d="M576 1040q116 0 198 -56.5t117 -144.5q17 -43 25.5 -101t10 -102.5t1.5 -123.5v-120h-447q0 -82 15 -115q26 -53 100 -53q109 0 300 20v-239q-182 -21 -300 -21q-124 0 -209 58t-123 151q-26 63 -33 135t-7 184q0 115 6.5 189.5t30.5 137.5q33 89 115.5 145t199.5 56z M576 800q-17 0 -31 -3.5t-23.5 -13t-16.5 -17t-11.5 -25t-7 -27.5t-4 -33.5t-1.5 -33t-1 -35.5h192q-2 103 -16 136q-20 52 -80 52z" />
<glyph unicode="&#x436;" d="M512 0v422h-20l-155 -422h-253l214 535l-157 489h250l106 -382h15v382h128v-382h15l106 382h250l-157 -489l214 -535h-243l-165 422h-20v-422h-128z" />
<glyph unicode="&#x437;" d="M785 523q143 -69 143 -235q0 -134 -102 -219t-260 -85q-137 0 -310 10v240q178 -10 310 -10q48 0 77 22.5t29 61.5q0 92 -150 92h-138v240h139q139 0 139 84q0 31 -25 53.5t-70 22.5q-97 0 -291 -16v240q171 16 291 16q156 0 253.5 -84.5t97.5 -208.5q0 -151 -133 -214 v-10z" />
<glyph unicode="&#x438;" d="M640 0v504h-10l-158 -504h-216v1024h256v-514h10l159 514h215v-1024h-256z" />
<glyph unicode="&#x439;" d="M728 1408h208q0 -123 -103.5 -197.5t-256.5 -74.5t-256.5 74.5t-103.5 197.5h208q0 -41 39 -66.5t113 -25.5t113 25.5t39 66.5zM640 0v504h-10l-158 -504h-216v1024h256v-514h10l159 514h215v-1024h-256z" />
<glyph unicode="&#x43a;" d="M512 0h-256v1024h256v-327l167 327h276l-227 -443l274 -581h-276l-167 353l-47 -98v-255z" />
<glyph unicode="&#x43b;" d="M896 1024v-1024h-256v784h-128v-460q0 -87 -23 -149t-76 -109q-52 -46 -117.5 -64t-167.5 -18v240q71 0 98 22q30 25 30 78v700h640z" />
<glyph unicode="&#x43c;" d="M384 0h-256v1024h256l187 -438h11l186 438h256v-1024h-256v512h-10l-127 -256h-110l-127 260h-10v-516z" />
<glyph unicode="&#x43d;" d="M256 1024h256v-384h128v384h256v-1024h-256v400h-128v-400h-256v1024z" />
<glyph unicode="&#x43e;" d="M576 1040q93 0 166.5 -42.5t120.5 -117.5q39 -64 52 -151.5t13 -216.5t-13 -216.5t-52 -151.5q-47 -75 -120.5 -117.5t-166.5 -42.5t-166.5 42.5t-120.5 117.5q-39 64 -52 151.5t-13 216.5t13 216.5t52 151.5q47 75 120.5 117.5t166.5 42.5zM576 800q-51 0 -76 -69 q-20 -55 -20 -219t20 -219q25 -69 76 -69t76 69q20 55 20 219t-20 219q-25 69 -76 69z" />
<glyph unicode="&#x43f;" d="M256 1024h640v-1024h-256v784h-128v-784h-256v1024z" />
<glyph unicode="&#x440;" d="M687 -32q-116 0 -167 81h-8v-449h-256v1408h256v-65h8q51 81 167 81q76 0 134.5 -62.5t85.5 -174.5q21 -90 21 -291t-21 -291q-27 -112 -85.5 -174.5t-134.5 -62.5zM592 208q26 0 44 30.5t26 76.5q10 54 10 181t-10 181q-8 46 -26 76.5t-44 30.5t-44 -30.5t-26 -76.5 q-10 -54 -10 -181t10 -181q8 -46 26 -76.5t44 -30.5z" />
<glyph unicode="&#x441;" d="M224 512q0 112 7.5 184t35.5 135q91 209 339 209q113 0 280 -18v-240q-169 18 -280 18q-43 0 -68 -23t-41 -70q-17 -52 -17 -195t17 -195q16 -47 41 -70t68 -23q117 0 290 26v-240q-172 -26 -290 -26q-248 0 -339 209q-28 63 -35.5 135t-7.5 184z" />
<glyph unicode="&#x442;" d="M1024 1024v-250h-320v-774h-256v774h-320v250h896z" />
<glyph unicode="&#x443;" d="M582 343q84 318 139 681h256q-43 -269 -85 -463t-118 -433q-21 -66 -35 -104.5t-36 -88.5t-48.5 -83.5t-58.5 -54.5q-39 -24 -68.5 -36.5t-98 -22.5t-173.5 -10v240q73 0 110.5 4.5t63.5 23t38 43t32 77.5q3 8 4 12h-99q-77 195 -129.5 409t-100.5 487h257 q50 -365 140 -681h10z" />
<glyph unicode="&#x444;" d="M640 230q73 11 103.5 73.5t30.5 208.5q0 150 -30 210t-104 72v-564zM512 794q-74 -12 -104 -72t-30 -210q0 -146 30.5 -208.5t103.5 -73.5v564zM448 1408h256v-387q161 -30 238.5 -148.5t77.5 -360.5q0 -237 -78 -357.5t-238 -151.5v-387h-256v387q-160 31 -238 151.5 t-78 357.5q0 242 77.5 360.5t238.5 148.5v387z" />
<glyph unicode="&#x445;" d="M571 784h10l103 240h287l-231 -483v-10l253 -531h-288l-124 288h-10l-124 -288h-288l253 531v10l-231 483h287z" />
<glyph unicode="&#x446;" d="M896 239h128v-495h-256v256h-512v1024h256v-784h128v784h256v-785z" />
<glyph unicode="&#x447;" d="M481 368q-107 0 -173 107q-24 40 -36.5 92t-14 86.5t-1.5 97.5v273h256v-273q0 -81 15 -109q19 -34 49 -34t49 34q15 28 15 109v273h256v-1024h-256v446h-7q-28 -36 -69 -57t-83 -21z" />
<glyph unicode="&#x448;" d="M128 0v1024h256v-784h128v784h128v-784h128v784h256v-1024h-896z" />
<glyph unicode="&#x449;" d="M1024 239h128v-495h-256v256h-768v1024h256v-784h128v784h128v-784h128v784h256v-785z" />
<glyph unicode="&#x44a;" d="M576 460v-220h72q88 0 88 110t-88 110h-72zM577 700h71q80 0 125 -12q99 -27 159 -117.5t60 -220.5t-60 -220.5t-159 -117.5q-45 -12 -125 -12h-328v794h-192v230h449v-324z" />
<glyph unicode="&#x44b;" d="M384 460v-220h72q88 0 88 110t-88 110h-72zM385 700h71q80 0 125 -12q62 -16 110.5 -60.5t76.5 -109.5v506h256v-1024h-256v182q-28 -65 -76.5 -109.5t-110.5 -60.5q-45 -12 -125 -12h-328v1024h257v-324z" />
<glyph unicode="&#x44c;" d="M513 700h71q80 0 125 -12q99 -27 159 -117.5t60 -220.5t-60 -220.5t-159 -117.5q-45 -12 -125 -12h-328v1024h257v-324zM512 460v-220h72q88 0 88 110t-88 110h-72z" />
<glyph unicode="&#x44d;" d="M928 512q0 -112 -7.5 -184t-35.5 -135q-91 -209 -339 -209q-118 0 -290 26v240q173 -26 290 -26q43 0 68 23t41 70q12 35 15 95h-286v220h285q-3 40 -14 75q-16 47 -41 70t-68 23q-101 0 -280 -19v240q177 19 280 19q248 0 339 -209q28 -63 35.5 -135t7.5 -184z" />
<glyph unicode="&#x44e;" d="M700 603q0 98 -9 140q-12 60 -39 60t-39 -60q-9 -42 -9 -140v-182q0 -98 9 -140q12 -60 39 -60t39 60q9 42 9 140v182zM650 1040q76 0 135 -45.5t89 -110.5q18 -38 27 -86t10 -78t1 -81v-255q0 -51 -1 -81t-10 -77.5t-27 -85.5q-30 -65 -89 -110.5t-135 -45.5 q-68 0 -122 45.5t-78 110.5q-30 80 -30 244v4h-36v-388h-256v1024h256v-396h36v12q0 164 30 244q24 65 78 110.5t122 45.5z" />
<glyph unicode="&#x44f;" d="M639 328h-50l-112 -328h-255l138 385q-63 36 -99.5 112.5t-36.5 178.5q0 129 60 219t159 117q45 12 125 12h328v-1024h-257v328zM640 568v216h-72q-88 0 -88 -108t88 -108h72z" />
<glyph unicode="&#x450;" d="M704 1152h-218l-190 256h266zM576 1040q116 0 198 -56.5t117 -144.5q17 -43 25.5 -101t10 -102.5t1.5 -123.5v-120h-447q0 -82 15 -115q26 -53 100 -53q109 0 300 20v-239q-182 -21 -300 -21q-124 0 -209 58t-123 151q-26 63 -33 135t-7 184q0 115 6.5 189.5t30.5 137.5 q33 89 115.5 145t199.5 56zM576 800q-17 0 -31 -3.5t-23.5 -13t-16.5 -17t-11.5 -25t-7 -27.5t-4 -33.5t-1.5 -33t-1 -35.5h192q-2 103 -16 136q-20 52 -80 52z" />
<glyph unicode="&#x451;" d="M800 1422q63 0 102.5 -39.5t39.5 -102.5t-39.5 -102.5t-102.5 -39.5t-102.5 39.5t-39.5 102.5t39.5 102.5t102.5 39.5zM352 1422q63 0 102.5 -39.5t39.5 -102.5t-39.5 -102.5t-102.5 -39.5t-102.5 39.5t-39.5 102.5t39.5 102.5t102.5 39.5zM576 1040q116 0 198 -56.5 t117 -144.5q17 -43 25.5 -101t10 -102.5t1.5 -123.5v-120h-447q0 -82 15 -115q26 -53 100 -53q109 0 300 20v-239q-182 -21 -300 -21q-124 0 -209 58t-123 151q-26 63 -33 135t-7 184q0 115 6.5 189.5t30.5 137.5q33 89 115.5 145t199.5 56zM576 800q-17 0 -31 -3.5 t-23.5 -13t-16.5 -17t-11.5 -25t-7 -27.5t-4 -33.5t-1.5 -33t-1 -35.5h192q-2 103 -16 136q-20 52 -80 52z" />
<glyph unicode="&#x452;" d="M671 912q107 0 173 -107q24 -40 36.5 -92t14 -86.5t1.5 -97.5v-529q0 -152 -36 -236q-55 -128 -179 -184l-112 216q35 17 53 58q18 40 18 146v529q0 81 -15 109q-19 34 -49 34t-49 -34q-15 -28 -15 -109v-529h-256v1067h-128v209h128v132h256v-132h256v-209h-256v-233h7 q28 36 69 57t83 21z" />
<glyph unicode="&#x453;" d="M448 1152l142 256h266l-190 -256h-218zM256 1024h640v-240h-384v-784h-256v1024z" />
<glyph unicode="&#x454;" d="M224 512q0 112 7.5 184t35.5 135q91 209 339 209q103 0 280 -19v-240q-179 19 -280 19q-43 0 -68 -23t-41 -70q-11 -35 -14 -75h285v-220h-286q3 -60 15 -95q16 -47 41 -70t68 -23q117 0 290 26v-240q-172 -26 -290 -26q-248 0 -339 209q-28 63 -35.5 135t-7.5 184z" />
<glyph unicode="&#x455;" d="M567 -16q-115 0 -311 22v240q187 -22 311 -22q56 0 80.5 30t24.5 62q0 33 -15 54.5t-40 26.5q-18 4 -63 9.5t-83.5 15t-75.5 28.5q-69 36 -115 106t-46 163q0 44 13 88.5t40.5 86.5t66.5 74.5t95.5 52t122.5 19.5q111 0 314 -21v-240q-205 21 -314 21q-42 0 -62 -26.5 t-20 -52.5q0 -41 19 -64.5t47 -27.5q13 -2 50.5 -6.5t58.5 -8.5t53.5 -13.5t60.5 -26t54 -41.5q95 -89 95 -215q0 -64 -23 -123t-66 -106.5t-113.5 -76t-158.5 -28.5z" />
<glyph unicode="&#x456;" d="M512 0v656h-246v240h502v-896h-256zM614 1381q69 0 113 -44t44 -113t-44 -113t-113 -44t-113 44t-44 113t44 113t113 44z" />
<glyph unicode="&#x457;" d="M800 1422q63 0 102.5 -39.5t39.5 -102.5t-39.5 -102.5t-102.5 -39.5t-102.5 39.5t-39.5 102.5t39.5 102.5t102.5 39.5zM352 1422q63 0 102.5 -39.5t39.5 -102.5t-39.5 -102.5t-102.5 -39.5t-102.5 39.5t-39.5 102.5t39.5 102.5t102.5 39.5zM512 0v784h-256v240h512v-1024 h-256z" />
<glyph unicode="&#x458;" d="M576 1381q69 0 113 -44t44 -113t-44 -113t-113 -44t-113 44t-44 113t44 113t113 44zM512 160v496h-246v240h502v-736q0 -171 -61 -273q-95 -159 -299 -159q-116 0 -236 15v240q135 -15 236 -15q38 0 62.5 29.5t33 70t8.5 92.5z" />
<glyph unicode="&#x459;" d="M724 456v-216h17q31 0 50 8q38 16 38 100t-38 100q-19 8 -50 8h-17zM768 694q126 -12 199.5 -105.5t73.5 -240.5q0 -129 -60 -219t-159 -117q-45 -12 -125 -12h-185v784h-128q0 -379 -4 -517t-21 -205q-14 -53 -76.5 -65.5t-218.5 -12.5l1 272q18 0 27.5 2.5t18.5 15.5 t11 39q7 84 7 711h639v-330z" />
<glyph unicode="&#x45a;" d="M128 1024h256v-332h127v332h1h256v-330q31 -4 54 -10q99 -27 159 -117t60 -219t-60 -219t-159 -117q-45 -12 -125 -12h-57h-128h-1v452h-127v-452h-256v1024zM724 456v-216h17q31 0 50 8q38 16 38 100t-38 100q-19 8 -50 8h-17z" />
<glyph unicode="&#x45b;" d="M671 912q107 0 173 -107q24 -40 36.5 -92t14 -86.5t1.5 -97.5v-529h-256v529q0 81 -15 109q-19 34 -49 34t-49 -34q-15 -28 -15 -109v-529h-256v1067h-128v209h128v132h256v-132h256v-209h-256v-233h7q28 36 69 57t83 21z" />
<glyph unicode="&#x45c;" d="M448 1152l142 256h266l-190 -256h-218zM512 0h-256v1024h256v-327l167 327h276l-227 -443l274 -581h-276l-167 353l-47 -98v-255z" />
<glyph unicode="&#x45d;" d="M704 1152h-218l-190 256h266zM640 0v504h-10l-158 -504h-216v1024h256v-514h10l159 514h215v-1024h-256z" />
<glyph unicode="&#x45e;" d="M728 1408h208q0 -123 -103.5 -197.5t-256.5 -74.5t-256.5 74.5t-103.5 197.5h208q0 -41 39 -66.5t113 -25.5t113 25.5t39 66.5zM582 343q84 318 139 681h256q-43 -269 -85 -463t-118 -433q-21 -66 -35 -104.5t-36 -88.5t-48.5 -83.5t-58.5 -54.5q-39 -24 -68.5 -36.5 t-98 -22.5t-173.5 -10v240q73 0 110.5 4.5t63.5 23t38 43t32 77.5q3 8 4 12h-99q-77 195 -129.5 409t-100.5 487h257q50 -365 140 -681h10z" />
<glyph unicode="&#x45f;" d="M256 0v1024h256v-784h128v784h256v-1024h-192v-256h-256v256h-192z" />
<glyph unicode="&#x460;" d="M571 84q-60 -100 -187 -100q-93 0 -160.5 51t-86.5 132q-9 38 -9 127v1114h256v-1114q0 -70 64 -70t64 70v730h128v-730q0 -70 64 -70t64 70v1114h256v-1114q0 -89 -9 -127q-19 -81 -86.5 -132t-160.5 -51q-127 0 -187 100h-10z" />
<glyph unicode="&#x461;" d="M571 84q-60 -100 -187 -100q-93 0 -160.5 51t-86.5 132q-9 38 -9 127v730h256v-730q0 -70 64 -70t64 70v474h128v-474q0 -70 64 -70t64 70v730h256v-730q0 -89 -9 -127q-19 -81 -86.5 -132t-160.5 -51q-127 0 -187 100h-10z" />
<glyph unicode="&#x472;" d="M112 704q0 238 28 349q40 162 151 266.5t285 104.5t285 -104.5t151 -266.5q28 -111 28 -349t-28 -349q-40 -162 -151 -266.5t-285 -104.5t-285 104.5t-151 266.5q-28 111 -28 349zM370 588q4 -90 13 -142q18 -97 66.5 -159.5t126.5 -62.5t126.5 62.5t66.5 159.5 q9 52 13 142h-412zM782 828q-4 85 -13 134q-18 97 -66.5 159.5t-126.5 62.5t-126.5 -62.5t-66.5 -159.5q-9 -49 -13 -134h412z" />
<glyph unicode="&#x473;" d="M576 800q-51 0 -76 -69q-16 -44 -19 -125h190q-3 81 -19 125q-25 69 -76 69zM576 1040q93 0 166.5 -42.5t120.5 -117.5q39 -64 52 -151.5t13 -216.5t-13 -216.5t-52 -151.5q-47 -75 -120.5 -117.5t-166.5 -42.5t-166.5 42.5t-120.5 117.5q-39 64 -52 151.5t-13 216.5 t13 216.5t52 151.5q47 75 120.5 117.5t166.5 42.5zM481 418q3 -81 19 -125q25 -69 76 -69t76 69q16 44 19 125h-190z" />
<glyph unicode="&#x474;" d="M581 217q125 460 207 1191h259q-101 -870 -273 -1408h-396q-172 538 -273 1408h259q83 -735 207 -1191h10z" />
<glyph unicode="&#x475;" d="M432 1024q56 -457 139 -807h10q83 351 139 807h258q-77 -589 -204 -1024h-396q-127 435 -204 1024h258z" />
<glyph unicode="&#x490;" d="M768 1280v256h256v-496h-512v-1040h-256v1280h512z" />
<glyph unicode="&#x491;" d="M640 1024v256h256v-496h-384v-784h-256v1024h384z" />
<glyph unicode="&#x4ae;" d="M581 851q148 340 200 557h271q-78 -239 -160 -432.5t-188 -359.5v-616h-256v616q-106 166 -188 359.5t-160 432.5h271q8 -37 19.5 -77t28 -87t28 -79.5t33.5 -88t30.5 -77t33 -81t27.5 -67.5h10z" />
<glyph unicode="&#x4af;" d="M432 1024q56 -385 139 -677h10q83 295 139 677h257q-106 -598 -273 -1024v-384h-256v384q-169 431 -274 1024h258z" />
<glyph unicode="&#x4e8;" d="M112 704q0 238 28 349q40 162 151 266.5t285 104.5t285 -104.5t151 -266.5q28 -111 28 -349t-28 -349q-40 -162 -151 -266.5t-285 -104.5t-285 104.5t-151 266.5q-28 111 -28 349zM370 588q4 -90 13 -142q18 -97 66.5 -159.5t126.5 -62.5t126.5 62.5t66.5 159.5 q9 52 13 142h-412zM782 828q-4 85 -13 134q-18 97 -66.5 159.5t-126.5 62.5t-126.5 -62.5t-66.5 -159.5q-9 -49 -13 -134h412z" />
<glyph unicode="&#x4e9;" d="M576 800q-51 0 -76 -69q-16 -44 -19 -125h190q-3 81 -19 125q-25 69 -76 69zM576 1040q93 0 166.5 -42.5t120.5 -117.5q39 -64 52 -151.5t13 -216.5t-13 -216.5t-52 -151.5q-47 -75 -120.5 -117.5t-166.5 -42.5t-166.5 42.5t-120.5 117.5q-39 64 -52 151.5t-13 216.5 t13 216.5t52 151.5q47 75 120.5 117.5t166.5 42.5zM481 418q3 -81 19 -125q25 -69 76 -69t76 69q16 44 19 125h-190z" />
<glyph unicode="&#x2000;" />
<glyph unicode="&#x2001;" />
<glyph unicode="&#x2002;" />
<glyph unicode="&#x2003;" />
<glyph unicode="&#x2004;" />
<glyph unicode="&#x2005;" />
<glyph unicode="&#x200b;" />
<glyph unicode="&#x2010;" d="M128 760h896v-240h-896v240z" />
<glyph unicode="&#x2011;" d="M128 760h896v-240h-896v240z" />
<glyph unicode="&#x2012;" d="M128 760h896v-240h-896v240z" />
<glyph unicode="&#x2013;" d="M128 760h896v-240h-896v240z" />
<glyph unicode="&#x2014;" d="M128 760h896v-240h-896v240z" />
<glyph unicode="&#x2015;" d="M128 760h896v-240h-896v240z" />
<glyph unicode="&#x2018;" d="M640 896h-256v144q0 53 2.5 84.5t21 82.5t54.5 93q49 57 128 90.5t178 33.5v-240q-74 0 -106 -49q-22 -35 -22 -95v-144z" />
<glyph unicode="&#x2019;" d="M512 1408h256v-144q0 -53 -2.5 -84.5t-21 -82.5t-54.5 -93q-49 -57 -128 -90.5t-178 -33.5v240q75 0 106 49q22 35 22 95v144z" />
<glyph unicode="&#x201a;" d="M512 128h256v-144q0 -53 -2.5 -84.5t-21 -82.5t-54.5 -93q-49 -57 -128 -90.5t-178 -33.5v240q75 0 106 49q22 35 22 95v144z" />
<glyph unicode="&#x201c;" d="M896 896h-256v144q0 53 2.5 84.5t21 82.5t54.5 93q49 57 128 90.5t178 33.5v-240q-74 0 -106 -49q-22 -35 -22 -95v-144zM384 896h-256v144q0 53 2.5 84.5t21 82.5t54.5 93q49 57 128 90.5t178 33.5v-240q-74 0 -106 -49q-22 -35 -22 -95v-144z" />
<glyph unicode="&#x201d;" d="M256 1408h256v-144q0 -53 -2.5 -84.5t-21 -82.5t-54.5 -93q-49 -57 -128 -90.5t-178 -33.5v240q74 0 106 49q22 35 22 95v144zM768 1408h256v-144q0 -53 -2.5 -84.5t-21 -82.5t-54.5 -93q-49 -57 -128 -90.5t-178 -33.5v240q75 0 106 49q22 35 22 95v144z" />
<glyph unicode="&#x201e;" d="M256 128h256v-144q0 -53 -2.5 -84.5t-21 -82.5t-54.5 -93q-49 -57 -128 -90.5t-178 -33.5v240q74 0 106 49q22 35 22 95v144zM768 128h256v-144q0 -53 -2.5 -84.5t-21 -82.5t-54.5 -93q-49 -57 -128 -90.5t-178 -33.5v240q75 0 106 49q22 35 22 95v144z" />
<glyph unicode="&#x2020;" d="M960 1152v-240h-256v-912h-256v912h-256v240h256v256h256v-256h256z" />
<glyph unicode="&#x2021;" d="M960 1152v-240h-256v-416h256v-240h-256v-256h-256v256h-256v240h256v416h-256v240h256v256h256v-256h256z" />
<glyph unicode="&#x2022;" d="M576 912q92 0 150 -58t58 -150t-58 -150t-150 -58t-150 58t-58 150t58 150t150 58z" />
<glyph unicode="&#x2026;" d="M894 208q50 0 81 -31t31 -81t-31 -81t-81 -31t-81 31t-31 81t31 81t81 31zM574 208q50 0 81 -31t31 -81t-31 -81t-81 -31t-81 31t-31 81t31 81t81 31zM254 208q50 0 81 -31t31 -81t-31 -81t-81 -31t-81 31t-31 81t31 81t81 31z" />
<glyph unicode="&#x2039;" d="M389 635l511 -476l-176 -176l-596 562v190l596 562l176 -176l-511 -476v-10z" />
<glyph unicode="&#x203a;" d="M124 1121l176 176l596 -562v-190l-596 -562l-176 176l511 476v10z" />
<glyph unicode="&#x203d;" d="M576 330q76 0 124.5 -48t48.5 -125t-48.5 -125t-124.5 -48t-124.5 48t-48.5 125t48.5 125t124.5 48zM706 896q76 49 76 146q0 77 -64.5 109.5t-213.5 32.5q-117 0 -306 -17v240q215 17 336 17q243 0 373.5 -95.5t130.5 -266.5q0 -238 -247 -386q-51 -31 -71 -68.5 t-20 -95.5h-248l-8 576h264z" />
<glyph unicode="&#x2074;" d="M896 768h-256v196h-384v192l78 380h231l-58 -332h133v332h256v-768z" />
<glyph unicode="&#x2075;" d="M344 1254q120 -1 205.5 -20t135.5 -53t72.5 -77.5t22.5 -100.5q0 -117 -115.5 -184t-294.5 -67q-103 0 -242 15v192q156 -15 242 -15q154 0 154 54q0 38 -50.5 51t-139.5 13h-206v474h640v-200h-424v-82z" />
<glyph unicode="&#x20ac;" d="M896 237v-240q-145 -13 -243 -13q-135 0 -227.5 68t-135.5 184.5t-45 275.5h-118v120h116v144h-116v120h117q2 89 18 167t49 144.5t80 114.5t114 75t148 27q75 0 213 -6v-240q-144 6 -213 6q-51 0 -86 -41t-50.5 -104t-16.5 -143h268v-120h-274v-144h274v-120h-267 q1 -133 38.5 -210.5t113.5 -77.5q91 0 243 13z" />
<glyph unicode="&#x2190;" d="M442 520l205 -273l-191 -141l-328 439v190l328 439l191 -141l-205 -273h582v-240h-582z" />
<glyph unicode="&#x2191;" d="M456 966l-233 -175l-141 191l399 298h190l399 -298l-141 -191l-233 175v-838h-240v838z" />
<glyph unicode="&#x2192;" d="M128 760h582l-205 273l191 141l328 -439v-190l-328 -439l-191 141l205 273h-582v240z" />
<glyph unicode="&#x2193;" d="M456 442v838h240v-838l233 175l141 -191l-399 -298h-190l-399 298l141 191z" />
<glyph unicode="&#x2194;" d="M831 1077l193 -342v-190l-193 -342l-205 120l114 197h-328l114 -197l-205 -120l-193 342v190l193 342l205 -120l-114 -197h328l-114 197z" />
<glyph unicode="&#x2195;" d="M456 1094l-233 -175l-141 191l399 298h190l399 -298l-141 -191l-233 175v-780l233 175l141 -191l-399 -298h-190l-399 298l141 191l233 -175v780z" />
<glyph unicode="&#x2206;" d="M581 1191h-10q-106 -389 -178 -951h366q-72 561 -178 951zM105 0q101 870 273 1408h396q172 -538 273 -1408h-942z" />
<glyph unicode="&#x2211;" d="M489 709l-297 477v222h768v-240h-493v-10l253 -406v-96l-253 -406v-10h493v-240h-768v222l297 477v10z" />
<glyph unicode="&#x2212;" d="M128 760h896v-240h-896v240z" />
<glyph unicode="&#x2219;" d="M512 898q86 0 140 -54t54 -140t-54 -140t-140 -54t-140 54t-54 140t54 140t140 54z" />
<glyph unicode="&#x222b;" d="M448 -14v1062q0 60 2 94t18 85t48 89q41 50 106.5 79t145.5 29q85 0 192 -15v-240q-111 15 -182 15q-43 0 -58.5 -36t-15.5 -110v-1062q0 -60 -2 -94t-18 -85t-48 -89q-41 -50 -106.5 -79t-145.5 -29q-85 0 -192 15v240q111 -15 182 -15q43 0 58.5 36t15.5 110z" />
<glyph unicode="&#x2248;" d="M98 212q15 71 39 132.5t59.5 118t86.5 89t112 32.5q51 0 96 -17.5t76.5 -42t59.5 -49t58.5 -42t61.5 -17.5q59 0 87 172l220 -40q-15 -71 -39 -132.5t-59.5 -118t-86.5 -89t-112 -32.5q-52 0 -96.5 17.5t-76 42t-59.5 49t-58.5 42t-61.5 17.5q-59 0 -87 -172zM98 724 q15 71 39 132.5t59.5 118t86.5 89t112 32.5q51 0 96 -17.5t76.5 -42t59.5 -49t58.5 -42t61.5 -17.5q59 0 87 172l220 -40q-15 -71 -39 -132.5t-59.5 -118t-86.5 -89t-112 -32.5q-52 0 -96.5 17.5t-76 42t-59.5 49t-58.5 42t-61.5 17.5q-59 0 -87 -172z" />
<glyph unicode="&#x2260;" d="M740 1280h282l-130 -272h132v-240h-246l-130 -272h376v-240h-490l-122 -256h-282l122 256h-124v240h238l130 272h-368v240h482z" />
<glyph unicode="&#x2261;" d="M128 756h896v-240h-896v240zM128 372h896v-240h-896v240zM128 1140h896v-240h-896v240z" />
<glyph unicode="&#x2264;" d="M1024 372v-240h-896v240h896zM419 870v-10l605 -166v-243l-896 244v340l896 244v-243z" />
<glyph unicode="&#x2265;" d="M128 372h896v-240h-896v240zM733 870l-605 166v243l896 -244v-340l-896 -244v243l605 166v10z" />
<glyph unicode="&#x2588;" d="M0 1664h1024v-1920h-1024v1920z" />
<glyph unicode="&#x2620;" d="M384 512h128v77q0 26 19 45t45 19t45 -19t19 -45v-77h128v108q0 50 35 80q56 48 87.5 116t31.5 144q0 143 -101.5 244.5t-244.5 101.5t-244.5 -101.5t-101.5 -244.5q0 -75 31.5 -143.5t87.5 -116.5q35 -30 35 -80v-108zM832 384h-512q-26 0 -45 19t-19 45v163 q-74 68 -114 158.5t-40 190.5q0 128 63.5 237.5t173 173t237.5 63.5t237.5 -63.5t173 -173t63.5 -237.5q0 -100 -40 -190.5t-114 -158.5v-163q0 -26 -19 -45t-45 -19zM730 998q43 0 72.5 -29.5t29.5 -72.5t-29.5 -72.5t-72.5 -29.5t-73 29.5t-30 72.5t30 72.5t73 29.5z M422 998q43 0 73 -29.5t30 -72.5t-30 -72.5t-73 -29.5t-72.5 29.5t-29.5 72.5t29.5 72.5t72.5 29.5zM158 -150q-24 0 -43 17.5t-19 44.5q0 19 11 35t30 23l268 94l-268 94q-19 7 -30 23t-11 35q0 27 19 44.5t43 17.5q7 0 21 -4l397 -144l397 144q14 4 21 4q24 0 43 -17.5 t19 -44.5q0 -19 -11 -35t-30 -23l-268 -94l268 -94q19 -7 30 -23t11 -35q0 -27 -19 -44.5t-43 -17.5q-7 0 -21 4l-397 144l-397 -144q-14 -4 -21 -4z" />
<glyph unicode="&#x266d;" d="M632 1035q136 0 216 -100t80 -255q0 -116 -35.5 -222t-98.5 -189t-147 -147.5t-184 -103.5t-207 -51v1569h256v-542h10q41 41 110 41zM672 680q0 54 -20.5 87t-59.5 33q-80 0 -80 -90v-405q68 52 114 149.5t46 225.5z" />
<glyph unicode="&#x266e;" d="M256 1408h256v-341l384 119v-1186h-256v333l-384 -119v1194zM640 586v267l-128 -39v-267z" />
<glyph unicode="&#x266f;" d="M256 1344h256v-277l128 39v366h256v-286l84 26l80 -228l-164 -51v-267l84 26l80 -228l-164 -51v-349h-256v269l-128 -39v-358h-256v278l-84 -26l-80 228l164 51v267l-84 -26l-80 228l164 51v357zM640 586v267l-128 -39v-267z" />
<glyph unicode="&#x30c4;" d="M739 913l-250 -34l-52 384l250 34zM340 821l-228 -106l-180 384l228 106zM336 63l-76 240q138 43 261 126t216 195q95 114 154 253.5t76 288.5l250 -28q-42 -381 -286 -676q-239 -286 -595 -399z" />
<glyph />
<glyph />
<glyph />
<glyph />
<glyph />
<glyph />
<glyph />
<glyph />
<glyph />
<glyph d="M-4 1121l176 176l596 -562v-190l-596 -562l-176 176l388 361h-1024v240h1024z" />
<glyph d="M132 1121l-388 -361h1024v-240h-1024l388 -361l-176 -176l-596 562v190l596 562z" />
<glyph d="M-892 1121l-511 -476v-10l511 -476l-176 -176l-596 562v190l596 562zM-252 1121l-388 -361h1408v-240h-1408l388 -361l-176 -176l-596 562v190l596 562z" />
<glyph d="M-4 1121l176 176l596 -562v-190l-596 -562l-176 176l511 476v10zM-644 1121l176 176l596 -562v-190l-596 -562l-176 176l388 361h-1408v240h1408z" />
<glyph d="M-892 1121l-388 -361h2048v-240h-2048l388 -361l-176 -176l-596 562v190l596 562z" />
<glyph d="M-4 1121l176 176l596 -562v-190l-596 -562l-176 176l388 361h-2048v240h2048z" />
<glyph d="M228 1280h282l-130 -272h388v-240h-502l-130 -272h632v-240h-746l-122 -256h-282l122 256h-380v240h494l130 272h-624v240h738z" />
<glyph d="M768 372v-240h-1408v240h1408zM-349 863v-10l1117 -166v-243l-1408 234v360l1408 234v-243z" />
<glyph d="M-640 372h1408v-240h-1408v240zM477 863l-1117 166v243l1408 -234v-360l-1408 -234v243l1117 166v10z" />
<glyph d="M-256 716v-716h-256v716q0 50 -15 66q-16 18 -49 18t-49 -18q-15 -16 -15 -66v-716h-256v1024h256v-35h6q63 51 152 51q62 0 110 -29t77 -76q83 105 197 105q62 0 110 -29t77 -76q83 105 197 105q62 0 110 -29t77 -76q83 105 197 105q110 0 174 -86q24 -33 36 -73 t14 -68.5t2 -82.5v-730h-256v716q0 50 -15 66q-16 18 -49 18t-49 -18q-15 -16 -15 -66v-716h-256v716q0 50 -15 66q-16 18 -49 18t-49 -18q-15 -16 -15 -66v-716h-256v716q0 50 -15 66q-16 18 -49 18t-49 -18q-15 -16 -15 -66z" />
<glyph d="M704 1428q148 0 242.5 -95t94.5 -238q0 -268 -239 -391l170 -218q22 103 92 181.5t171 124.5q-53 76 -76.5 145t-23.5 156q0 149 95.5 242t241.5 93q148 0 242.5 -95t94.5 -238q0 -268 -239 -391l94 -156v92h256v-209q0 -150 -45 -228l123 -203h-284l-22 36 q-123 -52 -320 -52q-113 0 -211.5 26.5t-147.5 78.5q-124 -105 -309 -105q-111 0 -203 34.5t-152 92.5t-92.5 134t-32.5 161q0 132 66.5 232t176.5 154q-53 76 -76.5 145t-23.5 156q0 149 95.5 242t241.5 93zM704 1188q-36 0 -58.5 -25.5t-22.5 -68.5q0 -90 60 -195 q102 53 102 196q0 41 -22 67t-59 26zM582 601q-102 -71 -102 -195q0 -78 60 -130t164 -52q91 0 143 30zM1451 899q102 53 102 196q0 41 -22 67t-59 26q-36 0 -58.5 -25.5t-22.5 -68.5q0 -90 60 -195zM1350 601q-87 -51 -136 -124.5t-56 -190.5q58 -62 214 -62q125 0 193 20z " />
<glyph d="M896 1536v-1664h-256v1664h256z" />
<glyph d="M512 1536v-1664h-256v1664h256z" />
<glyph d="M-1536 360h384v-360h-384v360zM-640 360h384v-360h-384v360zM256 360h384v-360h-384v360z" />
<glyph d="M256 760h768v-240h-768v240z" />
<glyph d="M252 1121l176 176l596 -562v-190l-596 -562l-176 176l511 476v10z" />
<glyph d="M-4 1121l176 176l596 -562v-190l-596 -562l-176 176l511 476v10z" />
<glyph d="M517 635l511 -476l-176 -176l-596 562v190l596 562l176 -176l-511 -476v-10z" />
<glyph d="M261 635l511 -476l-176 -176l-596 562v190l596 562l176 -176l-511 -476v-10z" />
<glyph d="M-1472 330q76 0 124.5 -48t48.5 -125t-48.5 -125t-124.5 -48t-124.5 48t-48.5 125t48.5 125t124.5 48zM-1916 1121l-388 -361h703l-13 648h284l-13 -648h2111v-240h-3072l388 -361l-176 -176l-596 562v190l596 562z" />
<glyph d="M512 360h384v-360h-384v360z" />
<glyph d="M256 360h384v-360h-384v360z" />
<glyph d="M-128 1012h896v-240h-896v240zM-128 500h896v-240h-896v240zM-924 1280h282l-130 -272h260v-240h-374l-130 -272h504v-240h-618l-122 -256h-282l122 256h-252v240h366l130 272h-496v240h610z" />
<glyph d="M815 574l231 -229l-187 -164l-217 220l-61 85h-10l-59 -83l-219 -222l-188 164l234 231l83 59v10l-83 59l-233 231l187 164l217 -220l61 -85h10l61 85l217 220l187 -164l-231 -229l-85 -61v-10z" />
<glyph d="M576 1426q202 0 284 -217q18 -49 27 -135t10.5 -156.5t1.5 -213.5t-1.5 -213.5t-10.5 -156.5t-27 -135q-82 -217 -284 -217t-284 217q-18 49 -27 135t-10.5 156.5t-1.5 213.5t1.5 213.5t10.5 156.5t27 135q82 217 284 217zM505 640q0 -217 10 -288q18 -126 61 -126 t61 126q10 63 10 288h-142zM647 768q0 217 -10 288q-18 126 -61 126t-61 -126q-10 -63 -10 -288h142z" />
<glyph d="M505 704q0 -285 10 -352q18 -126 61 -126t61 126q10 67 10 352t-10 352q-18 126 -61 126t-61 -126q-10 -67 -10 -352zM576 1426q202 0 284 -217q18 -49 27 -135t10.5 -156.5t1.5 -213.5t-1.5 -213.5t-10.5 -156.5t-27 -135q-82 -217 -284 -217t-284 217q-18 49 -27 135 t-10.5 156.5t-1.5 213.5t1.5 213.5t10.5 156.5t27 135q82 217 284 217z" />
<glyph d="M472 1408h232v-1168h192v-240h-640v240h192v866h-10l-119 -87l-127 185z" />
<glyph d="M960 -1q-107 -15 -192 -15q-80 0 -145.5 29t-106.5 79q-32 38 -48 89t-18 85t-2 94v802h-256v246h512v-1038q0 -74 15.5 -110t58.5 -36q71 0 182 15v-240z" />
<glyph d="M536 1424q187 0 279.5 -106t92.5 -284q0 -103 -37 -187.5t-106 -133.5v-10q76 -47 119.5 -133.5t43.5 -192.5v-3q-1 -112 -41 -198t-127.5 -139t-213.5 -53q-132 0 -290 26v241q162 -27 280 -27q136 0 136 170q0 110 -44 157q-30 33 -116 33h-128v240h129q80 0 107 38 q32 46 32 152q0 81 -26 125.5t-90 44.5q-86 0 -280 -28v240q164 28 280 28z" />
<glyph d="M571 84q-60 -100 -187 -100q-93 0 -160.5 51t-86.5 132q-9 38 -9 127v730h256v-730q0 -70 64 -70t64 70v474h128v-474q0 -70 64 -70t64 70v730h256v-730q0 -89 -9 -127q-19 -81 -86.5 -132t-160.5 -51q-127 0 -187 100h-10z" />
<glyph d="M571 84q-60 -100 -187 -100q-93 0 -160.5 51t-86.5 132q-9 38 -9 127v1114h256v-1114q0 -70 64 -70t64 70v730h128v-730q0 -70 64 -70t64 70v1114h256v-1114q0 -89 -9 -127q-19 -81 -86.5 -132t-160.5 -51q-127 0 -187 100h-10z" />
<glyph d="M552 1401q78 0 127.5 -49.5t49.5 -127.5t-49.5 -127.5t-127.5 -49.5t-127.5 49.5t-49.5 127.5t49.5 127.5t127.5 49.5zM704 896v-656h256v-240h-768v240h256v416h-256v240h512z" />
<glyph d="M576 1401q78 0 127.5 -49.5t49.5 -127.5t-49.5 -127.5t-127.5 -49.5t-127.5 49.5t-49.5 127.5t49.5 127.5t127.5 49.5zM512 160v496h-246v240h502v-736q0 -171 -61 -273q-95 -159 -299 -159q-116 0 -236 15v240q135 -15 236 -15q38 0 62.5 29.5t33 70t8.5 92.5z" />
<glyph d="M256 0v240h128v544h-128v240h384v-98h10q52 58 115 86t156 28q51 0 103 -3v-241q-49 4 -103 4q-157 0 -218 -64q-39 -40 -51 -88.5t-12 -112.5v-295h128v-240h-512z" />
<glyph d="M704 132v-260h-256v250q-54 4 -192 32v243q214 -45 311 -45q57 0 81 27.5t24 61.5q0 45 -26 76.5t-74 58.5q-2 1 -69 32t-101 57q-168 117 -168 303q0 105 58 191t156 116v261h256v-251q72 -7 182 -30v-233q-227 44 -314 44q-43 0 -62.5 -30.5t-19.5 -67.5q0 -92 88 -139 q16 -9 82 -36.5t102 -50.5q74 -47 120 -124t46 -177q0 -107 -60 -191.5t-164 -117.5z" />
<glyph d="M704 1408v-1168h256v-240h-768v240h256v928h-256v240h512z" />
<glyph d="M896 0h-256v388l-512 -4v222l524 802h244v-780h128v-240h-128v-388zM640 1008l-241 -380h241v380z" />
<glyph d="M576 1401q78 0 127.5 -49.5t49.5 -127.5t-49.5 -127.5t-127.5 -49.5t-127.5 49.5t-49.5 127.5t49.5 127.5t127.5 49.5zM512 32v624h-246v240h502v-864q0 -171 -61 -273q-95 -159 -299 -159q-116 0 -236 15v240q135 -15 236 -15q38 0 62.5 29.5t33 70t8.5 92.5z" />
<glyph d="M560 800q-26 0 -44 -30.5t-26 -76.5q-10 -54 -10 -181t10 -181q8 -46 26 -76.5t44 -30.5t44 30.5t26 76.5q10 54 10 181t-10 181q-8 46 -26 76.5t-44 30.5zM465 1040q116 0 167 -81h8v65h256v-992q0 -171 -61 -273q-45 -74 -128 -116.5t-201 -42.5q-116 0 -236 15v240 q135 -15 236 -15q72 0 103 55t31 137v33h-8q-51 -81 -167 -81q-76 0 -135 63t-85 174q-21 90 -21 291q0 203 21 291q27 112 85.5 174.5t134.5 62.5z" />
<glyph d="M587 334q69 275 135 690h256q-47 -246 -72 -367.5t-78 -327t-121 -402.5q-72 -183 -160 -248q-94 -79 -291 -79v240q114 0 148 23t70 106q9 20 14 31h-31q-98 225 -164 474.5t-119 549.5h258q61 -427 145 -690h10z" />
<glyph d="M-665 -197l-237 86l671 1716l237 -86zM103 -197l-237 86l671 1716l237 -86z" />
<glyph d="M-4 1121l176 176l596 -562v-190l-596 -562l-176 176l108 101h-744v240h1002l145 135v10l-136 127h-1011v240h753z" />
<glyph d="M256 760h640v-240h-640v240z" />
<glyph d="M592 224q26 0 42.5 16.5t24.5 50.5t10.5 69t2.5 88t-2.5 88t-10.5 69t-24.5 50.5t-42.5 16.5t-42.5 -16.5t-24.5 -50.5t-10.5 -69t-2.5 -88t2.5 -88t10.5 -69t24.5 -50.5t42.5 -16.5zM638 1424q82 0 194 -6v-240q-117 6 -194 6q-33 0 -56 -15t-36.5 -39t-21 -63 t-10 -77.5t-2.5 -93.5v-59h10q56 65 150 65q75 0 136 -52.5t92 -137.5q13 -36 19.5 -83t7.5 -81t1 -100q0 -177 -32 -264q-34 -92 -112 -146t-192 -54t-191.5 54t-112.5 146q-32 86 -32 231v481q0 112 7 184t33 135q38 93 126 151t216 58z" />
<glyph d="M560 1184q-26 0 -42.5 -16.5t-24.5 -50.5t-10.5 -69t-2.5 -88t2.5 -88t10.5 -69t24.5 -50.5t42.5 -16.5t42.5 16.5t24.5 50.5t10.5 69t2.5 88t-2.5 88t-10.5 69t-24.5 50.5t-42.5 16.5zM288 244q141 -20 246 -20q25 0 43 10.5t29.5 33t18.5 46.5t10 64t4 72t1 82v29h-10 q-48 -54 -131 -54q-89 0 -152.5 51.5t-94.5 137.5q-13 36 -19.5 83t-7.5 81t-1 100q0 177 32 264q34 92 112 146t192 54t191.5 -54t112.5 -146q32 -86 32 -231v-461q0 -219 -30 -319t-113.5 -164.5t-198.5 -64.5q-117 0 -266 17v243z" />
<glyph d="M581 1073h-10q-78 -260 -131 -561h272q-53 300 -131 561zM401 272q-25 -175 -37 -272h-259q101 790 273 1280h396q172 -490 273 -1280h-259q-12 97 -37 272h-350zM704 1408h-218l-190 256h266z" />
<glyph d="M581 1073h-10q-78 -260 -131 -561h272q-53 300 -131 561zM401 272q-25 -175 -37 -272h-259q101 790 273 1280h396q172 -490 273 -1280h-259q-12 97 -37 272h-350zM448 1408l142 256h266l-190 -256h-218z" />
<glyph d="M581 1073h-10q-78 -260 -131 -561h272q-53 300 -131 561zM401 272q-25 -175 -37 -272h-259q101 790 273 1280h396q172 -490 273 -1280h-259q-12 97 -37 272h-350zM427 1664h298l227 -256h-248l-128 114l-128 -114h-248z" />
<glyph d="M581 1073h-10q-78 -260 -131 -561h272q-53 300 -131 561zM401 272q-25 -175 -37 -272h-259q101 790 273 1280h396q172 -490 273 -1280h-259q-12 97 -37 272h-350zM498 1470q-43 0 -47 -63l-198 6q3 104 53.5 175.5t141.5 71.5q50 0 88.5 -14.5t66 -29t51.5 -14.5 q43 0 47 63l198 -6q-2 -103 -53 -175t-142 -72q-50 0 -88.5 14.5t-66 29t-51.5 14.5z" />
<glyph d="M581 1073h-10q-78 -260 -131 -561h272q-53 300 -131 561zM401 272q-25 -175 -37 -272h-259q101 790 273 1280h396q172 -490 273 -1280h-259q-12 97 -37 272h-350zM800 1678q63 0 102.5 -39.5t39.5 -102.5t-39.5 -102.5t-102.5 -39.5t-102.5 39.5t-39.5 102.5t39.5 102.5 t102.5 39.5zM352 1678q63 0 102.5 -39.5t39.5 -102.5t-39.5 -102.5t-102.5 -39.5t-102.5 39.5t-39.5 102.5t39.5 102.5t102.5 39.5z" />
<glyph d="M576 1476q-40 0 -65 -25.5t-25 -72.5t25 -72.5t65 -25.5t65 25.5t25 72.5t-25 72.5t-65 25.5zM576 1636q113 0 185.5 -74t72.5 -184q0 -84 -43 -148q91 -271 150.5 -571.5t105.5 -658.5h-259q-12 97 -37 272h-350q-25 -175 -37 -272h-259q46 358 105.5 658.5t150.5 571.5 q-43 64 -43 148q0 110 72.5 184t185.5 74zM581 1073h-10q-78 -260 -131 -561h272q-53 300 -131 561z" />
<glyph d="M192 1280h768v-240h-512v-276h384v-240h-384v-284h512v-240h-768v1280zM640 1408h-218l-190 256h266z" />
<glyph d="M192 1280h768v-240h-512v-276h384v-240h-384v-284h512v-240h-768v1280zM384 1408l142 256h266l-190 -256h-218z" />
<glyph d="M192 1280h768v-240h-512v-276h384v-240h-384v-284h512v-240h-768v1280zM363 1664h298l227 -256h-248l-128 114l-128 -114h-248z" />
<glyph d="M192 1280h768v-240h-512v-276h384v-240h-384v-284h512v-240h-768v1280zM736 1678q63 0 102.5 -39.5t39.5 -102.5t-39.5 -102.5t-102.5 -39.5t-102.5 39.5t-39.5 102.5t39.5 102.5t102.5 39.5zM288 1678q63 0 102.5 -39.5t39.5 -102.5t-39.5 -102.5t-102.5 -39.5 t-102.5 39.5t-39.5 102.5t39.5 102.5t102.5 39.5z" />
<glyph d="M960 1280v-240h-256v-800h256v-240h-768v240h256v800h-256v240h768zM704 1408h-218l-190 256h266z" />
<glyph d="M960 1280v-240h-256v-800h256v-240h-768v240h256v800h-256v240h768zM448 1408l142 256h266l-190 -256h-218z" />
<glyph d="M960 1280v-240h-256v-800h256v-240h-768v240h256v800h-256v240h768zM427 1664h298l227 -256h-248l-128 114l-128 -114h-248z" />
<glyph d="M960 1280v-240h-256v-800h256v-240h-768v240h256v800h-256v240h768zM800 1678q63 0 102.5 -39.5t39.5 -102.5t-39.5 -102.5t-102.5 -39.5t-102.5 39.5t-39.5 102.5t39.5 102.5t102.5 39.5zM352 1678q63 0 102.5 -39.5t39.5 -102.5t-39.5 -102.5t-102.5 -39.5t-102.5 39.5 t-39.5 102.5t39.5 102.5t102.5 39.5z" />
<glyph d="M448 0h-256v1280h255l247 -738h10v738h256v-1280h-256l-246 738h-10v-738zM498 1470q-43 0 -47 -63l-198 6q3 104 53.5 175.5t141.5 71.5q50 0 88.5 -14.5t66 -29t51.5 -14.5q43 0 47 63l198 -6q-2 -103 -53 -175t-142 -72q-50 0 -88.5 14.5t-66 29t-51.5 14.5z" />
<glyph d="M384 640q0 -72 1.5 -114.5t12.5 -102t32 -101.5q22 -44 60 -71t86 -27t86 27t60 71q21 42 32 101.5t12.5 102t1.5 114.5t-1.5 114.5t-12.5 102t-32 101.5q-22 44 -60 71t-86 27t-86 -27t-60 -71q-21 -42 -32 -101.5t-12.5 -102t-1.5 -114.5zM128 640q0 74 2 117.5 t9.5 114t28.5 130t55 110.5q55 82 145.5 133t207.5 51t207.5 -51t145.5 -133q34 -51 55 -110.5t28.5 -130t9.5 -114t2 -117.5t-2 -117.5t-9.5 -114t-28.5 -130t-55 -110.5q-55 -82 -145.5 -133t-207.5 -51t-207.5 51t-145.5 133q-34 51 -55 110.5t-28.5 130t-9.5 114 t-2 117.5zM704 1408h-218l-190 256h266z" />
<glyph d="M384 640q0 -72 1.5 -114.5t12.5 -102t32 -101.5q22 -44 60 -71t86 -27t86 27t60 71q21 42 32 101.5t12.5 102t1.5 114.5t-1.5 114.5t-12.5 102t-32 101.5q-22 44 -60 71t-86 27t-86 -27t-60 -71q-21 -42 -32 -101.5t-12.5 -102t-1.5 -114.5zM128 640q0 74 2 117.5 t9.5 114t28.5 130t55 110.5q55 82 145.5 133t207.5 51t207.5 -51t145.5 -133q34 -51 55 -110.5t28.5 -130t9.5 -114t2 -117.5t-2 -117.5t-9.5 -114t-28.5 -130t-55 -110.5q-55 -82 -145.5 -133t-207.5 -51t-207.5 51t-145.5 133q-34 51 -55 110.5t-28.5 130t-9.5 114 t-2 117.5zM448 1408l142 256h266l-190 -256h-218z" />
<glyph d="M384 640q0 -72 1.5 -114.5t12.5 -102t32 -101.5q22 -44 60 -71t86 -27t86 27t60 71q21 42 32 101.5t12.5 102t1.5 114.5t-1.5 114.5t-12.5 102t-32 101.5q-22 44 -60 71t-86 27t-86 -27t-60 -71q-21 -42 -32 -101.5t-12.5 -102t-1.5 -114.5zM128 640q0 74 2 117.5 t9.5 114t28.5 130t55 110.5q55 82 145.5 133t207.5 51t207.5 -51t145.5 -133q34 -51 55 -110.5t28.5 -130t9.5 -114t2 -117.5t-2 -117.5t-9.5 -114t-28.5 -130t-55 -110.5q-55 -82 -145.5 -133t-207.5 -51t-207.5 51t-145.5 133q-34 51 -55 110.5t-28.5 130t-9.5 114 t-2 117.5zM427 1664h298l227 -256h-248l-128 114l-128 -114h-248z" />
<glyph d="M384 640q0 -72 1.5 -114.5t12.5 -102t32 -101.5q22 -44 60 -71t86 -27t86 27t60 71q21 42 32 101.5t12.5 102t1.5 114.5t-1.5 114.5t-12.5 102t-32 101.5q-22 44 -60 71t-86 27t-86 -27t-60 -71q-21 -42 -32 -101.5t-12.5 -102t-1.5 -114.5zM128 640q0 74 2 117.5 t9.5 114t28.5 130t55 110.5q55 82 145.5 133t207.5 51t207.5 -51t145.5 -133q34 -51 55 -110.5t28.5 -130t9.5 -114t2 -117.5t-2 -117.5t-9.5 -114t-28.5 -130t-55 -110.5q-55 -82 -145.5 -133t-207.5 -51t-207.5 51t-145.5 133q-34 51 -55 110.5t-28.5 130t-9.5 114 t-2 117.5zM498 1470q-43 0 -47 -63l-198 6q3 104 53.5 175.5t141.5 71.5q50 0 88.5 -14.5t66 -29t51.5 -14.5q43 0 47 63l198 -6q-2 -103 -53 -175t-142 -72q-50 0 -88.5 14.5t-66 29t-51.5 14.5z" />
<glyph d="M384 640q0 -72 1.5 -114.5t12.5 -102t32 -101.5q22 -44 60 -71t86 -27t86 27t60 71q21 42 32 101.5t12.5 102t1.5 114.5t-1.5 114.5t-12.5 102t-32 101.5q-22 44 -60 71t-86 27t-86 -27t-60 -71q-21 -42 -32 -101.5t-12.5 -102t-1.5 -114.5zM128 640q0 74 2 117.5 t9.5 114t28.5 130t55 110.5q55 82 145.5 133t207.5 51t207.5 -51t145.5 -133q34 -51 55 -110.5t28.5 -130t9.5 -114t2 -117.5t-2 -117.5t-9.5 -114t-28.5 -130t-55 -110.5q-55 -82 -145.5 -133t-207.5 -51t-207.5 51t-145.5 133q-34 51 -55 110.5t-28.5 130t-9.5 114 t-2 117.5zM800 1678q63 0 102.5 -39.5t39.5 -102.5t-39.5 -102.5t-102.5 -39.5t-102.5 39.5t-39.5 102.5t39.5 102.5t102.5 39.5zM352 1678q63 0 102.5 -39.5t39.5 -102.5t-39.5 -102.5t-102.5 -39.5t-102.5 39.5t-39.5 102.5t39.5 102.5t102.5 39.5z" />
<glyph d="M128 1280h256v-768q0 -94 7 -128q15 -72 64.5 -116t120.5 -44t120.5 44t64.5 116q7 34 7 128v768h256v-768q0 -141 -16 -209q-34 -141 -151.5 -230t-280.5 -89t-280.5 89t-151.5 230q-16 68 -16 209v768zM704 1408h-218l-190 256h266z" />
<glyph d="M128 1280h256v-768q0 -94 7 -128q15 -72 64.5 -116t120.5 -44t120.5 44t64.5 116q7 34 7 128v768h256v-768q0 -141 -16 -209q-34 -141 -151.5 -230t-280.5 -89t-280.5 89t-151.5 230q-16 68 -16 209v768zM448 1408l142 256h266l-190 -256h-218z" />
<glyph d="M128 1280h256v-768q0 -94 7 -128q15 -72 64.5 -116t120.5 -44t120.5 44t64.5 116q7 34 7 128v768h256v-768q0 -141 -16 -209q-34 -141 -151.5 -230t-280.5 -89t-280.5 89t-151.5 230q-16 68 -16 209v768zM427 1664h298l227 -256h-248l-128 114l-128 -114h-248z" />
<glyph d="M128 1280h256v-768q0 -94 7 -128q15 -72 64.5 -116t120.5 -44t120.5 44t64.5 116q7 34 7 128v768h256v-768q0 -141 -16 -209q-34 -141 -151.5 -230t-280.5 -89t-280.5 89t-151.5 230q-16 68 -16 209v768zM800 1678q63 0 102.5 -39.5t39.5 -102.5t-39.5 -102.5 t-102.5 -39.5t-102.5 39.5t-39.5 102.5t39.5 102.5t102.5 39.5zM352 1678q63 0 102.5 -39.5t39.5 -102.5t-39.5 -102.5t-102.5 -39.5t-102.5 39.5t-39.5 102.5t39.5 102.5t102.5 39.5z" />
<glyph d="M581 787q147 299 200 493h271q-164 -463 -348 -728v-552h-256v552q-184 265 -348 728h271q7 -29 18 -62.5t21 -61t26 -67t26 -63t29.5 -66.5t27 -59.5t28 -61t24.5 -52.5h10zM448 1408l142 256h266l-190 -256h-218z" />
<glyph d="M581 1073h-10q-78 -260 -131 -561h272q-53 300 -131 561zM401 272q-25 -175 -37 -272h-259q101 790 273 1280h396q172 -490 273 -1280h-259q-12 97 -37 272h-350zM256 1612h640v-200h-640v200z" />
<glyph d="M581 1073h-10q-78 -260 -131 -561h272q-53 300 -131 561zM401 272q-25 -175 -37 -272h-259q101 790 273 1280h396q172 -490 273 -1280h-259q-12 97 -37 272h-350zM728 1664h208q0 -123 -103.5 -197.5t-256.5 -74.5t-256.5 74.5t-103.5 197.5h208q0 -41 39 -66.5 t113 -25.5t113 25.5t39 66.5z" />
<glyph d="M653 1296q134 0 277 -25v-240q-148 25 -278 25q-152 0 -222 -108q-62 -96 -62 -308q0 -214 62 -308q36 -55 90 -81.5t139 -26.5q130 0 301 25v-240q-162 -25 -297 -25q-154 0 -261 49.5t-179 152.5q-111 158 -111 454t111 454q141 202 430 202zM512 1408l142 256h266 l-190 -256h-218z" />
<glyph d="M653 1296q134 0 277 -25v-240q-148 25 -278 25q-152 0 -222 -108q-62 -96 -62 -308q0 -214 62 -308q36 -55 90 -81.5t139 -26.5q130 0 301 25v-240q-162 -25 -297 -25q-154 0 -261 49.5t-179 152.5q-111 158 -111 454t111 454q141 202 430 202zM491 1664h298l227 -256 h-248l-128 114l-128 -114h-248z" />
<glyph d="M653 1296q134 0 277 -25v-240q-148 25 -278 25q-152 0 -222 -108q-62 -96 -62 -308q0 -214 62 -308q36 -55 90 -81.5t139 -26.5q130 0 301 25v-240q-162 -25 -297 -25q-154 0 -261 49.5t-179 152.5q-111 158 -111 454t111 454q141 202 430 202zM640 1680 q63 0 102.5 -39.5t39.5 -102.5t-39.5 -102.5t-102.5 -39.5t-102.5 39.5t-39.5 102.5t39.5 102.5t102.5 39.5z" />
<glyph d="M653 1296q134 0 277 -25v-240q-148 25 -278 25q-152 0 -222 -108q-62 -96 -62 -308q0 -214 62 -308q36 -55 90 -81.5t139 -26.5q130 0 301 25v-240q-162 -25 -297 -25q-154 0 -261 49.5t-179 152.5q-111 158 -111 454t111 454q141 202 430 202zM789 1408h-298l-227 256 h248l128 -114l128 114h248z" />
<glyph d="M474 1280q321 0 469 -213q57 -82 77 -185.5t20 -241.5t-20 -241.5t-77 -185.5q-148 -213 -469 -213h-346v1280h346zM784 640q0 107 -12 178.5t-45 117.5q-75 104 -232 104h-111v-800h111q157 0 232 104q33 46 45 117.5t12 178.5zM725 1408h-298l-227 256h248l128 -114 l128 114h248z" />
<glyph d="M192 1280h768v-240h-512v-276h384v-240h-384v-284h512v-240h-768v1280zM192 1612h640v-200h-640v200z" />
<glyph d="M192 1280h768v-240h-512v-276h384v-240h-384v-284h512v-240h-768v1280zM664 1664h208q0 -123 -103.5 -197.5t-256.5 -74.5t-256.5 74.5t-103.5 197.5h208q0 -41 39 -66.5t113 -25.5t113 25.5t39 66.5z" />
<glyph d="M192 1280h768v-240h-512v-276h384v-240h-384v-284h512v-240h-768v1280zM512 1680q63 0 102.5 -39.5t39.5 -102.5t-39.5 -102.5t-102.5 -39.5t-102.5 39.5t-39.5 102.5t39.5 102.5t102.5 39.5z" />
<glyph d="M192 1280h768v-240h-512v-276h384v-240h-384v-284h512v-240h-768v1280zM661 1408h-298l-227 256h248l128 -114l128 114h248z" />
<glyph d="M653 1296q166 0 341 -33v-240q-180 33 -342 33q-152 0 -222 -108q-62 -96 -62 -308q0 -214 62 -308q36 -55 90 -81.5t139 -26.5q35 0 109 4v300h-128v240h384v-751q-204 -33 -361 -33q-154 0 -261 49.5t-179 152.5q-111 158 -111 454t111 454q141 202 430 202zM491 1664 h298l227 -256h-248l-128 114l-128 -114h-248z" />
<glyph d="M653 1296q166 0 341 -33v-240q-180 33 -342 33q-152 0 -222 -108q-62 -96 -62 -308q0 -214 62 -308q36 -55 90 -81.5t139 -26.5q35 0 109 4v300h-128v240h384v-751q-204 -33 -361 -33q-154 0 -261 49.5t-179 152.5q-111 158 -111 454t111 454q141 202 430 202zM792 1664 h208q0 -123 -103.5 -197.5t-256.5 -74.5t-256.5 74.5t-103.5 197.5h208q0 -41 39 -66.5t113 -25.5t113 25.5t39 66.5z" />
<glyph d="M653 1296q166 0 341 -33v-240q-180 33 -342 33q-152 0 -222 -108q-62 -96 -62 -308q0 -214 62 -308q36 -55 90 -81.5t139 -26.5q35 0 109 4v300h-128v240h384v-751q-204 -33 -361 -33q-154 0 -261 49.5t-179 152.5q-111 158 -111 454t111 454q141 202 430 202zM640 1680 q63 0 102.5 -39.5t39.5 -102.5t-39.5 -102.5t-102.5 -39.5t-102.5 39.5t-39.5 102.5t39.5 102.5t102.5 39.5z" />
<glyph d="M192 1280h256v-524h256v524h256v-1280h-256v516h-256v-516h-256v1280zM427 1664h298l227 -256h-248l-128 114l-128 -114h-248z" />
<glyph d="M960 1280v-240h-256v-800h256v-240h-768v240h256v800h-256v240h768zM498 1470q-43 0 -47 -63l-198 6q3 104 53.5 175.5t141.5 71.5q50 0 88.5 -14.5t66 -29t51.5 -14.5q43 0 47 63l198 -6q-2 -103 -53 -175t-142 -72q-50 0 -88.5 14.5t-66 29t-51.5 14.5z" />
<glyph d="M960 1280v-240h-256v-800h256v-240h-768v240h256v800h-256v240h768zM256 1612h640v-200h-640v200z" />
<glyph d="M960 1280v-240h-256v-800h256v-240h-768v240h256v800h-256v240h768zM728 1664h208q0 -123 -103.5 -197.5t-256.5 -74.5t-256.5 74.5t-103.5 197.5h208q0 -41 39 -66.5t113 -25.5t113 25.5t39 66.5z" />
<glyph d="M960 1280v-240h-256v-800h256v-240h-768v240h256v800h-256v240h768zM576 1680q63 0 102.5 -39.5t39.5 -102.5t-39.5 -102.5t-102.5 -39.5t-102.5 39.5t-39.5 102.5t39.5 102.5t102.5 39.5z" />
<glyph d="M704 1040h-384v240h640v-806q0 -49 -1.5 -78.5t-9 -78.5t-27.5 -93.5t-51 -84.5q-54 -69 -138.5 -110t-189.5 -41q-111 0 -213 44t-181 111l137 192q121 -107 257 -107q84 0 124 62q17 26 26 61.5t10 59t1 63.5v566zM427 1664h298l227 -256h-248l-128 114l-128 -114h-248 z" />
<glyph d="M192 0v1280h256v-1040h576v-240h-832zM192 1408l142 256h266l-190 -256h-218z" />
<glyph d="M448 0h-256v1280h255l247 -738h10v738h256v-1280h-256l-246 738h-10v-738zM448 1408l142 256h266l-190 -256h-218z" />
<glyph d="M448 0h-256v1280h255l247 -738h10v738h256v-1280h-256l-246 738h-10v-738zM725 1408h-298l-227 256h248l128 -114l128 114h248z" />
<glyph d="M384 640q0 -72 1.5 -114.5t12.5 -102t32 -101.5q22 -44 60 -71t86 -27t86 27t60 71q21 42 32 101.5t12.5 102t1.5 114.5t-1.5 114.5t-12.5 102t-32 101.5q-22 44 -60 71t-86 27t-86 -27t-60 -71q-21 -42 -32 -101.5t-12.5 -102t-1.5 -114.5zM128 640q0 74 2 117.5 t9.5 114t28.5 130t55 110.5q55 82 145.5 133t207.5 51t207.5 -51t145.5 -133q34 -51 55 -110.5t28.5 -130t9.5 -114t2 -117.5t-2 -117.5t-9.5 -114t-28.5 -130t-55 -110.5q-55 -82 -145.5 -133t-207.5 -51t-207.5 51t-145.5 133q-34 51 -55 110.5t-28.5 130t-9.5 114 t-2 117.5zM256 1612h640v-200h-640v200z" />
<glyph d="M384 640q0 -72 1.5 -114.5t12.5 -102t32 -101.5q22 -44 60 -71t86 -27t86 27t60 71q21 42 32 101.5t12.5 102t1.5 114.5t-1.5 114.5t-12.5 102t-32 101.5q-22 44 -60 71t-86 27t-86 -27t-60 -71q-21 -42 -32 -101.5t-12.5 -102t-1.5 -114.5zM128 640q0 74 2 117.5 t9.5 114t28.5 130t55 110.5q55 82 145.5 133t207.5 51t207.5 -51t145.5 -133q34 -51 55 -110.5t28.5 -130t9.5 -114t2 -117.5t-2 -117.5t-9.5 -114t-28.5 -130t-55 -110.5q-55 -82 -145.5 -133t-207.5 -51t-207.5 51t-145.5 133q-34 51 -55 110.5t-28.5 130t-9.5 114 t-2 117.5zM728 1664h208q0 -123 -103.5 -197.5t-256.5 -74.5t-256.5 74.5t-103.5 197.5h208q0 -41 39 -66.5t113 -25.5t113 25.5t39 66.5z" />
<glyph d="M384 640q0 -72 1.5 -114.5t12.5 -102t32 -101.5q22 -44 60 -71t86 -27t86 27t60 71q21 42 32 101.5t12.5 102t1.5 114.5t-1.5 114.5t-12.5 102t-32 101.5q-22 44 -60 71t-86 27t-86 -27t-60 -71q-21 -42 -32 -101.5t-12.5 -102t-1.5 -114.5zM128 640q0 74 2 117.5 t9.5 114t28.5 130t55 110.5q55 82 145.5 133t207.5 51t207.5 -51t145.5 -133q34 -51 55 -110.5t28.5 -130t9.5 -114t2 -117.5t-2 -117.5t-9.5 -114t-28.5 -130t-55 -110.5q-55 -82 -145.5 -133t-207.5 -51t-207.5 51t-145.5 133q-34 51 -55 110.5t-28.5 130t-9.5 114 t-2 117.5zM640 1408l152 256h246l-180 -256h-218zM256 1408l152 256h246l-180 -256h-218z" />
<glyph d="M192 1280h336q148 0 211 -15q139 -31 220 -137.5t81 -263.5q0 -115 -44 -204t-125 -142l194 -518h-272l-160 449q-31 -1 -105 -1h-80v-448h-256v1280zM448 1040v-352h82q86 0 125 8q65 12 97 56t32 112t-32 112t-97 56q-39 8 -125 8h-82zM448 1408l142 256h266l-190 -256 h-218z" />
<glyph d="M192 1280h336q148 0 211 -15q139 -31 220 -137.5t81 -263.5q0 -115 -44 -204t-125 -142l194 -518h-272l-160 449q-31 -1 -105 -1h-80v-448h-256v1280zM448 1040v-352h82q86 0 125 8q65 12 97 56t32 112t-32 112t-97 56q-39 8 -125 8h-82zM725 1408h-298l-227 256h248 l128 -114l128 114h248z" />
<glyph d="M556 -16q-164 0 -370 32v244q241 -36 370 -36q178 0 178 150q0 45 -25.5 86t-71.5 56q-12 4 -116 24t-171 57q-188 104 -188 330q0 156 110.5 262.5t283.5 106.5q135 0 370 -25v-241q-243 26 -370 26q-50 0 -83 -23t-44 -50.5t-11 -57.5q0 -100 80 -130q23 -9 116 -25.5 t152 -45.5q117 -56 170.5 -150.5t53.5 -199.5q0 -176 -120 -283t-314 -107zM448 1408l142 256h266l-190 -256h-218z" />
<glyph d="M556 -16q-164 0 -370 32v244q241 -36 370 -36q178 0 178 150q0 45 -25.5 86t-71.5 56q-12 4 -116 24t-171 57q-188 104 -188 330q0 156 110.5 262.5t283.5 106.5q135 0 370 -25v-241q-243 26 -370 26q-50 0 -83 -23t-44 -50.5t-11 -57.5q0 -100 80 -130q23 -9 116 -25.5 t152 -45.5q117 -56 170.5 -150.5t53.5 -199.5q0 -176 -120 -283t-314 -107zM427 1664h298l227 -256h-248l-128 114l-128 -114h-248z" />
<glyph d="M556 -16q-164 0 -370 32v244q241 -36 370 -36q178 0 178 150q0 45 -25.5 86t-71.5 56q-12 4 -116 24t-171 57q-188 104 -188 330q0 156 110.5 262.5t283.5 106.5q135 0 370 -25v-241q-243 26 -370 26q-50 0 -83 -23t-44 -50.5t-11 -57.5q0 -100 80 -130q23 -9 116 -25.5 t152 -45.5q117 -56 170.5 -150.5t53.5 -199.5q0 -176 -120 -283t-314 -107zM725 1408h-298l-227 256h248l128 -114l128 114h248z" />
<glyph d="M1024 1280v-240h-320v-1040h-256v1040h-320v240h896zM725 1408h-298l-227 256h248l128 -114l128 114h248z" />
<glyph d="M128 1280h256v-768q0 -94 7 -128q15 -72 64.5 -116t120.5 -44t120.5 44t64.5 116q7 34 7 128v768h256v-768q0 -141 -16 -209q-34 -141 -151.5 -230t-280.5 -89t-280.5 89t-151.5 230q-16 68 -16 209v768zM498 1470q-43 0 -47 -63l-198 6q3 104 53.5 175.5t141.5 71.5 q50 0 88.5 -14.5t66 -29t51.5 -14.5q43 0 47 63l198 -6q-2 -103 -53 -175t-142 -72q-50 0 -88.5 14.5t-66 29t-51.5 14.5z" />
<glyph d="M128 1280h256v-768q0 -94 7 -128q15 -72 64.5 -116t120.5 -44t120.5 44t64.5 116q7 34 7 128v768h256v-768q0 -141 -16 -209q-34 -141 -151.5 -230t-280.5 -89t-280.5 89t-151.5 230q-16 68 -16 209v768zM256 1612h640v-200h-640v200z" />
<glyph d="M128 1280h256v-768q0 -94 7 -128q15 -72 64.5 -116t120.5 -44t120.5 44t64.5 116q7 34 7 128v768h256v-768q0 -141 -16 -209q-34 -141 -151.5 -230t-280.5 -89t-280.5 89t-151.5 230q-16 68 -16 209v768zM728 1664h208q0 -123 -103.5 -197.5t-256.5 -74.5t-256.5 74.5 t-103.5 197.5h208q0 -41 39 -66.5t113 -25.5t113 25.5t39 66.5z" />
<glyph d="M128 1280h256v-768q0 -94 7 -128q15 -72 64.5 -116t120.5 -44t120.5 44t64.5 116q7 34 7 128v768h256v-768q0 -141 -16 -209q-34 -141 -151.5 -230t-280.5 -89t-280.5 89t-151.5 230q-16 68 -16 209v768zM576 1764q113 0 185.5 -74t72.5 -184t-72.5 -184t-185.5 -74 t-185.5 74t-72.5 184t72.5 184t185.5 74zM576 1604q-40 0 -65 -25.5t-25 -72.5t25 -72.5t65 -25.5t65 25.5t25 72.5t-25 72.5t-65 25.5z" />
<glyph d="M128 1280h256v-768q0 -94 7 -128q15 -72 64.5 -116t120.5 -44t120.5 44t64.5 116q7 34 7 128v768h256v-768q0 -141 -16 -209q-34 -141 -151.5 -230t-280.5 -89t-280.5 89t-151.5 230q-16 68 -16 209v768zM640 1408l152 256h246l-180 -256h-218zM256 1408l152 256h246 l-180 -256h-218z" />
<glyph d="M484 640h184l67 -329h10q34 391 34 969h254q0 -636 -79 -1280h-284l-89 388h-10l-89 -388h-284q-79 644 -79 1280h254q0 -578 34 -969h10zM427 1664h298l227 -256h-248l-128 114l-128 -114h-248z" />
<glyph d="M581 787q147 299 200 493h271q-164 -463 -348 -728v-552h-256v552q-184 265 -348 728h271q7 -29 18 -62.5t21 -61t26 -67t26 -63t29.5 -66.5t27 -59.5t28 -61t24.5 -52.5h10zM427 1664h298l227 -256h-248l-128 114l-128 -114h-248z" />
<glyph d="M581 787q147 299 200 493h271q-164 -463 -348 -728v-552h-256v552q-184 265 -348 728h271q7 -29 18 -62.5t21 -61t26 -67t26 -63t29.5 -66.5t27 -59.5t28 -61t24.5 -52.5h10zM800 1678q63 0 102.5 -39.5t39.5 -102.5t-39.5 -102.5t-102.5 -39.5t-102.5 39.5t-39.5 102.5 t39.5 102.5t102.5 39.5zM352 1678q63 0 102.5 -39.5t39.5 -102.5t-39.5 -102.5t-102.5 -39.5t-102.5 39.5t-39.5 102.5t39.5 102.5t102.5 39.5z" />
<glyph d="M148 1040v240h856v-210l-571 -820v-10h591v-240h-896v212l571 818v10h-551zM448 1408l142 256h266l-190 -256h-218z" />
<glyph d="M148 1040v240h856v-210l-571 -820v-10h591v-240h-896v212l571 818v10h-551zM576 1680q63 0 102.5 -39.5t39.5 -102.5t-39.5 -102.5t-102.5 -39.5t-102.5 39.5t-39.5 102.5t39.5 102.5t102.5 39.5z" />
<glyph d="M148 1040v240h856v-210l-571 -820v-10h591v-240h-896v212l571 818v10h-551zM725 1408h-298l-227 256h248l128 -114l128 114h248z" />
<glyph d="M581 1073h-10q-78 -260 -131 -561h272q-53 300 -131 561zM401 272q-25 -175 -37 -272h-259q101 790 273 1280h396q172 -490 273 -1280h-259q-12 97 -37 272h-350zM516 1408h-218l-180 256h246zM900 1408h-218l-180 256h246z" />
<glyph d="M581 1073h-10q-78 -260 -131 -561h272q-53 300 -131 561zM401 272q-25 -175 -37 -272h-259q101 790 273 1280h396q172 -490 273 -1280h-259q-12 97 -37 272h-350zM424 1408h-208q0 123 103.5 197.5t256.5 74.5t256.5 -74.5t103.5 -197.5h-208q0 41 -39 66.5t-113 25.5 t-113 -25.5t-39 -66.5z" />
<glyph d="M192 1280h768v-240h-512v-276h384v-240h-384v-284h512v-240h-768v1280zM452 1408h-218l-180 256h246zM836 1408h-218l-180 256h246z" />
<glyph d="M192 1280h768v-240h-512v-276h384v-240h-384v-284h512v-240h-768v1280zM360 1408h-208q0 123 103.5 197.5t256.5 74.5t256.5 -74.5t103.5 -197.5h-208q0 41 -39 66.5t-113 25.5t-113 -25.5t-39 -66.5z" />
<glyph d="M960 1280v-240h-256v-800h256v-240h-768v240h256v800h-256v240h768zM516 1408h-218l-180 256h246zM900 1408h-218l-180 256h246z" />
<glyph d="M960 1280v-240h-256v-800h256v-240h-768v240h256v800h-256v240h768zM424 1408h-208q0 123 103.5 197.5t256.5 74.5t256.5 -74.5t103.5 -197.5h-208q0 41 -39 66.5t-113 25.5t-113 -25.5t-39 -66.5z" />
<glyph d="M384 640q0 -72 1.5 -114.5t12.5 -102t32 -101.5q22 -44 60 -71t86 -27t86 27t60 71q21 42 32 101.5t12.5 102t1.5 114.5t-1.5 114.5t-12.5 102t-32 101.5q-22 44 -60 71t-86 27t-86 -27t-60 -71q-21 -42 -32 -101.5t-12.5 -102t-1.5 -114.5zM128 640q0 74 2 117.5 t9.5 114t28.5 130t55 110.5q55 82 145.5 133t207.5 51t207.5 -51t145.5 -133q34 -51 55 -110.5t28.5 -130t9.5 -114t2 -117.5t-2 -117.5t-9.5 -114t-28.5 -130t-55 -110.5q-55 -82 -145.5 -133t-207.5 -51t-207.5 51t-145.5 133q-34 51 -55 110.5t-28.5 130t-9.5 114 t-2 117.5zM516 1408h-218l-180 256h246zM900 1408h-218l-180 256h246z" />
<glyph d="M384 640q0 -72 1.5 -114.5t12.5 -102t32 -101.5q22 -44 60 -71t86 -27t86 27t60 71q21 42 32 101.5t12.5 102t1.5 114.5t-1.5 114.5t-12.5 102t-32 101.5q-22 44 -60 71t-86 27t-86 -27t-60 -71q-21 -42 -32 -101.5t-12.5 -102t-1.5 -114.5zM128 640q0 74 2 117.5 t9.5 114t28.5 130t55 110.5q55 82 145.5 133t207.5 51t207.5 -51t145.5 -133q34 -51 55 -110.5t28.5 -130t9.5 -114t2 -117.5t-2 -117.5t-9.5 -114t-28.5 -130t-55 -110.5q-55 -82 -145.5 -133t-207.5 -51t-207.5 51t-145.5 133q-34 51 -55 110.5t-28.5 130t-9.5 114 t-2 117.5zM424 1408h-208q0 123 103.5 197.5t256.5 74.5t256.5 -74.5t103.5 -197.5h-208q0 41 -39 66.5t-113 25.5t-113 -25.5t-39 -66.5z" />
<glyph d="M192 1280h336q148 0 211 -15q139 -31 220 -137.5t81 -263.5q0 -115 -44 -204t-125 -142l194 -518h-272l-160 449q-31 -1 -105 -1h-80v-448h-256v1280zM448 1040v-352h82q86 0 125 8q65 12 97 56t32 112t-32 112t-97 56q-39 8 -125 8h-82zM516 1408h-218l-180 256h246z M900 1408h-218l-180 256h246z" />
<glyph d="M192 1280h336q148 0 211 -15q139 -31 220 -137.5t81 -263.5q0 -115 -44 -204t-125 -142l194 -518h-272l-160 449q-31 -1 -105 -1h-80v-448h-256v1280zM448 1040v-352h82q86 0 125 8q65 12 97 56t32 112t-32 112t-97 56q-39 8 -125 8h-82zM424 1408h-208 q0 123 103.5 197.5t256.5 74.5t256.5 -74.5t103.5 -197.5h-208q0 41 -39 66.5t-113 25.5t-113 -25.5t-39 -66.5z" />
<glyph d="M128 1280h256v-768q0 -94 7 -128q15 -72 64.5 -116t120.5 -44t120.5 44t64.5 116q7 34 7 128v768h256v-768q0 -141 -16 -209q-34 -141 -151.5 -230t-280.5 -89t-280.5 89t-151.5 230q-16 68 -16 209v768zM516 1408h-218l-180 256h246zM900 1408h-218l-180 256h246z" />
<glyph d="M128 1280h256v-768q0 -94 7 -128q15 -72 64.5 -116t120.5 -44t120.5 44t64.5 116q7 34 7 128v768h256v-768q0 -141 -16 -209q-34 -141 -151.5 -230t-280.5 -89t-280.5 89t-151.5 230q-16 68 -16 209v768zM424 1408h-208q0 123 103.5 197.5t256.5 74.5t256.5 -74.5 t103.5 -197.5h-208q0 41 -39 66.5t-113 25.5t-113 -25.5t-39 -66.5z" />
<glyph d="M192 438l-283 -93l-84 227l295 96l-185 255l212 135l173 -239l174 239l212 -135l-186 -255l295 -96l-84 -227l-283 93v-310h-256v310z" />
<glyph d="M704 694l-283 -93l-84 227l295 96l-185 255l212 135l173 -239l174 239l212 -135l-186 -255l295 -96l-84 -227l-283 93v-310h-256v310z" />
<glyph d="M326 601q-102 -71 -102 -195q0 -78 60 -130t164 -52q61 0 93 20zM427 899q102 53 102 196q0 41 -22 67t-59 26q-36 0 -58.5 -25.5t-22.5 -68.5q0 -90 60 -195zM640 548v92h256v-209q0 -150 -45 -228l123 -203h-284l-22 36q-85 -52 -220 -52q-111 0 -203 34.5t-152 92.5 t-92.5 134t-32.5 161q0 132 66.5 232t176.5 154q-53 76 -76.5 145t-23.5 156q0 149 95.5 242t241.5 93q148 0 242.5 -95t94.5 -238q0 -268 -239 -391z" />
<glyph d="M576 438l-283 -93l-84 227l295 96l-185 255l212 135l173 -239l174 239l212 -135l-186 -255l295 -96l-84 -227l-283 93v-310h-256v310z" />
<glyph d="M325 635l511 -476l-176 -176l-596 562v190l596 562l176 -176l-511 -476v-10zM-1536 360h384v-360h-384v360zM-640 360h384v-360h-384v360z" />
<glyph d="M-1732 1121l176 176l596 -562v-190l-596 -562l-176 176l511 476v10zM-964 1121l176 176l302 -285h1318v-240h-1063l39 -37v-190l-48 -45h1072v-240h-1326l-294 -277l-176 176l511 476v10z" />
<glyph d="M836 1121l-511 -476v-10l511 -476l-176 -176l-596 562v190l596 562zM68 1121l-511 -476v-10l511 -476l-176 -176l-294 277h-1326v240h1072l-48 45v190l39 37h-1063v240h1318l302 285z" />
<glyph d="M-832 500h768v-240h-768v240zM-832 1012h768v-240h-768v240zM-4 1121l176 176l596 -562v-190l-596 -562l-176 176l511 476v10zM-1403 635l511 -476l-176 -176l-596 562v190l596 562l176 -176l-511 -476v-10z" />
<glyph d="M64 500h768v-240h-768v240zM64 1012h768v-240h-768v240z" />
<glyph d="M-892 1121l-117 -109h1777v-240h-2035l-136 -127v-10l145 -135h2026v-240h-1768l108 -101l-176 -176l-596 562v190l596 562z" />
<glyph d="M-4 1121l176 176l596 -562v-190l-596 -562l-176 176l108 101h-1768v240h2026l145 135v10l-136 127h-2035v240h1777z" />
<glyph d="M-640 360h384v-360h-384v360zM-640 1024h384v-360h-384v360zM-1792 500h768v-240h-768v240zM-1792 1012h768v-240h-768v240zM128 500h768v-240h-768v240zM128 1012h768v-240h-768v240z" />
<glyph d="M798 -211l-799 1588l226 114l799 -1588z" />
<glyph d="M353 -211l-226 114l799 1588l226 -114z" />
<glyph d="M649 1539l105 -211q-368 -168 -368 -625t368 -625l-105 -211q-246 110 -382.5 322t-136.5 514t136.5 514t382.5 322z" />
<glyph d="M505 1539q246 -110 382.5 -322t136.5 -514t-136.5 -514t-382.5 -322l-105 211q368 168 368 625t-368 625z" />
<glyph d="M256 0h640v-240h-640v240z" />
<glyph d="M128 0h768v-240h-768v240z" />
<glyph d="M256 0h768v-240h-768v240z" />
<glyph d="M704 330q76 0 124.5 -48t48.5 -125t-48.5 -125t-124.5 -48t-124.5 48t-48.5 125t48.5 125t124.5 48zM828 512h-248l-18 896h284z" />
<glyph d="M448 330q76 0 124.5 -48t48.5 -125t-48.5 -125t-124.5 -48t-124.5 48t-48.5 125t48.5 125t124.5 48zM572 512h-248l-18 896h284z" />
<glyph />
<glyph />
<glyph />
<glyph d="M-1856 500h768v-240h-768v240zM-1856 1012h768v-240h-768v240zM-832 500h768v-240h-768v240zM-832 1012h768v-240h-768v240zM-4 1121l176 176l596 -562v-190l-596 -562l-176 176l511 476v10zM-2427 635l511 -476l-176 -176l-596 562v190l596 562l176 -176l-511 -476v-10z " />
<glyph d="M512 360h384v-360h-384v360zM512 1024h384v-360h-384v360z" />
<glyph d="M256 360h384v-360h-384v360zM256 1024h384v-360h-384v360z" />
</font>
</defs>
</svg>
